<?xml version="1.0" encoding="utf-8"?>
<!--Designed by Vexels.com - 2018 All Rights Reserved - https://vexels.com/terms-and-conditions/-->
<svg version="1.1" id="Layer_1" xmlns="http://www.w3.org/2000/svg" xmlns:xlink="http://www.w3.org/1999/xlink" x="0px" y="0px"
	 viewBox="0 0 1200 1200" enable-background="new 0 0 1200 1200" xml:space="preserve">
<path fill="#212121" d="M1150,98.529C1150,71.727,1128.273,50,1101.471,50H98.529C71.727,50,50,71.727,50,98.529v1002.941
	C50,1128.273,71.727,1150,98.529,1150h1002.941c26.802,0,48.529-21.727,48.529-48.529V98.529z M647.018,483.347
	c60.265-28.57,132.495-66.294,144.113-77.424c9.149-11.23,33.274-76.766,49.789-130.631c5.236-17.07,23.325-26.688,40.414-21.448
	c17.079,5.236,26.684,23.326,21.448,40.41c-14.891,48.597-43.131,133.542-64.954,156.452
	c-21.616,22.699-121.256,71.277-163.088,91.109c-4.477,2.121-9.194,3.128-13.838,3.128c-12.11,0-23.723-6.833-29.257-18.5
	C623.99,510.298,630.873,491.003,647.018,483.347z M422.258,648.705l140.583-111.696c15.987-12.701,39.25-10.047,51.951,5.949
	c12.7,15.987,10.037,39.25-5.949,51.951L468.26,706.605c-4.296,3.413-9.139,5.591-14.139,6.824
	c-11.785,28.663-34.664,82.578-47.962,102.529c-17.653,26.476-63.352,72.329-65.288,74.269c-3.611,3.612-8.345,5.422-13.08,5.422
	c-4.726,0-9.456-1.802-13.062-5.408c-7.227-7.213-7.235-18.921-0.019-26.142c0.447-0.452,45.049-45.208,60.685-68.651
	c10.212-15.323,30.217-61.553,43.088-92.625c-0.706-0.75-1.521-1.346-2.173-2.169C403.608,684.668,406.271,661.406,422.258,648.705z
	 M345.506,649.922c28.078,0,50.84,22.762,50.84,50.84c0,28.079-22.762,50.84-50.84,50.84c-28.079,0-50.84-22.762-50.84-50.84
	C294.666,672.684,317.427,649.922,345.506,649.922z M931.415,1054.814c-20.903,0-38.98-12.122-47.71-29.68
	c-8.73,17.558-26.807,29.68-47.711,29.68c-20.902,0-38.98-12.122-47.71-29.68c-8.729,17.558-26.808,29.68-47.711,29.68
	c-19.084,0-35.808-10.113-45.226-25.229c-9.417,15.116-26.141,25.229-45.226,25.229c-20.903,0-38.982-12.122-47.711-29.68
	c-8.729,17.558-26.807,29.68-47.71,29.68c-20.904,0-38.982-12.122-47.711-29.68c-8.729,17.558-26.807,29.68-47.71,29.68
	c-20.904,0-38.982-12.122-47.711-29.68c-8.73,17.558-26.808,29.68-47.711,29.68c-20.903,0-38.982-12.122-47.71-29.68
	c-8.729,17.558-26.807,29.68-47.711,29.68c-29.391,0-53.301-23.91-53.301-53.302c0-4.392,3.56-7.952,7.952-7.952
	c4.392,0,7.951,3.56,7.951,7.952c0,20.621,16.777,37.398,37.398,37.398c20.622,0,37.399-16.777,37.399-37.398
	c0-4.392,3.559-7.952,7.951-7.952c0.838,0,1.603,0.237,2.361,0.476c0.758-0.239,1.523-0.476,2.361-0.476
	c4.392,0,7.952,3.56,7.952,7.952c0,20.621,16.777,37.398,37.398,37.398c20.622,0,37.399-16.777,37.399-37.398
	c0-4.392,3.56-7.952,7.952-7.952c0.837,0,1.602,0.237,2.361,0.476c0.758-0.239,1.523-0.476,2.36-0.476
	c4.392,0,7.952,3.56,7.952,7.952c0,20.621,16.777,37.398,37.398,37.398c20.621,0,37.398-16.777,37.398-37.398
	c0-4.392,3.561-7.952,7.952-7.952c0.837,0,1.602,0.237,2.36,0.476c0.759-0.239,1.523-0.476,2.361-0.476
	c4.392,0,7.951,3.56,7.951,7.952c0,20.621,16.777,37.398,37.399,37.398c20.621,0,37.398-16.777,37.398-37.398
	c0-4.392,3.561-7.952,7.952-7.952c0.837,0,1.603,0.237,2.361,0.476c0.758-0.239,1.524-0.476,2.361-0.476
	c4.392,0,7.952,3.56,7.952,7.952c0,20.621,16.776,37.398,37.398,37.398c20.06,0,36.355-15.913,37.233-35.761
	c-0.018-0.548-0.083-1.084-0.083-1.637c0-4.392,3.561-7.952,7.952-7.952c0.043,0,0.08,0.025,0.124,0.025
	c0.043,0,0.08-0.025,0.124-0.025c4.392,0,7.953,3.56,7.953,7.952c0,0.552-0.067,1.089-0.083,1.637
	c0.877,19.848,17.172,35.761,37.233,35.761c20.621,0,37.398-16.777,37.398-37.398c0-4.392,3.561-7.952,7.951-7.952
	c0.837,0,1.603,0.237,2.361,0.476c0.758-0.239,1.524-0.476,2.361-0.476c4.392,0,7.952,3.56,7.952,7.952
	c0,20.621,16.777,37.398,37.397,37.398c20.622,0,37.399-16.777,37.399-37.398c0-4.392,3.561-7.952,7.951-7.952
	c0.838,0,1.603,0.237,2.361,0.476c0.758-0.239,1.523-0.476,2.361-0.476c4.392,0,7.952,3.56,7.952,7.952
	c0,20.621,16.777,37.398,37.398,37.398c20.622,0,37.399-16.777,37.399-37.398c0-4.392,3.561-7.952,7.952-7.952
	c4.392,0,7.951,3.56,7.951,7.952C984.717,1030.904,960.808,1054.814,931.415,1054.814z"/>
</svg>
