<?xml version="1.0" encoding="utf-8"?>
<!-- Designed by Vexels.com - 2018 All Rights Reserved - https://vexels.com/terms-and-conditions/  -->
<svg version="1.1" id="Layer_1" xmlns="http://www.w3.org/2000/svg" xmlns:xlink="http://www.w3.org/1999/xlink" x="0px" y="0px"
	 viewBox="0 0 1200 1200" enable-background="new 0 0 1200 1200" xml:space="preserve">
<g>
	<g>
		<path fill="#FF6E6E" d="M590.018,199.338H63.609V871h475.647l15.159,3.679c23.411,5.681,47.825,5.812,71.296,0.381l17.545-4.06
			h473.17V199.338H590.018z"/>
		<path fill="#E85858" d="M596.018,205.338L596.018,205.338H69.61v659.661h467.893l17.342,4.068
			c23.136,5.427,47.213,5.447,70.358,0.056l17.71-4.125h467.512V205.338H596.018z"/>
		<path fill="#DD4545" d="M641.332,205.338h-102.85v659.891l14.276,3.349c21.967-13.967,49.706-7.423,73.545,0.289l15.028-3.5
			V205.338z"/>
		<path fill="#FFFFFF" d="M130.348,207.62v641.882c0,0,296.784-20.706,459.67,0V199.338
			C590.018,199.338,300.136,159.307,130.348,207.62z"/>
		<polygon fill="#F2F0F0" points="130.348,207.62 84.769,211.976 84.769,859.686 130.348,849.502 		"/>
		<path fill="#DDD9D9" d="M84.769,859.686l45.579-10.184l235.725-38.572l223.946,38.572c0,0-53.185,9.951-52.485,10.184
			C538.233,859.918,84.769,859.686,84.769,859.686z"/>
		<path fill="#FFFFFF" d="M130.348,207.62v641.882c0,0,115.345-24.547,241.685-25.591c76.317-0.631,156.645,17.794,217.985,25.591
			V199.338C590.018,199.338,265.584,94.202,130.348,207.62z"/>
		<g>
			<path fill="#F7F7F7" d="M550.013,266.502c0,0-76.714-31.973-199.345-31.973c-94.954,0-199.345,31.973-199.345,31.973v-12.607
				c0,0,94.17-31.973,199.345-31.973c128.735,0,199.345,31.973,199.345,31.973V266.502z"/>
			<path fill="#F7F7F7" d="M550.013,311.082c0,0-76.714-31.973-199.345-31.973c-94.954,0-199.345,31.973-199.345,31.973v-12.607
				c0,0,94.17-31.973,199.345-31.973c128.735,0,199.345,31.973,199.345,31.973V311.082z"/>
			<path fill="#F7F7F7" d="M550.013,355.662c0,0-76.714-31.973-199.345-31.973c-94.954,0-199.345,31.973-199.345,31.973v-12.607
				c0,0,94.17-31.973,199.345-31.973c128.735,0,199.345,31.973,199.345,31.973V355.662z"/>
			<path fill="#F7F7F7" d="M550.013,400.243c0,0-76.714-31.973-199.345-31.973c-94.954,0-199.345,31.973-199.345,31.973v-12.607
				c0,0,94.17-31.973,199.345-31.973c128.735,0,199.345,31.973,199.345,31.973V400.243z"/>
			<path fill="#F7F7F7" d="M550.013,444.823c0,0-76.714-31.973-199.345-31.973c-94.954,0-199.345,31.973-199.345,31.973v-12.607
				c0,0,94.17-31.973,199.345-31.973c128.735,0,199.345,31.973,199.345,31.973V444.823z"/>
			<path fill="#F7F7F7" d="M550.013,489.403c0,0-76.714-31.973-199.345-31.973c-94.954,0-199.345,31.973-199.345,31.973v-12.607
				c0,0,94.17-31.973,199.345-31.973c128.735,0,199.345,31.973,199.345,31.973V489.403z"/>
			<path fill="#F7F7F7" d="M550.013,533.983c0,0-76.714-31.973-199.345-31.973c-94.954,0-199.345,31.973-199.345,31.973v-12.607
				c0,0,94.17-31.973,199.345-31.973c128.735,0,199.345,31.973,199.345,31.973V533.983z"/>
			<path fill="#F7F7F7" d="M550.013,578.564c0,0-76.714-31.973-199.345-31.973c-94.954,0-199.345,31.973-199.345,31.973v-12.607
				c0,0,94.17-31.973,199.345-31.973c128.735,0,199.345,31.973,199.345,31.973V578.564z"/>
			<path fill="#F7F7F7" d="M550.013,623.144c0,0-76.714-31.973-199.345-31.973c-94.954,0-199.345,31.973-199.345,31.973v-12.607
				c0,0,94.17-31.973,199.345-31.973c128.735,0,199.345,31.973,199.345,31.973V623.144z"/>
			<path fill="#F7F7F7" d="M550.013,667.724c0,0-76.714-31.973-199.345-31.973c-94.954,0-199.345,31.973-199.345,31.973v-12.607
				c0,0,94.17-31.973,199.345-31.973c128.735,0,199.345,31.973,199.345,31.973V667.724z"/>
			<path fill="#F7F7F7" d="M550.013,712.304c0,0-76.714-31.973-199.345-31.973c-94.954,0-199.345,31.973-199.345,31.973v-12.607
				c0,0,94.17-31.973,199.345-31.973c128.735,0,199.345,31.973,199.345,31.973V712.304z"/>
			<path fill="#F7F7F7" d="M550.013,756.884c0,0-76.714-31.973-199.345-31.973c-94.954,0-199.345,31.973-199.345,31.973v-12.607
				c0,0,94.17-31.973,199.345-31.973c128.735,0,199.345,31.973,199.345,31.973V756.884z"/>
			<path fill="#F7F7F7" d="M550.013,801.465c0,0-76.714-31.973-199.345-31.973c-94.954,0-199.345,31.973-199.345,31.973v-12.607
				c0,0,94.17-31.973,199.345-31.973c128.735,0,199.345,31.973,199.345,31.973V801.465z"/>
		</g>
		<path fill="#F7F7F7" d="M255.587,732.844c6.001-15.002,6.001-42.006-6.001-42.006c-70.216-2.809-79.964,96.916-107.995,156.436
			c31.916-6.069,127.521-22.513,230.441-23.364c46.461-0.384,94.386,6.297,138.631,13.341
			c-65.585-31.82-152.489-30.103-225.072-38.398C252.587,792.853,243.586,762.848,255.587,732.844z"/>
		<path fill="#FFFFFF" d="M1049.688,207.62v641.882c0,0-296.784-20.706-459.67,0V199.338
			C590.018,199.338,879.9,159.307,1049.688,207.62z"/>
		<polygon fill="#F2F0F0" points="1049.688,207.62 1095.267,211.976 1095.267,859.686 1049.688,849.502 		"/>
		<path fill="#DDD9D9" d="M1095.267,859.686l-45.579-10.184L813.964,810.93l-223.946,38.572c0,0,53.185,9.951,52.485,10.184
			C641.803,859.918,1095.267,859.686,1095.267,859.686z"/>
		<path fill="#FFFFFF" d="M1049.688,207.62v641.882c0,0-89.424-22.545-201.444-24.551c-85.951-1.539-187.508,15.561-258.226,24.551
			V199.338C590.018,199.338,874.125,75.453,1049.688,207.62z"/>
		<g>
			<path fill="#F7F7F7" d="M1025.652,266.502c0,0-76.714-31.973-199.345-31.973c-94.954,0-199.345,31.973-199.345,31.973v-12.607
				c0,0,94.17-31.973,199.345-31.973c128.735,0,199.345,31.973,199.345,31.973V266.502z"/>
			<path fill="#F7F7F7" d="M1025.652,311.082c0,0-76.714-31.973-199.345-31.973c-94.954,0-199.345,31.973-199.345,31.973v-12.607
				c0,0,94.17-31.973,199.345-31.973c128.735,0,199.345,31.973,199.345,31.973V311.082z"/>
			<path fill="#F7F7F7" d="M1025.652,355.662c0,0-76.714-31.973-199.345-31.973c-94.954,0-199.345,31.973-199.345,31.973v-12.607
				c0,0,94.17-31.973,199.345-31.973c128.735,0,199.345,31.973,199.345,31.973V355.662z"/>
			<path fill="#F7F7F7" d="M1025.652,400.243c0,0-76.714-31.973-199.345-31.973c-94.954,0-199.345,31.973-199.345,31.973v-12.607
				c0,0,94.17-31.973,199.345-31.973c128.735,0,199.345,31.973,199.345,31.973V400.243z"/>
			<path fill="#F7F7F7" d="M1025.652,444.823c0,0-76.714-31.973-199.345-31.973c-94.954,0-199.345,31.973-199.345,31.973v-12.607
				c0,0,94.17-31.973,199.345-31.973c128.735,0,199.345,31.973,199.345,31.973V444.823z"/>
			<path fill="#F7F7F7" d="M1025.652,489.403c0,0-76.714-31.973-199.345-31.973c-94.954,0-199.345,31.973-199.345,31.973v-12.607
				c0,0,94.17-31.973,199.345-31.973c128.735,0,199.345,31.973,199.345,31.973V489.403z"/>
			<path fill="#F7F7F7" d="M1025.652,533.983c0,0-76.714-31.973-199.345-31.973c-94.954,0-199.345,31.973-199.345,31.973v-12.607
				c0,0,94.17-31.973,199.345-31.973c128.735,0,199.345,31.973,199.345,31.973V533.983z"/>
			<path fill="#F7F7F7" d="M1025.652,578.564c0,0-76.714-31.973-199.345-31.973c-94.954,0-199.345,31.973-199.345,31.973v-12.607
				c0,0,94.17-31.973,199.345-31.973c128.735,0,199.345,31.973,199.345,31.973V578.564z"/>
			<path fill="#F7F7F7" d="M1025.652,623.144c0,0-76.714-31.973-199.345-31.973c-94.954,0-199.345,31.973-199.345,31.973v-12.607
				c0,0,94.17-31.973,199.345-31.973c128.735,0,199.345,31.973,199.345,31.973V623.144z"/>
			<path fill="#F7F7F7" d="M1025.652,667.724c0,0-76.714-31.973-199.345-31.973c-94.954,0-199.345,31.973-199.345,31.973v-12.607
				c0,0,94.17-31.973,199.345-31.973c128.735,0,199.345,31.973,199.345,31.973V667.724z"/>
			<path fill="#F7F7F7" d="M1025.652,712.304c0,0-76.714-31.973-199.345-31.973c-94.954,0-199.345,31.973-199.345,31.973v-12.607
				c0,0,94.17-31.973,199.345-31.973c128.735,0,199.345,31.973,199.345,31.973V712.304z"/>
			<path fill="#F7F7F7" d="M1025.652,756.884c0,0-76.714-31.973-199.345-31.973c-94.954,0-199.345,31.973-199.345,31.973v-12.607
				c0,0,94.17-31.973,199.345-31.973c128.735,0,199.345,31.973,199.345,31.973V756.884z"/>
			<path fill="#F7F7F7" d="M1025.652,801.465c0,0-76.714-31.973-199.345-31.973c-94.954,0-199.345,31.973-199.345,31.973v-12.607
				c0,0,94.17-31.973,199.345-31.973c128.735,0,199.345,31.973,199.345,31.973V801.465z"/>
		</g>
		<path fill="#F7F7F7" d="M897.677,585.824c-12.002-33.005-60.008-33.005-81.011-3c-15.002-21.003-39.005,0-54.008,9.001
			c-3,0-9.001,3-12.002-3c-27.004-42.006-39.005-84.012-69.01-123.017c-18.003-21.003-57.008-18.003-60.008,6.001
			c-3,60.008,42.006,114.016,51.007,174.024c-48.007,12.002-30.004,78.011-15.002,111.015c9.228,27.684,25.564,53.587,44.891,77.723
			c48.242-5.835,99.253-10.451,145.71-9.619c20.185,0.361,39.617,1.396,57.943,2.839
			C925.528,748.374,927.159,665.599,897.677,585.824z"/>
		<path fill="#EAEAEA" d="M607.303,197.176c-11.074,1.306-17.285,2.162-17.285,2.162v650.164c5.605-0.712,11.381-1.371,17.285-1.988
			V197.176z"/>
		<path fill="#F7F7F7" d="M572.732,197.176c11.074,1.306,17.285,2.162,17.285,2.162v650.164c-5.605-0.712-11.381-1.371-17.285-1.988
			V197.176z"/>
	</g>
	<g>
		<path fill="#FFBFAC" d="M227.979,855.511c-20.302-7.597-34.74-26.945-35.229-49.661l-1.454-20.762l47.392-55.582
			c40.511-40.255,11.057-65.861,11.057-65.861c-23.934-29.282-49.716,3.66-49.716,3.66c-14.732,14.633-55.231,60.372-55.231,60.372
			c-25.775,20.134-25.789,49.393-25.789,49.393v59.242c0,40.255,9.207,53.064,9.207,53.064c23.937,27.436,9.214,47.569,9.214,47.569
			l137.549,84.767c0-17.61,24.163-40.023,24.163-40.023c6.563-1.859,36.629-32.253,60.62-57.342
			c-10.966-10.501-23.626-18.907-37.854-24.177C291.409,888.237,253.06,877.127,227.979,855.511z"/>
		<path fill="#FFD8CF" d="M248.571,662.305c-23.595-26.832-48.542,5-48.542,5c-4.281,4.252-10.74,11.135-17.746,18.754
			C208.089,693.642,232.801,682.357,248.571,662.305z"/>
		<path fill="#FFA990" d="M140.562,930.059c-1.319,4.404-3.131,6.886-3.131,6.886l137.549,84.767c0-5.206,2.124-10.818,5.099-16.154
			C232.199,982.029,184.803,958.641,140.562,930.059z"/>
		<path fill="#FFA990" d="M321.908,900.171c-30.499-11.935-68.848-23.044-93.929-44.66c-20.303-7.597-34.741-26.945-35.229-49.661
			l-1.454-20.762l47.391-55.582c25.437-25.276,23.288-44.771,18.168-55.784c-0.132,1.834-0.499,3.575-1.269,5.115
			c-27.004,42.006-66.009,69.01-84.012,117.016c-12.002,36.005,21.003,57.008,45.006,75.01
			c44.071,33.053,91.94,49.01,141.276,55.471c0.634-0.661,1.279-1.332,1.905-1.987C348.796,913.847,336.137,905.441,321.908,900.171
			z"/>
		<path fill="#FFA990" d="M365.42,871c-38.364-7.718-85.508-9.944-121.705-12.143c-5.517-0.335-10.798-1.497-15.736-3.346
			c25.081,21.616,61.904,35.549,92.404,47.483c14.229,5.27,28.27,14.659,39.38,21.353C376.995,906.328,402.099,871,402.099,871
			H365.42z"/>
		<polygon fill="#30B69D" points="272.761,1053.348 290.369,1023.144 130.014,930.478 50,1053.348 		"/>
		<polygon fill="#41D6B9" points="272.761,1053.348 290.369,1023.144 130.014,930.478 276.049,1027.891 		"/>
		<g>
			<path fill="#FFBFAC" d="M851.127,896.911c0,0-14.901-32.283-37.248-27.314c0,0-57.093,11.173-80.702-48.417L677.31,693.289
				c0,0-32.281-50.898,31.045-29.787c0,0,29.887,30.079,39.812,57.393c0,0-12.51-31.333-33.612-78.508l-68.289-140.294
				c0,0-16.13-33.526,9.946-45.94c0,0,21.099-16.146,42.201,23.595L758,598.928c0,0,24.83-42.205,57.119-13.649
				c0,0,21.091-39.729,55.859-7.454c0,0,27.332-35.994,50.917,0L986.45,713.15c0,0,12.407,37.248,2.477,68.285
				c0,0,9.942,26.076,22.355,40.971L851.127,896.911z"/>
			<path fill="#FFBFAC" d="M746.059,715.696c1.382,3.384,2.107,5.2,2.107,5.2C747.54,719.171,746.833,717.435,746.059,715.696z"/>
			<path fill="#FFD8CF" d="M682.042,658.412c-26.073,1.225-4.732,34.877-4.732,34.877l10.545,24.141
				C698.021,699.198,694.8,674.387,682.042,658.412z"/>
			<path fill="#FFD8CF" d="M663.644,498.812c12.002,6.001,24.003-6.001,27.004-15.002c1.395-6.973,0.178-13.293-2.408-19.27
				c-17.216-19.7-32.03-8.385-32.03-8.385c-7.892,3.757-11.902,9.452-13.679,15.562
				C647.705,482.357,653.551,493.765,663.644,498.812z"/>
			<path fill="#FFBFAC" d="M746.059,715.696c0.774,1.739,1.481,3.475,2.107,5.2C748.166,720.896,747.44,719.08,746.059,715.696z"/>
			<path fill="#FFA990" d="M696.649,666.835c21.003,30.004,33.005,60.008,66.009,75.01
				c-30.004-84.012-72.01-162.023-108.015-243.034c-5.348-8.913-9.596-17.827-12.196-26.74c-3.864,13.997,3.818,30.022,3.818,30.022
				l68.289,140.294c16.047,35.873,27.118,62.568,31.505,73.308c1.382,3.384,2.107,5.2,2.107,5.2c-0.626-1.725-1.334-3.461-2.107-5.2
				c-11.474-25.794-37.704-52.193-37.704-52.193c-8.154-2.718-14.689-4.218-19.944-4.81
				C691.492,660.735,694.304,663.318,696.649,666.835z"/>
			<path fill="#FFA990" d="M988.926,781.435c9.93-31.037-2.476-68.285-2.476-68.285l-64.555-135.325
				c-23.585-35.994-50.917,0-50.917,0c-34.768-32.275-55.859,7.454-55.859,7.454c-27.363-24.2-49.362,2.41-55.44,11.095
				c0.074,2.484,0.495,4.968,2.979,7.452c18.003-21.003,45.006-12.002,66.009-3c9.001-30.004,39.005-15.002,57.008-6.001
				c-3-6.001,5.588-14.683,15.498-15.545c28.532-3.053,71.514,162.565,47.511,231.575c-7.346,23.506-22.612,42.689-40.851,59.677
				l103.449-48.125C998.868,807.511,988.926,781.435,988.926,781.435z"/>
			<polygon fill="#30B69D" points="1150,1053.348 1021.572,816.964 837.861,900.893 905.395,1053.348 			"/>
			<polygon fill="#41D6B9" points="867.757,913.098 1021.572,816.964 837.861,900.893 905.395,1053.348 			"/>
		</g>
	</g>
</g>
</svg>
