<?xml version="1.0" encoding="utf-8"?>
<!-- Generator: Adobe Illustrator 23.0.3, SVG Export Plug-In . SVG Version: 6.00 Build 0)  -->
<svg version="1.1" id="Capa_1" xmlns="http://www.w3.org/2000/svg" xmlns:xlink="http://www.w3.org/1999/xlink" x="0px" y="0px"
	 viewBox="0 0 1200 1200" enable-background="new 0 0 1200 1200" xml:space="preserve">
<g>
	<path fill="#EDC98D" d="M152.804,780.108c-0.23-27.19,4.993-53.245,16.512-77.832c15.027-32.074,37.775-56.623,70.899-70.654
		c11.49-4.867,23.454-7.637,35.867-8.924c6.142-0.637,11.812,0.203,17.354,2.643c27.696,12.192,47.554,31.667,56.591,61.118
		c2.031,6.621,3.915,13.291,5.688,19.986c8.101,30.601,23.519,56.436,48.741,76.124c5.831,4.552,11.173,9.796,16.36,15.093
		c14.809,15.126,22.55,33.574,24.154,54.508c1.097,14.318,1.489,28.697-1.917,42.853c-8.525,35.429-28.728,61.269-62.118,76.7
		c-33.248,15.365-66.958,15.896-101.136,4.008c-28.743-9.997-52.637-27.336-72.479-50.132
		C171.062,883.945,153.211,835.247,152.804,780.108z M360.725,853.381c1.171-1.234,2.137-2.348,3.206-3.351
		c1.08-1.014,2.319-1.86,3.393-2.88c14.598-13.876,20.773-30.992,19.175-50.915c-1.662-20.719-11.191-37.691-25.738-52.051
		c-10.703-10.565-23.718-15.833-38.765-16.021c-3.433-0.043-6.867-0.006-10.632-0.006c-2.872-5.444-5.387-10.781-8.415-15.81
		c-3.889-6.459-10.068-6.484-13.87,0.093c-2.191,3.791-3.716,8.086-4.872,12.336c-4.652,17.091-3.856,34.234-0.203,51.422
		c6.889,32.412,21.915,60.294,46.302,82.818c5.396,4.984,11.656,9.206,18.018,12.923c6.086,3.556,12.365-0.028,12.881-6.904
		C361.495,861.161,360.912,857.222,360.725,853.381z M244.346,704.185c-1.324-5.2-1.906-10.743-4.124-15.528
		c-4.741-10.229-19.138-13.595-27.747-6.42c-10.723,8.937-16.699,20.722-17.027,34.791c-0.242,10.374,5.819,18.728,14.742,21.786
		c9.522,3.263,19.568-0.242,25.958-9.258C241.472,722.045,243.631,713.537,244.346,704.185z M245.627,799.023
		c-0.047-8.654-2.769-16.787-7.374-22.018c-8.044-9.137-22.652-7.918-28.866,2.503c-5.815,9.751-7.414,20.327-5.496,31.434
		c1.048,6.073,4.135,11.079,8.916,14.946c9.299,7.523,20.287,5.825,26.717-4.283C243.873,814.766,245.683,807.115,245.627,799.023z
		 M281.674,880.948c0.246-12.182-2.17-20.574-8.458-27.502c-6.179-6.808-13.027-7.916-21.439-4.211
		c-3.85,1.695-6.644,4.286-8.241,8.05c-5.129,12.086-4.751,24.091,1.32,35.718c3.701,7.087,9.547,11.26,17.884,10.891
		c7.785-0.344,12.902-4.827,15.75-11.62C280.36,887.814,281.147,882.899,281.674,880.948z M346.631,922.727
		c-1.102-11.335-5.692-21.9-16.565-28.777c-8.143-5.151-16.836-3.036-21.827,4.835c-7.856,12.39-3.269,33.309,9.05,41.04
		c6.343,3.98,13.177,4.534,19.76,1.187C343.835,937.561,346.442,931.238,346.631,922.727z M413.629,904.283
		c-1.17-11.299-5.382-21.581-15.347-28.546c-8.834-6.174-20.276-2.196-22.09,7.893c-2.313,12.866,0.975,24.476,10.784,33.562
		c5.06,4.688,11.284,6.221,17.791,3.349C411.471,917.582,413.277,911.483,413.629,904.283z"/>
	<path fill="#8C9CC7" d="M909.98,170.714c-21.283,1.03-42.238,5.277-62.955,11.715c-3.12,0.969-5.908,3.008-10.026,5.168
		c5.059,3.657,9.035,6.464,12.94,9.367c7.943,5.907,15.996,11.684,23.715,17.875c4.518,3.625,5.101,7.579,2.373,10.044
		c-2.538,2.292-5.06,2.214-9.369-0.748c-8.158-5.608-16.085-11.565-24.347-17.014c-24.11-15.9-49.375-29.274-75.562-40.527
		c-75.121,46.565-141.516,103.958-199.142,178.872c-15.186,7.593-45.558-7.593-37.965-22.779
		c5.936-65.29,16.637-135.156,53.614-191.591c-4.427,0.417-8.857,0.885-13.293,1.506c-6.372,0.891-12.722,1.94-19.104,2.753
		c-2.429,0.31-5.159,0.819-7.308,0.03c-2.009-0.738-4.468-2.882-4.816-4.762c-0.336-1.8,1.282-5.079,2.938-5.901
		c3.447-1.711,7.435-2.56,11.295-3.16c6.673-1.035,13.386-1.736,19.825-3.996c-0.574-1.675-0.612-2.886-1.235-3.444
		c-10.462-9.364-21.523-17.777-33.204-25.175c-28.981,23.228-64.558,32.593-109.604,15.63c-7.246,16.382-13.488,33.151-18.083,50.52
		c-1.743,6.587-3.598,13.248-3.516,21.597c4.365-2.47,7.725-4.257,10.971-6.23c9.761-5.93,19.727-11.397,30.917-14.193
		c1.908-0.476,3.899-1.197,5.786-1.033c2.554,0.222,4.929,1.717,5.021,4.52c0.057,1.731-0.749,4.054-2.007,5.129
		c-1.804,1.54-4.308,2.364-6.624,3.181c-28.413,10.017-49.133,28.872-63.813,54.909c-8.567,15.193-14.791,31.309-19.838,47.913
		c-9.128,30.027-21.928,58.452-38.757,84.849c-9.698,15.213-17.17,31.277-22.3,48.329c-3.539,11.765-5.93,24.057-7.213,36.284
		c-2.946,28.068,5.126,53.918,18.278,78.356c14.52,26.98,34.322,49.594,58.047,68.827c25.54,20.704,53.634,37.245,83.545,50.772
		c45.445,20.552,93.215,32.961,142.359,40.501c1.733,0.266,3.605-0.368,6.225-0.679c-5.036-18.389-9.84-35.931-15.05-54.96
		c-7.184,3.045-12.583,5.447-18.069,7.63c-7.81,3.108-15.583,6.367-23.572,8.944c-4.144,1.337-8.744,2.002-13.089,1.817
		c-8.93-0.38-14.19-7.532-12.721-16.384c0.932-5.618,3.816-10.358,7.979-13.916c6.751-5.77,13.716-11.381,21.089-16.312
		c9.87-6.6,20.144-12.61,30.384-18.636c6.584-3.876,11.384-8.62,14.325-16.151c10.69-27.374,39.53-38.581,64.261-33.522
		c7.445,1.523,13.284,0.496,19.741-2.67c22.219-10.895,44.557-21.555,66.974-32.037c9.374-4.383,19.062-8.095,28.275-11.973
		c9.485-22.78,27.283-33.703,50.084-37.909c4.382-0.808,8.768-1.712,13.193-2.13c14.928-1.412,29.265-4.878,42.759-11.551
		c1.773-0.876,3.607-1.664,5.477-2.303c8.91-3.043,14.674,1.642,13.436,11.166c-0.439,3.383-1.474,6.781-2.794,9.94
		c-5.773,13.808-13.505,26.463-23.479,37.636c-15.17,16.993-33.542,27.575-56.975,27.639c-1.98,0.005-3.96,0.216-5.938,0.2
		c-3.665-0.03-6.427,1.62-9.334,3.799c-8.3,6.223-16.587,12.581-25.485,17.865c-20.856,12.382-42.082,24.139-63.113,36.228
		c-3.313,1.905-6.386,4.225-9.241,6.133c4.894,27.067,21.198,92.773,25.749,103.486c4.069-0.206,8.496-0.084,12.814-0.71
		c16.193-2.348,32.168-5.779,47.606-11.281c45.503-16.216,84.074-42.139,111.57-82.467c29.681-43.533,45.44-92.083,48.809-144.576
		c2.651-41.317-2.141-82.056-10.714-122.432c-1.232-5.8-2.548-11.603-3.328-17.471c-0.412-3.084,1.156-5.794,4.325-7.017
		c2.442-0.942,6.145,0.738,7.117,3.858c2.052,6.59,3.682,13.315,5.342,20.021c1.027,4.151,0.866,8.715,4.873,12.493
		c5.003-8.951,8.053-18.338,11.498-27.535c4.497-12.007,8.618-24.252,9.5-37.06C948.456,240.487,920.122,206.914,909.98,170.714z
		 M407.803,392.696c-6.645,5.712-14.948,2.756-17.021-5.737c-0.79-3.233-0.984-6.834-0.481-10.119
		c1.603-10.452,6.472-19.5,13.38-27.382c4.436-5.062,8.153-5.919,12.939-3.942c5.591,2.309,8.583,6.311,8.288,15.353
		C423.034,371.413,418.323,383.653,407.803,392.696z M549.994,509.058c-11.439,12.646-32.001,15.651-46.014,6.063
		c-4.754-3.253-8.568-8.044-12.311-12.548c-2.145-2.58-3.285-5.995-5.19-9.635c-3.423,0.68-6.685,1.438-9.982,1.967
		c-18.042,2.892-36.711-7.103-42.223-22.782c-0.952-2.71-1.574-5.907-1.058-8.637c0.365-1.939,2.62-4.105,4.564-4.954
		c1.253-0.547,4.167,0.593,5.105,1.877c1.995,2.731,3.15,6.068,4.716,9.122c3.68,7.175,9.94,10.645,17.544,12.29
		c6.569,1.421,12.694,1.422,18.226-4.913c-2.078-3.643-4.29-7.298-6.283-11.069c-2.893-5.47-3.672-11.227-1.723-17.204
		c1.142-3.504,4.429-5.844,8.041-4.838c9.025,2.515,18.101,5.02,26.823,8.395c6.966,2.696,8.981,9.552,5.126,15.868
		c-2.015,3.302-4.931,6.151-7.812,8.801c-2.497,2.295-5.517,4.019-8.298,5.99c-0.665,10.509,4.361,17.233,12.622,22.01
		c7.596,4.392,15.195,3.454,22.6-0.553c3.027-1.638,5.795-3.763,8.844-5.351c2.723-1.418,6.773-0.386,7.946,1.912
		C552.754,503.803,552.181,506.638,549.994,509.058z M676.366,457.118c-1.249,1.456-2.936,2.624-4.603,3.617
		c-4.651,2.773-10.172,1.668-12.779-3.095c-1.585-2.897-2.797-6.468-2.739-9.71c0.22-12.27,4.926-22.989,13.034-32.101
		c3.836-4.312,8.287-4.877,13.385-2.518c5.209,2.41,7.476,6.029,7.262,12.737C688.232,436.863,684.303,447.861,676.366,457.118z
		 M774.981,880.345c-33.199,32.436-72.278,57.03-123.852,64.965c-66.744,6.068-147.999,7.233-197.339-39.019
		c7.38-24.326,7.231-50.155,0.23-77.277c-3.14-12.163-9.563-22.751-16.627-33.261c8.197-46.203,17.497-92.171,28.612-138.861
		c17.151,4.457,32.175,11.999,48.237,16.205c16.278,4.263,32.538,8.665,48.971,12.244c16.359,3.563,32.925,6.179,49.472,9.223
		c1.799,5.411,3.249,10.113,4.919,14.735c8.409,23.277,16.763,46.574,25.417,69.761c1.708,4.577,4.392,8.862,7.088,12.979
		c2.4,3.663,6.213,4.421,8.91,2.449c2.827-2.068,3.391-5.168,1.676-9.316c-5.1-12.339-10.378-24.608-15.272-37.028
		c-11.718-29.742-20.907-60.294-29.567-91.009c11.212,5.397,24.144,7.236,35.274,7.236c22.395-3.732,41.096-14.831,55.25-30.537
		c0.996,4.132,2.059,8.248,3.049,12.381c3.229,13.479,5.949,27.081,9.281,40.534c4.295,17.342,9.753,34.319,18.613,49.954
		c2.159,3.809,5.034,7.312,8.098,10.45c0.945,0.968,3.855,0.844,5.428,0.183c2.491-1.048,3.431-3.641,2.538-6.213
		c-0.799-2.305-2.427-4.31-3.402-6.57c-4.308-9.982-8.676-19.943-12.654-30.057c-1.213-3.083-1.248-6.63-2.015-11.084
		c10.783-1.486,20.859-2.874,31.684-4.366c0.64,3.672,1.516,6.443,1.54,9.221c0.13,14.862,0.098,29.726,0.024,44.589
		c-0.205,41.648,2.113,83.187,5.419,124.68C774.322,871.804,774.651,876.075,774.981,880.345z M453.907,650.358
		c-9.634,44.575-18.882,87.363-28.377,131.297c-26.999-18.138-46.274-40.684-54.794-72.468c3.665-2.721,6.953-5.696,10.707-7.864
		c22.618-13.058,41.366-30.445,57.557-50.764c0.916-1.149,2.019-2.148,3.733-3.951C445.965,647.693,449.505,648.881,453.907,650.358
		z"/>
	<path fill="#ABD1CD" d="M794.765,506.578c-6.028,7.667-14.515,11.571-23.037,16.608c-5.941-5.626-7.895-12.816-11.513-19.521
		c6.427-6.565,15.029-7.289,22.618-10.487C788.863,496.069,791.981,500.936,794.765,506.578z"/>
	<path fill="#C55C73" d="M803.139,492.926c-4.668-4.881-7.676-8.027-11.262-11.778c1.631-3.066,2.666-6.432,4.808-8.795
		c10.393-11.465,23.62-16.734,40.707-17.73C827.415,469.687,814.133,479.25,803.139,492.926z M841.934,470.064
		c-4.356,4.705-8.823,9.318-12.965,14.205c-3.636,4.29-8.982,7.447-10.319,13.832c5.534,1.312,10.295,1.324,15.887-2.068
		c5.799-10.227,12.147-21.343,18.385-32.521c0.864-1.549,1.185-3.4,2.618-7.685C848.744,460.945,845.761,465.93,841.934,470.064z
		 M870.835,452.198c-3.82,9.076-7.533,18.196-11.239,27.319c-0.106,0.261,0.389,0.767,0.604,1.158
		c10.654-6.962,19.215-18.761,26.519-37.166C879.148,444.562,873.491,445.886,870.835,452.198z M240.222,688.657
		c-4.741-10.229-19.138-13.595-27.747-6.42c-10.723,8.937-16.699,20.722-17.027,34.791c-0.242,10.374,5.819,18.728,14.742,21.786
		c9.522,3.263,19.568-0.242,25.958-9.258c5.323-7.511,7.482-16.019,8.198-25.37C243.023,698.986,242.441,693.442,240.222,688.657z"
		/>
	<path fill="#79B973" d="M245.627,799.023c0.056,8.092-1.754,15.743-6.104,22.582c-6.429,10.108-17.418,11.806-26.717,4.283
		c-4.78-3.867-7.867-8.873-8.916-14.946c-1.918-11.107-0.319-21.682,5.496-31.434c6.214-10.421,20.822-11.64,28.866-2.503
		C242.857,782.235,245.58,790.369,245.627,799.023z"/>
	<path fill="#E2AE43" d="M281.674,880.948c-0.527,1.951-1.314,6.866-3.184,11.327c-2.848,6.793-7.965,11.276-15.75,11.62
		c-8.337,0.369-14.183-3.804-17.884-10.891c-6.071-11.627-6.45-23.632-1.32-35.718c1.597-3.764,4.391-6.355,8.241-8.05
		c8.412-3.704,15.26-2.596,21.439,4.211C279.503,860.374,281.92,868.766,281.674,880.948z"/>
	<path fill="#6388BB" d="M346.631,922.727c-0.188,8.511-2.796,14.834-9.582,18.285c-6.582,3.347-13.417,2.794-19.76-1.187
		c-12.319-7.731-16.906-28.65-9.05-41.04c4.99-7.871,13.684-9.986,21.827-4.835C340.938,900.827,345.529,911.392,346.631,922.727z"
		/>
	<path fill="#B38B6B" d="M701.285,561.593c-4.87-7.696-9.823-15.525-15.35-24.261c5.375-5.202,12.733-6.818,19.051-10.094
		c6.997-3.628,14.236-6.795,21.408-10.076c6.68-3.056,13.413-5.999,20.654-9.229c6.031,6.591,8.782,14.275,11.458,21.877
		C747.12,538.918,713.157,557.795,701.285,561.593z M557.694,623.562c5.98-2.254,11.837-4.872,17.615-7.613
		c5.245-2.489,11.273-3.56,16.084-8.458c0-5.097,0.061-10.473-0.069-15.845c-0.019-0.763-0.964-1.503-1.482-2.252
		c-13.108,5.375-39.917,23.053-47.508,31.43c-0.965,1.065-1.783,2.392-2.233,3.743c-0.231,0.692,0.5,1.706,0.921,2.941
		C547.048,628.564,552.32,625.587,557.694,623.562z M398.283,875.737c-8.834-6.174-20.276-2.196-22.09,7.893
		c-2.313,12.866,0.975,24.476,10.784,33.562c5.06,4.688,11.284,6.221,17.791,3.349c6.703-2.959,8.509-9.058,8.862-16.258
		C412.459,892.983,408.248,882.702,398.283,875.737z"/>
	<path fill="#717BAF" d="M529.642,322.689c5.936-65.29,16.637-135.156,53.614-191.591c36.783-3.464,73.208-0.008,108.92,9.649
		c25.567,6.914,50.459,15.485,74.572,25.848c-75.121,46.565-141.516,103.958-199.142,178.872
		C552.421,353.06,522.049,337.874,529.642,322.689z M982.025,265.985c0.006-0.079,0.025-0.156,0.03-0.235
		c1.102-16.778,1.157-33.629,1.49-50.452c0.069-3.441-0.415-6.933-1.002-10.341c-3.46-20.12-10.074-27.003-30.07-31.506
		c-1.93-0.435-3.863-0.894-5.819-1.167c-12.344-1.723-24.56-2.155-36.673-1.57C920.122,206.914,948.456,240.487,982.025,265.985z
		 M538.353,88.949c-12.861-8.144-26.48-15.049-40.982-20.471c-6.418-2.4-13.36-3.623-20.17-4.708
		c-15.247-2.429-27.194,3.063-35.54,16.079c-2.668,4.162-5.362,8.36-7.486,12.808c-1.883,3.944-3.661,7.93-5.426,11.921
		C473.796,121.542,509.373,112.177,538.353,88.949z M706.379,633.834c-3.877-16.08-7.746-32.162-11.864-48.181
		c-2.969-11.546-7.239-22.601-14.088-32.552c-5.697-8.277-13.386-12.958-23.296-14.242c-18.397-2.383-37.353,7.775-45.293,24.569
		c-3.847,8.138-5.803,16.814-6.397,25.807c-1.055,15.958,0.328,31.695,4.591,47.105c1.92,6.938,3.87,13.867,5.823,20.795
		c11.212,5.397,24.144,7.236,35.274,7.236C673.524,660.638,692.224,649.539,706.379,633.834z M799.743,1070.75
		c-8.625-40.741-14.488-81.918-18.961-123.277c-2.414-22.324-4.075-44.731-5.8-67.128c-33.199,32.436-72.278,57.03-123.852,64.965
		c-66.744,6.068-147.999,7.233-197.339-39.019c-4.721,15.566-12.501,30.522-23.624,44.79c-5.384,6.907-9.049,13.768-9.551,22.668
		c-0.893,15.812-2.534,31.58-3.798,47.372c-1.388,17.357-0.706,34.696,1.66,51.895c1.071,7.779,3.097,15.582,5.849,22.939
		c5.177,13.832,15.419,22.764,29.502,27.192c12.481,3.924,25.307,4.45,38.24,3.568c19.437-1.325,32.638-11.325,38.444-29.739
		c3.248-10.306,5.085-21.162,6.533-31.908c2.579-19.134,4.401-38.37,6.48-57.57c0.302-2.789,0.28-5.612,0.409-8.456
		c-4.614-1.324-8.425-2.373-12.206-3.529c-1.405-0.43-3.242-0.737-3.986-1.755c-1.358-1.857-2.779-4.184-2.833-6.348
		c-0.069-2.733,2.517-4.363,5.102-4.325c3.926,0.057,7.888,0.537,11.756,1.256c10.694,1.989,21.296,4.531,32.031,6.254
		c36.977,5.938,73.889,7.566,110.487-2.744c1.405-0.396,3.112-0.963,4.325-0.507c1.702,0.641,3.768,1.883,4.382,3.394
		c0.578,1.427,0.089,4.2-1.008,5.203c-2.104,1.924-4.855,3.304-7.548,4.381c-4.021,1.607-8.223,2.757-13.361,4.43
		c3.226,19.063,5.905,36.179,9.067,53.205c2.982,16.057,6.187,32.068,11.998,47.454c5.745,15.208,16.969,24.623,32.055,28.426
		c24.801,6.253,48.124,1.22,69.563-12.559c8.834-5.678,12.42-13.863,10.701-24.224
		C803.001,1088.268,801.586,1079.461,799.743,1070.75z M799.873,944.818c3.817-0.999,7.63-2.108,11.308-3.527
		c32.531-12.549,59.948-32.429,82.688-58.692c9.387-10.842,17.821-22.503,26.971-33.558c8.513-10.285,17.057-20.583,26.202-30.296
		c14.839-15.759,32.736-27.029,53.243-34.099c6.078-2.095,12.234-4.042,18.118-6.601c5.876-2.555,11.571-5.591,17.136-8.781
		c6.919-3.968,10.297-10.411,11.615-18.109c2.869-16.748-7.507-36.713-23.184-42.366c-6.304-2.273-13.572-2.831-20.357-2.634
		c-19.197,0.557-36.888,6.661-53.246,16.616c-17.91,10.9-33.592,24.471-47.226,40.35c-9.348,10.889-18.11,22.286-27.55,33.092
		c-13.02,14.904-26.138,29.746-39.769,44.087c-11.358,11.95-24.75,21.251-40.468,26.871c-2.656,0.95-5.151,2.351-8.178,3.756
		c2.092,24.618,4.139,48.693,6.26,73.655C797.007,944.75,798.54,945.167,799.873,944.818z M370.085,820.265
		c4.233-9.828,4.701-20.184,2.228-30.598c-3.415-14.386-10.692-26.581-21.491-36.604c-15.13-14.043-37.081-16.253-57.324-5.246
		c2.284,36.279,14.28,68.769,40.202,96.138C353.462,846.07,363.52,835.506,370.085,820.265z"/>
	<linearGradient id="SVGID_1_" gradientUnits="userSpaceOnUse" x1="336.2012" y1="-79.4539" x2="880.9334" y2="1311.7686">
		<stop  offset="0.1724" style="stop-color:#F8EF9D"/>
		<stop  offset="0.2686" style="stop-color:#F2EAA2"/>
		<stop  offset="0.4092" style="stop-color:#E0DBAE"/>
		<stop  offset="0.5771" style="stop-color:#C2C1BC"/>
		<stop  offset="0.7647" style="stop-color:#9AA2C6"/>
		<stop  offset="0.7832" style="stop-color:#969FC6"/>
	</linearGradient>
	<path opacity="0.61" fill="url(#SVGID_1_)" d="M372.313,789.666c2.473,10.415,2.006,20.771-2.228,30.598
		c-6.564,15.242-16.623,25.805-36.384,23.69c-25.922-27.37-37.918-59.859-40.202-96.138c20.243-11.007,42.194-8.797,57.324,5.246
		C361.62,763.086,368.898,775.281,372.313,789.666z M542.334,620.823c-0.965,1.065-1.782,2.392-2.233,3.743
		c-0.231,0.692,0.5,1.705,0.921,2.94c6.026,1.057,11.298-1.92,16.672-3.945c5.98-2.254,11.838-4.872,17.614-7.613
		c5.246-2.489,11.274-3.56,16.085-8.458c0-5.097,0.061-10.473-0.069-15.845c-0.019-0.763-0.965-1.503-1.483-2.252
		C576.734,594.767,549.925,612.446,542.334,620.823z M381.442,701.323c-3.754,2.168-7.042,5.142-10.707,7.864
		c8.521,31.784,27.795,54.33,54.795,72.468c9.495-43.934,18.743-86.722,28.377-131.297c-4.403-1.477-7.941-2.665-11.174-3.75
		c-1.715,1.804-2.818,2.802-3.733,3.951C422.809,670.878,404.061,688.265,381.442,701.323z M1023.971,708.788
		c-6.304-2.273-13.571-2.831-20.356-2.634c-19.197,0.558-36.889,6.661-53.247,16.617c-17.909,10.9-33.592,24.471-47.225,40.35
		c-9.348,10.889-18.11,22.286-27.549,33.092c-13.021,14.904-26.139,29.746-39.77,44.087c-11.358,11.95-24.749,21.251-40.467,26.871
		c-2.656,0.95-5.151,2.352-8.177,3.756c2.091,24.618,4.138,48.693,6.26,73.655c3.568,0.167,5.102,0.584,6.433,0.235
		c3.818-0.999,7.63-2.108,11.309-3.527c32.53-12.549,59.947-32.429,82.688-58.692c9.387-10.841,17.82-22.503,26.97-33.558
		c8.512-10.285,17.057-20.583,26.203-30.296c14.839-15.759,32.736-27.029,53.243-34.1c6.078-2.095,12.235-4.043,18.119-6.601
		c5.876-2.555,11.571-5.59,17.136-8.781c6.919-3.968,10.297-10.412,11.615-18.109
		C1050.023,734.407,1039.648,714.441,1023.971,708.788z M799.743,1070.75c-8.625-40.741-14.488-81.918-18.961-123.277
		c-2.414-22.324-4.075-44.731-5.8-67.128c-0.33-4.27-0.659-8.541-0.999-12.809c-3.305-41.492-5.623-83.032-5.419-124.68
		c0.074-14.863,0.106-29.727-0.024-44.589c-0.024-2.778-0.901-5.548-1.54-9.221c-10.825,1.492-20.901,2.88-31.684,4.366
		c0.767,4.453,0.802,8,2.015,11.084c3.978,10.114,8.346,20.075,12.654,30.057c0.975,2.261,2.603,4.265,3.402,6.57
		c0.893,2.572-0.047,5.165-2.538,6.213c-1.573,0.662-4.482,0.786-5.428-0.183c-3.064-3.137-5.939-6.64-8.098-10.45
		c-8.86-15.635-14.318-32.612-18.613-49.954c-3.332-13.452-6.052-27.055-9.281-40.534c-0.99-4.133-2.052-8.249-3.049-12.381
		c-3.877-16.08-7.746-32.162-11.864-48.181c-2.969-11.546-7.239-22.601-14.088-32.552c-5.697-8.277-13.386-12.958-23.296-14.242
		c-18.397-2.383-37.353,7.775-45.293,24.569c-3.847,8.138-5.803,16.814-6.397,25.807c-1.055,15.958,0.328,31.695,4.591,47.105
		c1.92,6.938,3.87,13.867,5.823,20.795c8.66,30.716,17.849,61.267,29.567,91.009c4.894,12.421,10.172,24.689,15.272,37.028
		c1.715,4.148,1.151,7.248-1.676,9.316c-2.697,1.972-6.51,1.214-8.91-2.449c-2.696-4.117-5.38-8.401-7.088-12.979
		c-8.653-23.186-17.008-46.484-25.417-69.761c-1.67-4.622-3.12-9.324-4.919-14.735c-16.547-3.044-33.112-5.66-49.472-9.223
		c-16.433-3.579-32.694-7.981-48.971-12.244c-16.062-4.206-31.086-11.749-48.237-16.205c-11.114,46.69-20.414,92.658-28.612,138.861
		c7.065,10.51,13.487,21.098,16.627,33.261c7.001,27.122,7.15,52.951-0.23,77.277c-4.721,15.566-12.501,30.522-23.624,44.79
		c-5.384,6.907-9.049,13.768-9.551,22.668c-0.893,15.812-2.534,31.58-3.798,47.372c-1.388,17.357-0.706,34.696,1.66,51.895
		c1.071,7.779,3.097,15.582,5.849,22.939c5.177,13.832,15.419,22.764,29.502,27.192c12.481,3.924,25.307,4.45,38.24,3.568
		c19.437-1.325,32.638-11.325,38.444-29.739c3.248-10.306,5.085-21.162,6.533-31.908c2.579-19.134,4.401-38.37,6.48-57.57
		c0.302-2.789,0.28-5.612,0.409-8.456c-4.614-1.324-8.425-2.373-12.206-3.529c-1.405-0.43-3.242-0.737-3.986-1.755
		c-1.358-1.857-2.779-4.184-2.833-6.348c-0.069-2.733,2.517-4.363,5.102-4.325c3.926,0.057,7.888,0.537,11.756,1.256
		c10.694,1.989,21.296,4.531,32.031,6.254c36.977,5.938,73.889,7.566,110.487-2.744c1.405-0.396,3.112-0.963,4.325-0.507
		c1.702,0.641,3.768,1.883,4.382,3.394c0.578,1.427,0.089,4.2-1.008,5.203c-2.104,1.924-4.855,3.304-7.548,4.381
		c-4.021,1.607-8.223,2.757-13.361,4.43c3.226,19.063,5.905,36.179,9.067,53.205c2.982,16.057,6.187,32.068,11.998,47.454
		c5.745,15.208,16.969,24.623,32.055,28.426c24.801,6.253,48.124,1.22,69.563-12.559c8.834-5.678,12.42-13.863,10.701-24.224
		C803.001,1088.268,801.586,1079.461,799.743,1070.75z M443.053,895.024c-8.525,35.428-28.728,61.269-62.117,76.699
		c-33.249,15.365-66.958,15.896-101.137,4.009c-28.742-9.997-52.637-27.336-72.48-50.132
		c-36.257-41.656-54.109-90.353-54.516-145.493c-0.23-27.19,4.993-53.246,16.512-77.832c15.026-32.074,37.775-56.623,70.899-70.654
		c11.49-4.867,23.454-7.637,35.867-8.924c6.142-0.637,11.812,0.203,17.355,2.643c27.696,12.192,47.554,31.667,56.591,61.118
		c2.031,6.621,3.915,13.291,5.687,19.986c8.101,30.601,23.518,56.436,48.741,76.125c5.831,4.552,11.173,9.796,16.36,15.093
		c14.809,15.126,22.55,33.574,24.153,54.508C446.068,866.49,446.46,880.868,443.053,895.024z M367.324,847.15
		c14.597-13.876,20.773-30.991,19.175-50.915c-1.663-20.719-11.191-37.691-25.737-52.051
		c-10.704-10.565-23.719-15.833-38.766-16.021c-3.433-0.043-6.868-0.006-10.633-0.006c-2.871-5.444-5.387-10.781-8.415-15.81
		c-3.888-6.459-10.068-6.484-13.87,0.093c-2.191,3.791-3.716,8.086-4.873,12.336c-4.651,17.091-3.856,34.234-0.202,51.422
		c6.889,32.413,21.915,60.294,46.301,82.818c5.396,4.984,11.656,9.206,18.018,12.923c6.086,3.555,12.365-0.028,12.881-6.904
		c0.29-3.874-0.292-7.813-0.479-11.654c1.172-1.235,2.137-2.348,3.207-3.351C365.012,849.016,366.251,848.171,367.324,847.15z
		 M886.718,443.51c-7.571,1.052-13.227,2.376-15.884,8.689c-3.821,9.076-7.534,18.196-11.239,27.319
		c-0.106,0.261,0.389,0.767,0.604,1.159C870.853,473.714,879.415,461.915,886.718,443.51z M317.571,518.71
		c-13.152-24.439-21.224-50.288-18.278-78.356c1.283-12.227,3.674-24.519,7.213-36.284c5.129-17.052,12.602-33.116,22.3-48.329
		c16.829-26.397,29.629-54.822,38.757-84.849c5.047-16.604,11.271-32.72,19.838-47.913c14.681-26.037,35.4-44.892,63.813-54.909
		c2.316-0.817,4.821-1.641,6.624-3.181c1.258-1.075,2.063-3.398,2.007-5.129c-0.092-2.803-2.466-4.298-5.021-4.52
		c-1.886-0.164-3.878,0.556-5.786,1.033c-11.19,2.796-21.156,8.263-30.917,14.193c-3.246,1.973-6.607,3.76-10.971,6.23
		c-0.082-8.349,1.773-15.01,3.516-21.597c4.595-17.368,10.837-34.138,18.083-50.52c1.765-3.991,3.543-7.977,5.426-11.921
		c2.124-4.448,4.818-8.647,7.486-12.808c8.346-13.016,20.293-18.508,35.54-16.079c6.81,1.085,13.752,2.308,20.17,4.708
		c14.502,5.422,28.12,12.327,40.982,20.471c11.681,7.397,22.743,15.811,33.204,25.175c0.623,0.558,0.661,1.768,1.235,3.444
		c-6.439,2.26-13.152,2.961-19.825,3.996c-3.859,0.599-7.848,1.449-11.295,3.16c-1.656,0.822-3.274,4.1-2.938,5.901
		c0.349,1.88,2.807,4.024,4.816,4.762c2.149,0.789,4.879,0.28,7.308-0.03c6.381-0.813,12.732-1.863,19.104-2.753
		c4.436-0.621,8.866-1.089,13.293-1.506c36.783-3.464,73.208-0.008,108.92,9.649c25.567,6.914,50.459,15.485,74.572,25.848
		c26.187,11.253,51.453,24.627,75.562,40.527c8.262,5.449,16.189,11.406,24.347,17.014c4.309,2.962,6.831,3.04,9.369,0.748
		c2.728-2.465,2.145-6.419-2.373-10.044c-7.719-6.192-15.772-11.968-23.715-17.875c-3.905-2.903-7.881-5.711-12.94-9.367
		c4.118-2.16,6.906-4.198,10.026-5.168c20.717-6.439,41.672-10.685,62.955-11.715c12.112-0.586,24.329-0.153,36.673,1.57
		c1.956,0.273,3.889,0.733,5.819,1.167c19.996,4.504,26.61,11.387,30.07,31.506c0.587,3.407,1.071,6.9,1.002,10.341
		c-0.333,16.823-0.387,33.673-1.49,50.452c-0.005,0.079-0.024,0.156-0.03,0.235c-0.881,12.808-5.002,25.053-9.5,37.06
		c-3.445,9.196-6.495,18.584-11.498,27.535c-4.007-3.778-3.846-8.341-4.873-12.493c-1.66-6.706-3.29-13.431-5.342-20.021
		c-0.971-3.12-4.674-4.8-7.117-3.858c-3.169,1.223-4.736,3.933-4.325,7.017c0.78,5.868,2.097,11.67,3.328,17.471
		c8.573,40.375,13.365,81.114,10.714,122.432c-3.369,52.493-19.128,101.043-48.809,144.576
		c-27.497,40.328-66.067,66.251-111.57,82.467c-15.438,5.502-31.413,8.933-47.606,11.281c-4.318,0.626-8.745,0.505-12.814,0.71
		c-4.551-10.714-20.855-76.419-25.749-103.486c2.855-1.908,5.928-4.228,9.241-6.133c21.031-12.09,42.257-23.846,63.113-36.228
		c8.898-5.284,17.185-11.641,25.485-17.865c2.907-2.18,5.669-3.829,9.334-3.799c1.979,0.016,3.959-0.195,5.938-0.2
		c23.433-0.064,41.805-10.647,56.975-27.639c9.974-11.173,17.706-23.829,23.479-37.636c1.32-3.158,2.354-6.557,2.794-9.94
		c1.238-9.524-4.526-14.208-13.436-11.166c-1.87,0.639-3.704,1.426-5.477,2.303c-13.494,6.673-27.831,10.139-42.759,11.551
		c-4.425,0.418-8.811,1.322-13.193,2.13c-22.801,4.206-40.6,15.129-50.084,37.909c-9.213,3.878-18.901,7.59-28.275,11.973
		c-22.417,10.482-44.755,21.142-66.974,32.037c-6.457,3.166-12.296,4.193-19.741,2.67c-24.731-5.06-53.571,6.148-64.261,33.522
		c-2.941,7.531-7.74,12.276-14.325,16.151c-10.24,6.027-20.514,12.036-30.384,18.636c-7.373,4.931-14.338,10.541-21.089,16.312
		c-4.164,3.558-7.048,8.297-7.979,13.916c-1.469,8.852,3.792,16.004,12.721,16.384c4.345,0.185,8.945-0.48,13.089-1.817
		c7.989-2.577,15.762-5.836,23.572-8.944c5.486-2.183,10.885-4.585,18.069-7.63c5.21,19.029,10.014,36.571,15.05,54.96
		c-2.62,0.311-4.492,0.945-6.225,0.679c-49.145-7.54-96.915-19.949-142.359-40.501c-29.91-13.527-58.005-30.068-83.545-50.772
		C351.894,568.304,332.092,545.69,317.571,518.71z M689.926,426.048c0.214-6.708-2.053-10.327-7.262-12.737
		c-5.098-2.359-9.549-1.794-13.385,2.518c-8.107,9.112-12.814,19.832-13.034,32.101c-0.058,3.242,1.154,6.813,2.739,9.71
		c2.607,4.763,8.128,5.868,12.779,3.095c1.667-0.994,3.353-2.161,4.603-3.617C684.303,447.861,688.232,436.863,689.926,426.048z
		 M434.274,472.123c5.512,15.679,24.18,25.674,42.223,22.782c3.298-0.529,6.559-1.286,9.982-1.967
		c1.906,3.639,3.046,7.055,5.19,9.635c3.743,4.504,7.557,9.295,12.311,12.548c14.012,9.588,34.575,6.583,46.014-6.063
		c2.187-2.42,2.76-5.255,1.261-8.19c-1.173-2.298-5.223-3.33-7.946-1.912c-3.049,1.589-5.817,3.713-8.844,5.351
		c-7.405,4.007-15.004,4.945-22.6,0.553c-8.261-4.776-13.287-11.5-12.622-22.01c2.782-1.971,5.801-3.695,8.298-5.99
		c2.881-2.649,5.797-5.498,7.812-8.801c3.856-6.316,1.841-13.172-5.126-15.868c-8.722-3.375-17.798-5.881-26.823-8.395
		c-3.612-1.007-6.899,1.333-8.041,4.838c-1.949,5.977-1.17,11.734,1.723,17.204c1.994,3.771,4.205,7.426,6.283,11.069
		c-5.532,6.335-11.657,6.334-18.226,4.913c-7.604-1.645-13.864-5.114-17.544-12.29c-1.566-3.054-2.721-6.391-4.716-9.122
		c-0.938-1.284-3.852-2.424-5.105-1.877c-1.944,0.849-4.199,3.015-4.564,4.954C432.7,466.215,433.322,469.412,434.274,472.123z
		 M390.782,386.959c2.073,8.493,10.376,11.449,17.021,5.737c10.519-9.043,15.23-21.282,17.105-31.826
		c0.295-9.042-2.697-13.043-8.288-15.353c-4.786-1.977-8.503-1.12-12.939,3.942c-6.908,7.882-11.778,16.93-13.38,27.382
		C389.798,380.125,389.993,383.726,390.782,386.959z M791.876,481.148c3.587,3.751,6.596,6.897,11.263,11.778
		c10.993-13.676,24.275-23.239,34.252-38.303c-17.087,0.996-30.313,6.265-40.706,17.73
		C794.543,474.716,793.508,478.082,791.876,481.148z M747.048,507.933c-7.242,3.23-13.974,6.172-20.654,9.228
		c-7.174,3.281-14.412,6.448-21.409,10.076c-6.318,3.276-13.675,4.892-19.051,10.094c5.528,8.735,10.481,16.564,15.351,24.26
		c11.871-3.798,45.834-22.675,57.221-31.782C755.83,522.208,753.079,514.524,747.048,507.933z M818.651,498.101
		c5.534,1.312,10.295,1.324,15.888-2.068c5.799-10.227,12.146-21.344,18.385-32.521c0.864-1.549,1.185-3.4,2.617-7.685
		c-6.796,5.118-9.779,10.103-13.606,14.237c-4.356,4.704-8.823,9.318-12.965,14.205
		C825.333,488.559,819.986,491.716,818.651,498.101z M782.834,493.177c-7.589,3.198-16.191,3.922-22.618,10.487
		c3.617,6.705,5.57,13.895,11.512,19.521c8.522-5.037,17.01-8.94,23.037-16.608C791.98,500.935,788.863,496.069,782.834,493.177z"/>
	<path fill="#2C367D" d="M795.494,961.006c2.605,18.522,4.712,36.188,7.643,53.716c4.327,25.871,9.282,51.637,13.892,77.462
		c3.115,17.453-2.776,31.44-17.614,40.851c-24.506,15.543-51.172,21.474-79.485,13.282c-9.282-2.686-17.675-8.673-26.188-13.642
		c-2.324-1.356-3.774-4.39-5.34-6.837c-11.737-18.347-16.418-39.115-20.292-60.108c-3.055-16.552-5.767-33.167-8.655-49.75
		c-0.417-2.396-0.967-4.769-1.596-7.845c-3.011-0.318-5.873-1.055-8.665-0.848c-28.822,2.14-57.41,0.397-85.819-4.772
		c-0.943-0.172-1.962,0.07-3.511,0.146c-4.05,5.683-4.141,12.712-4.916,19.454c-2.092,18.2-3.839,36.441-5.943,54.639
		c-1.257,10.872-3.984,21.391-8.689,31.351c-7.689,16.277-19.945,26.512-37.809,30.422c-19.548,4.279-38.574,2.259-56.99-4.358
		c-18.456-6.631-29.974-20.591-35.794-39.11c-4.027-12.814-5.852-26.06-6.298-39.491c-0.789-23.809,0.122-47.538,3.118-71.184
		c0.365-2.886,0.13-5.852,0.082-8.779c-0.005-0.306-0.632-0.601-1.016-0.94c-3.334-0.952-5.445,1.617-7.879,3.019
		c-40.472,23.314-82.508,25.522-125.827,9.229c-32.351-12.168-58.782-32.641-80.3-59.356
		c-35.172-43.667-52.525-93.858-52.222-149.846c0.166-30.596,6.71-60.027,20.997-87.317c19.99-38.179,49.771-64.615,91.765-76.962
		c20.73-6.095,39.627-4.206,58.524,6.273c25.02,13.875,42.439,33.631,51.401,60.828c1.348,4.09,2.965,8.092,4.451,12.118
		c21.305-7.741,52.789-34.009,63.712-53.153c-4.198-2.471-8.398-4.97-12.623-7.426c-22.326-12.978-43.595-27.434-62.679-44.929
		c-21.384-19.604-38.966-42.115-52.122-68.043c-21.465-42.301-23.018-85.513-5.281-129.261
		c5.376-13.261,11.786-26.247,19.071-38.561c17.24-29.14,31.004-59.672,40.897-92.063c7.731-25.313,19.405-48.718,36.925-69.113
		c-1.396-19.23,2.75-37.589,8.888-55.407c5.472-15.886,11.789-31.527,18.634-46.874c3.386-7.591,8.258-14.704,13.421-21.277
		c8.754-11.145,20.58-16.572,34.948-16.542c10.556,0.022,20.653,2.018,30.502,5.623c30.182,11.047,56.643,28.204,80.585,49.394
		c3.657,3.237,6.539,7.35,9.677,10.941c14.411,0.644,28.723,1.102,43.011,1.962c26.816,1.614,52.988,6.688,78.593,14.873
		c35.45,11.332,69.915,24.982,102.691,42.723c2.602,1.408,5.292,2.652,8.365,4.183c22.271-12.628,46.865-17.947,71.968-21.227
		c20.279-2.65,40.541-1.839,60.627,2.135c3.389,0.671,6.706,1.762,10.009,2.806c12.156,3.843,20.826,11.811,24.778,23.763
		c2.927,8.855,5.317,18.214,5.867,27.472c2.357,39.627-2.976,78.031-20.199,114.315c-4.66,9.819-10.294,19.683-12.242,30.13
		c-1.751,9.389,0.805,19.619,1.697,29.457c5.403,59.602-4.665,116.361-30.671,170.34c-29.104,60.408-76.316,100.016-139.054,122.016
		c-5.08,1.781-10.128,3.651-15.701,5.664c0.251,56.408,0.971,112.25,5.77,169.055c3.789-0.763,6.66-0.875,9.137-1.922
		c11.129-4.704,20.546-12.036,28.766-20.691c12.616-13.283,24.977-26.824,37.038-40.613c10.106-11.554,19.512-23.717,29.434-35.435
		c14.169-16.733,30.349-31.222,48.773-43.202c17.339-11.274,36.295-17.999,56.713-20.743c3.425-0.46,6.91-0.558,10.372-0.646
		c37.688-0.957,56.851,31.43,53.406,60.521c-1.217,10.279-5.678,18.989-14.191,25.125c-4.398,3.17-9.08,6.076-13.963,8.412
		c-6.235,2.983-12.635,5.856-19.257,7.758c-29.799,8.559-52.665,26.805-71.71,50.505c-10.549,13.127-20.806,26.49-31.409,39.572
		c-28.817,35.555-64.507,61.133-108.639,74.352C799.658,959.036,798.353,959.766,795.494,961.006z M592.698,623.171
		c-7.185,3.045-12.583,5.447-18.069,7.63c-7.81,3.108-15.584,6.367-23.572,8.944c-4.144,1.337-8.745,2.002-13.09,1.817
		c-8.929-0.381-14.189-7.532-12.721-16.384c0.932-5.618,3.816-10.358,7.979-13.916c6.752-5.77,13.716-11.381,21.089-16.312
		c9.87-6.6,20.144-12.609,30.383-18.636c6.585-3.876,11.385-8.62,14.325-16.151c10.689-27.374,39.53-38.581,64.262-33.522
		c7.445,1.523,13.283,0.496,19.739-2.669c22.22-10.895,44.557-21.555,66.975-32.038c9.374-4.383,19.061-8.095,28.275-11.973
		c9.485-22.78,27.284-33.703,50.085-37.909c4.381-0.808,8.767-1.712,13.193-2.13c14.928-1.412,29.264-4.878,42.759-11.55
		c1.773-0.876,3.606-1.664,5.476-2.303c8.91-3.043,14.674,1.642,13.436,11.165c-0.439,3.383-1.474,6.782-2.794,9.94
		c-5.772,13.808-13.504,26.463-23.478,37.636c-15.17,16.993-33.542,27.575-56.975,27.639c-1.98,0.005-3.96,0.216-5.939,0.2
		c-3.665-0.03-6.427,1.62-9.334,3.8c-8.3,6.223-16.587,12.581-25.485,17.864c-20.855,12.382-42.081,24.139-63.112,36.228
		c-3.313,1.905-6.387,4.225-9.242,6.133c4.894,27.067,21.198,92.773,25.749,103.486c4.069-0.206,8.495-0.084,12.814-0.71
		c16.193-2.348,32.168-5.779,47.606-11.281c45.503-16.216,84.074-42.139,111.57-82.467c29.681-43.533,45.44-92.083,48.809-144.576
		c2.652-41.317-2.14-82.056-10.713-122.432c-1.232-5.8-2.548-11.603-3.329-17.471c-0.41-3.084,1.156-5.794,4.326-7.017
		c2.442-0.942,6.144,0.738,7.116,3.858c2.052,6.59,3.683,13.315,5.342,20.021c1.028,4.152,0.866,8.715,4.873,12.493
		c5.003-8.95,8.053-18.338,11.497-27.534c4.526-12.081,8.682-24.4,9.529-37.295c1.102-16.778,1.157-33.629,1.49-50.451
		c0.068-3.441-0.416-6.933-1.002-10.341c-3.461-20.119-10.074-27.002-30.07-31.506c-1.93-0.435-3.864-0.894-5.82-1.167
		c-34.033-4.749-67.118,0.043-99.628,10.146c-3.12,0.969-5.907,3.008-10.025,5.167c5.059,3.657,9.035,6.464,12.94,9.368
		c7.944,5.907,15.997,11.684,23.715,17.875c4.518,3.625,5.101,7.579,2.373,10.043c-2.537,2.292-5.06,2.214-9.369-0.747
		c-8.159-5.608-16.085-11.565-24.347-17.014c-46.312-30.543-96.806-51.954-150.136-66.375
		c-40.011-10.819-80.912-13.918-122.214-8.143c-6.372,0.891-12.722,1.94-19.103,2.753c-2.43,0.31-5.159,0.819-7.309,0.03
		c-2.01-0.738-4.467-2.882-4.816-4.762c-0.334-1.801,1.282-5.079,2.939-5.901c3.447-1.711,7.435-2.561,11.295-3.16
		c6.672-1.036,13.386-1.737,19.825-3.996c-0.574-1.675-0.612-2.887-1.235-3.444c-21.979-19.674-46.512-35.299-74.185-45.646
		c-6.418-2.4-13.361-3.623-20.17-4.708c-15.247-2.429-27.194,3.063-35.54,16.079c-2.668,4.162-5.362,8.36-7.486,12.809
		c-9.612,20.136-17.795,40.842-23.51,62.44c-1.743,6.587-3.598,13.248-3.516,21.597c4.365-2.47,7.725-4.257,10.972-6.23
		c9.76-5.93,19.726-11.396,30.916-14.192c1.907-0.477,3.899-1.197,5.786-1.033c2.555,0.222,4.929,1.717,5.021,4.52
		c0.057,1.731-0.749,4.054-2.007,5.129c-1.803,1.54-4.308,2.364-6.624,3.181c-28.414,10.017-49.132,28.872-63.813,54.909
		c-8.567,15.193-14.791,31.309-19.839,47.913c-9.127,30.027-21.928,58.452-38.757,84.849c-9.698,15.213-17.17,31.277-22.3,48.328
		c-3.539,11.765-5.931,24.057-7.213,36.284c-2.945,28.068,5.126,53.918,18.279,78.357c14.52,26.98,34.322,49.594,58.047,68.827
		c25.539,20.704,53.634,37.245,83.545,50.771c45.445,20.552,93.215,32.961,142.359,40.501c1.733,0.266,3.605-0.368,6.224-0.679
		C602.712,659.742,597.908,642.2,592.698,623.171z M671.074,1004.753c3.226,19.063,5.905,36.179,9.067,53.205
		c2.981,16.057,6.187,32.069,11.998,47.454c5.745,15.208,16.97,24.623,32.054,28.426c24.801,6.253,48.125,1.22,69.563-12.559
		c8.835-5.678,12.42-13.863,10.701-24.224c-1.458-8.788-2.872-17.594-4.716-26.306c-8.624-40.741-14.488-81.918-18.961-123.277
		c-2.875-26.58-4.676-53.279-6.799-79.938c-3.305-41.492-5.624-83.032-5.418-124.68c0.073-14.863,0.104-29.727-0.024-44.589
		c-0.024-2.778-0.901-5.548-1.54-9.22c-10.826,1.492-20.902,2.88-31.685,4.365c0.767,4.453,0.802,8,2.015,11.084
		c3.978,10.114,8.346,20.075,12.653,30.056c0.976,2.261,2.603,4.265,3.403,6.57c0.893,2.572-0.048,5.165-2.538,6.213
		c-1.573,0.662-4.483,0.785-5.428-0.182c-3.064-3.138-5.939-6.64-8.098-10.45c-8.86-15.635-14.318-32.613-18.614-49.954
		c-3.332-13.452-6.052-27.055-9.28-40.534c-4.842-20.219-9.737-40.427-14.913-60.562c-2.968-11.546-7.239-22.601-14.087-32.552
		c-5.696-8.277-13.386-12.958-23.297-14.242c-18.397-2.383-37.353,7.775-45.292,24.569c-3.847,8.138-5.804,16.814-6.398,25.807
		c-1.055,15.958,0.328,31.695,4.591,47.104c10.429,37.699,21.028,75.354,35.39,111.805c4.894,12.42,10.173,24.689,15.273,37.028
		c1.714,4.148,1.151,7.248-1.677,9.316c-2.697,1.972-6.511,1.214-8.91-2.449c-2.696-4.116-5.379-8.401-7.088-12.978
		c-8.653-23.186-17.008-46.484-25.417-69.761c-1.67-4.622-3.12-9.325-4.919-14.735c-16.547-3.044-33.112-5.66-49.472-9.223
		c-16.434-3.579-32.693-7.981-48.972-12.244c-16.061-4.206-31.086-11.749-48.237-16.206c-11.114,46.69-20.414,92.658-28.611,138.861
		c7.065,10.51,13.487,21.098,16.627,33.261c11.481,44.477,4.652,85.502-23.853,122.067c-5.385,6.907-9.049,13.768-9.552,22.668
		c-0.892,15.812-2.533,31.581-3.797,47.372c-1.389,17.356-0.707,34.696,1.659,51.895c1.07,7.779,3.097,15.582,5.85,22.939
		c5.176,13.832,15.419,22.764,29.503,27.192c12.481,3.924,25.307,4.45,38.24,3.568c19.436-1.325,32.638-11.324,38.443-29.739
		c3.249-10.306,5.086-21.162,6.534-31.908c2.578-19.134,4.4-38.37,6.479-57.57c0.302-2.789,0.28-5.612,0.409-8.456
		c-4.614-1.325-8.427-2.373-12.206-3.529c-1.405-0.429-3.242-0.737-3.987-1.755c-1.358-1.857-2.778-4.184-2.832-6.348
		c-0.069-2.733,2.518-4.362,5.101-4.325c3.927,0.057,7.888,0.537,11.757,1.256c10.695,1.989,21.296,4.531,32.031,6.254
		c36.977,5.938,73.89,7.566,110.488-2.744c1.405-0.396,3.112-0.963,4.324-0.507c1.702,0.641,3.768,1.883,4.382,3.394
		c0.58,1.428,0.09,4.2-1.007,5.203c-2.104,1.924-4.855,3.304-7.55,4.381C680.414,1001.93,676.211,1003.079,671.074,1004.753z
		 M152.804,780.108c0.407,55.139,18.258,103.837,54.516,145.493c19.842,22.796,43.736,40.135,72.479,50.132
		c34.178,11.887,67.888,11.357,101.136-4.008c33.39-15.43,53.593-41.271,62.118-76.7c3.406-14.156,3.014-28.535,1.917-42.853
		c-1.604-20.935-9.345-39.383-24.154-54.508c-5.187-5.298-10.529-10.542-16.36-15.093c-25.222-19.689-40.64-45.524-48.741-76.124
		c-1.772-6.695-3.656-13.366-5.688-19.986c-9.037-29.451-28.895-48.926-56.591-61.118c-5.542-2.44-11.212-3.28-17.354-2.643
		c-12.413,1.288-24.377,4.057-35.867,8.924c-33.125,14.032-55.873,38.58-70.899,70.654
		C157.797,726.862,152.574,752.918,152.804,780.108z M793.438,944.584c3.568,0.167,5.102,0.584,6.434,0.235
		c3.817-0.999,7.63-2.108,11.308-3.527c32.531-12.549,59.948-32.429,82.688-58.692c9.387-10.842,17.821-22.503,26.971-33.558
		c8.513-10.285,17.057-20.583,26.202-30.296c14.839-15.759,32.736-27.029,53.243-34.099c6.078-2.095,12.234-4.042,18.118-6.601
		c5.876-2.555,11.571-5.591,17.136-8.781c6.919-3.968,10.297-10.411,11.615-18.109c2.869-16.748-7.507-36.713-23.184-42.366
		c-6.304-2.273-13.572-2.831-20.357-2.634c-19.197,0.557-36.888,6.661-53.246,16.616c-17.91,10.9-33.592,24.471-47.226,40.35
		c-9.348,10.889-18.11,22.286-27.55,33.092c-13.02,14.904-26.138,29.746-39.769,44.087c-11.358,11.95-24.75,21.251-40.468,26.871
		c-2.656,0.95-5.151,2.351-8.178,3.756C789.271,895.546,791.317,919.622,793.438,944.584z M453.907,650.358
		c-4.402-1.477-7.941-2.665-11.174-3.75c-1.714,1.804-2.818,2.802-3.733,3.951c-16.191,20.319-34.939,37.706-57.557,50.764
		c-3.754,2.168-7.043,5.142-10.707,7.864c8.52,31.784,27.795,54.33,54.794,72.468C435.025,737.721,444.273,694.933,453.907,650.358z
		 M701.285,561.593c11.872-3.798,45.835-22.675,57.221-31.782c-2.676-7.603-5.427-15.286-11.458-21.877
		c-7.241,3.23-13.974,6.172-20.654,9.229c-7.173,3.281-14.411,6.448-21.408,10.076c-6.318,3.276-13.675,4.892-19.051,10.094
		C691.462,546.067,696.416,553.896,701.285,561.593z M541.023,627.507c6.026,1.057,11.297-1.919,16.672-3.945
		c5.98-2.254,11.837-4.872,17.615-7.613c5.245-2.489,11.273-3.56,16.084-8.458c0-5.097,0.061-10.473-0.069-15.845
		c-0.019-0.763-0.964-1.503-1.483-2.251c-13.106,5.374-39.916,23.052-47.506,31.429c-0.965,1.065-1.783,2.392-2.233,3.743
		C539.871,625.259,540.602,626.272,541.023,627.507z M803.139,492.926c10.993-13.676,24.275-23.239,34.253-38.303
		c-17.087,0.996-30.314,6.265-40.707,17.73c-2.142,2.363-3.177,5.73-4.808,8.795C795.463,484.899,798.472,488.045,803.139,492.926z
		 M794.765,506.578c-2.784-5.642-5.902-10.508-11.931-13.4c-7.589,3.198-16.191,3.922-22.618,10.487
		c3.617,6.705,5.572,13.895,11.513,19.521C780.25,518.148,788.737,514.245,794.765,506.578z M855.54,455.827
		c-6.796,5.118-9.779,10.103-13.606,14.237c-4.356,4.705-8.823,9.318-12.965,14.205c-3.636,4.29-8.982,7.447-10.319,13.832
		c5.534,1.312,10.295,1.324,15.887-2.068c5.799-10.227,12.147-21.343,18.385-32.521C853.787,461.963,854.108,460.112,855.54,455.827
		z M886.718,443.51c-7.57,1.052-13.227,2.376-15.884,8.689c-3.82,9.076-7.533,18.196-11.239,27.319
		c-0.106,0.261,0.389,0.767,0.604,1.158C870.854,473.714,879.415,461.915,886.718,443.51z M507.541,476.861
		c2.881-2.649,5.797-5.498,7.813-8.801c3.856-6.316,1.84-13.172-5.127-15.867c-8.721-3.375-17.797-5.881-26.822-8.395
		c-3.612-1.007-6.899,1.334-8.041,4.838c-1.949,5.977-1.169,11.734,1.723,17.204c1.994,3.771,4.205,7.426,6.283,11.069
		c-5.531,6.335-11.657,6.334-18.225,4.913c-7.604-1.645-13.864-5.115-17.544-12.29c-1.567-3.054-2.72-6.391-4.716-9.122
		c-0.938-1.284-3.852-2.424-5.106-1.877c-1.943,0.849-4.198,3.015-4.564,4.954c-0.515,2.729,0.107,5.927,1.06,8.637
		c5.511,15.679,24.18,25.674,42.221,22.782c3.298-0.529,6.56-1.286,9.983-1.967c1.906,3.64,3.045,7.055,5.19,9.635
		c3.743,4.504,7.557,9.295,12.312,12.548c14.012,9.587,34.574,6.583,46.012-6.063c2.189-2.42,2.76-5.255,1.262-8.19
		c-1.173-2.298-5.223-3.33-7.945-1.912c-3.05,1.589-5.817,3.713-8.844,5.351c-7.405,4.007-15.005,4.945-22.601,0.554
		c-8.261-4.776-13.287-11.5-12.622-22.01C502.024,480.88,505.045,479.156,507.541,476.861z M416.621,345.517
		c-4.786-1.977-8.503-1.12-12.939,3.942c-6.908,7.882-11.778,16.93-13.38,27.382c-0.503,3.285-0.309,6.885,0.481,10.118
		c2.074,8.493,10.376,11.449,17.021,5.737c10.52-9.043,15.231-21.283,17.106-31.826
		C425.204,351.827,422.211,347.826,416.621,345.517z M682.664,413.311c-5.098-2.359-9.549-1.794-13.385,2.518
		c-8.108,9.112-12.815,19.832-13.035,32.101c-0.058,3.242,1.154,6.813,2.74,9.71c2.607,4.763,8.128,5.868,12.778,3.095
		c1.667-0.994,3.354-2.161,4.603-3.617c7.938-9.257,11.866-20.255,13.561-31.07C690.14,419.34,687.873,415.721,682.664,413.311z
		 M360.725,853.381c0.186,3.841,0.769,7.78,0.479,11.654c-0.516,6.876-6.794,10.46-12.881,6.904
		c-6.362-3.717-12.622-7.939-18.018-12.923c-24.387-22.524-39.413-50.405-46.302-82.818c-3.653-17.188-4.449-34.331,0.203-51.422
		c1.157-4.25,2.681-8.545,4.872-12.336c3.802-6.577,9.981-6.552,13.87-0.093c3.028,5.029,5.543,10.366,8.415,15.81
		c3.765,0,7.199-0.037,10.632,0.006c15.047,0.188,28.063,5.456,38.765,16.021c14.547,14.36,24.075,31.332,25.738,52.051
		c1.598,19.923-4.577,37.038-19.175,50.915c-1.073,1.02-2.312,1.866-3.393,2.88C362.862,851.033,361.897,852.146,360.725,853.381z
		 M333.7,843.954c19.762,2.116,29.82-8.448,36.385-23.689c4.233-9.828,4.701-20.184,2.228-30.598
		c-3.415-14.386-10.692-26.581-21.491-36.604c-15.13-14.043-37.081-16.253-57.324-5.246
		C295.782,784.095,307.778,816.585,333.7,843.954z"/>
</g>
</svg>
