<?xml version="1.0" encoding="utf-8"?>
<!-- Generator: Adobe Illustrator 23.1.0, SVG Export Plug-In . SVG Version: 6.00 Build 0)  -->
<svg version="1.1" id="Capa_1" xmlns="http://www.w3.org/2000/svg" xmlns:xlink="http://www.w3.org/1999/xlink" x="0px" y="0px"
	 viewBox="0 0 1200 1200" enable-background="new 0 0 1200 1200" xml:space="preserve">
<g>
	<path fill="#44ADB2" d="M1003.802,532.72h0.482l-41.051-185.621L902.438,72.21c-0.087-0.391-0.251-0.743-0.353-1.124
		c-2.901-10.893-11.711-18.865-22.573-20.688c-1.551-0.261-3.146-0.396-4.77-0.396H311.534c-6.775,0-13.094,2.416-18.038,6.496
		c-3.708,3.058-6.643,7.054-8.42,11.668c-0.593,1.535-1.056,3.142-1.375,4.805l-17.253,89.147l-70.731,365.455h806.961
		L1003.802,532.72z"/>
	<path fill="#61C2CB" d="M963.232,347.097L902.438,72.209c-0.086-0.389-0.251-0.743-0.352-1.122
		c-2.903-10.895-11.712-18.867-22.573-20.688c-1.553-0.261-3.147-0.399-4.771-0.399h-468.76c-6.776,0-13.095,2.416-18.038,6.496
		c-3.708,3.061-6.643,7.057-8.42,11.668c-0.593,1.535-1.056,3.145-1.375,4.808l-17.253,89.144l-70.732,365.455h712.513h0.468
		L963.232,347.097z"/>
	<path fill="#2D2D2D" d="M307.635,762.259V656.231h-34.949v106.028c-6.536,5.187-10.808,13.095-10.808,22.091
		c0,15.622,12.664,28.284,28.287,28.284c15.622,0,28.286-12.662,28.286-28.284C318.452,775.354,314.175,767.436,307.635,762.259z"/>
	<path fill="#444444" d="M307.636,762.259V656.231h-25.516v112.46c-6.535,5.187-10.807,13.095-10.807,22.091
		c0,7.667,3.076,14.593,8.024,19.687c3.339,1.385,6.99,2.165,10.829,2.165c15.619,0,28.286-12.662,28.286-28.284
		C318.453,775.354,314.176,767.436,307.636,762.259z"/>
	<path fill="#44ADB2" d="M785.913,750.624c0-32.737-4.406-64.34-12.706-94.439h-36.222H463.016h-36.222
		c-8.302,30.099-12.707,61.702-12.707,94.439c0,109.488,48.125,203.344,116.137,242.252l139.541,0.007
		C737.787,953.968,785.913,860.112,785.913,750.624z"/>
	<path fill="#61C2CB" d="M585.118,992.876l84.651,0.005c68.018-38.918,116.144-132.772,116.144-242.257
		c0-32.737-4.407-64.34-12.706-94.439h-36.221H517.912h-36.224c-8.302,30.099-12.706,61.702-12.706,94.439
		C468.982,860.112,517.107,953.968,585.118,992.876z"/>
	<path fill="#EEA82C" d="M1023.287,621.99l-20.881-94.417h-0.001H194.978l-18.416,95.151c-1.62,8.344,0.563,16.886,5.973,23.439
		c5.392,6.545,13.362,10.297,21.859,10.297h69.545v-0.229h669.669v0.229h51.982c8.652,0,16.706-3.856,22.116-10.595
		C1023.115,639.122,1025.147,630.419,1023.287,621.99z"/>
	<path fill="#F8BA43" d="M997.643,656.231c7.852-0.568,15.09-4.173,20.063-10.369c5.408-6.742,7.441-15.442,5.58-23.872
		l-20.88-94.42l0,0H290.253l-18.417,95.153c-1.619,8.341,0.563,16.884,5.974,23.439c4.943,5.999,12.086,9.503,19.783,10.068h71.621
		H943.61H997.643z"/>
	<path fill="#2D2D2D" d="M800.332,1109.916L669.765,992.884c-1.837-0.051-137.818-0.066-139.541-0.007l-130.54,117.039
		c-7.167,6.407-9.574,16.365-6.127,25.351c3.413,8.949,11.808,14.734,21.365,14.734H785.06c9.574,0,17.952-5.785,21.382-14.734
		C809.889,1126.271,807.483,1116.323,800.332,1109.916z"/>
	<path fill="#444444" d="M806.441,1135.266c3.447-8.996,1.041-18.943-6.109-25.351L669.765,992.883
		c-0.763-0.02-24.605-0.034-52.362-0.042c-19.081,0.005-32.342,0.025-32.891,0.042l-131.435,117.031
		c-7.167,6.407-9.574,16.365-6.127,25.351c3.413,8.949,11.808,14.734,21.365,14.734h316.744
		C794.633,1149.999,803.011,1144.215,806.441,1135.266z"/>
</g>
</svg>
