<?xml version="1.0" encoding="utf-8"?>
<!-- Designed by Vexels.com - 2016 All Rights Reserved - https://vexels.com/terms-and-conditions/  -->

<svg version="1.1" id="Layer_1" xmlns="http://www.w3.org/2000/svg" xmlns:xlink="http://www.w3.org/1999/xlink" x="0px" y="0px"
	 width="1200px" height="1200px" viewBox="0 0 1200 1200" enable-background="new 0 0 1200 1200" xml:space="preserve">
<g>
	<g>
		<defs>
			<path id="SVGID_1_" d="M754.925,150.265c26.889,20.795,6.753,18.693,10.46,41.16c1.049,6.414,18.11,5.617,27.26,6.066
				c23.036,1.127,15.275,23.444,11.087,31.406c-3.116,5.92,17.575,0.092,21.57,6.355c11.499,18.079-9.644,26.435-11.546,31.837
				c-3.542,10.051,8.499,8.265,12.265,17.235c7.326,17.451-12.32,19.554-17.002,21.075c-2.516,0.811,13.341,3.839,14.647,10.363
				c1.498,7.536-9.012,14.047-12.897,18.569c-7.078,8.237-4.604,12.004,6.744,5.86c5.172,1.975-139.901,104.866-110.098,2.314
				c15.091-51.945-39.108-124.484,21.469-154.718C746.862,178.817,742.592,154.434,754.925,150.265z"/>
		</defs>
		<use xlink:href="#SVGID_1_"  overflow="visible" fill-rule="evenodd" clip-rule="evenodd" fill="#A45F3E"/>
		<clipPath id="SVGID_2_">
			<use xlink:href="#SVGID_1_"  overflow="visible"/>
		</clipPath>
	</g>
	<path fill-rule="evenodd" clip-rule="evenodd" fill="#A45F3E" d="M799.009,380.692c9.002-2.987,23.072,19.128,22.664,32.336
		c-0.27,8.673-10.776,13.951-27.388,14.725c-9.777,0.458-8.925-3.5-9.378-2.722c-0.774,1.31,18.005,9.703,14.4,22.344
		c-3.427,12.017-19.76,5.122-21.492,11.399c-0.628,2.25,6.771,5.512,7.468,15.678c1.457,21.006-30.559,7.715-35.965,13.497
		c-0.284,0.298,7.619,1.658,9.662,4.531c5.677,7.917,5.246,25.936-17.446,21.24c-61.14-12.663-3.473,2.043-18.349,11.747
		c-6.006,3.922-25.955-5.347-27.224-5.512c-15.334-1.938-8.416-13.048-1.283-19.71c13.607-12.714,13.992-12.237,8.723-12.755
		c-4.38-0.422-17.318-10.153-17.886-20.429c-0.898-15.802,25.491-15.774,1.805-34.985c-17.355-14.079,11.358-48.161,61.355-47.624
		c12.645,0.137,38.192-1.581,51.446-1.169L799.009,380.692z"/>
	<path fill-rule="evenodd" clip-rule="evenodd" fill="#A45F3E" d="M672.884,458.179c13.813,1.512,65.089-92.221,14.757-91.997
		c-8.572,0.037-36.336,54.103-36.895,53.471c-0.958-1.067,33.234-56.513,27.274-67.582c-5.667-10.523-22.504,1.292-25.414-4.206
		c-1.054-1.984-20.126,42.049-21.854,32.391c-3.583-19.939-18.748-7.743-24.676-12.031c-1.164-0.843,9.081-3.184,9.585-5.887
		c1.132-6.116-6.272-20.466-19.494-14.716c-58.854,25.56,13.589-16.287-37.587,4.032c-12.59,5.003-9.332,11.71-1.746,16.457
		c14.478,9.048,14.698,8.522,10.332,10.102c-3.628,1.315-12.379,13.103-10.519,22.839c2.873,14.949,25.286,9.433,9.562,32.327
		c-11.527,16.782,20.686,42.672,63.046,31.754c10.712-2.758,32.826-6.473,43.987-9.617L672.884,458.179z"/>
	<path fill-rule="evenodd" clip-rule="evenodd" fill="#A45F3E" d="M493.94,315.639c-8.013-4.16-25.317,14.748-27.292,27.342
		c-1.292,8.265,7.733,14.826,23.361,18.015c9.199,1.874,9.094-2.002,9.383-1.201c0.499,1.361-18.816,6.552-17.657,19.087
		c1.104,11.907,17.841,7.775,18.358,13.982c0.197,2.231-7.404,4.234-9.887,13.781c-5.127,19.71,27.627,11.821,31.722,18.111
		c0.211,0.33-7.527,0.454-9.988,2.868c-6.794,6.684-9.612,23.842,12.773,22.733c60.274-2.992,2.923,2.451,15.302,13.854
		c1.457,1.343,6.029,0.486,9.117,1.475c8.045,2.579,14.537-2.772,17.703-2.685c14.899,0.431,39.359-11.138,33.788-18.509
		c-10.647-14.07-11.096-13.68-6.002-13.392c4.238,0.238,18.244-7.083,20.626-16.755c3.665-14.853-50.415-18.729-24.511-33.463
		c18.991-10.798-2.162-47.382-49.705-54.245c-12.031-1.736-35.974-7.138-48.614-8.705L493.94,315.639z"/>
	<path fill-rule="evenodd" clip-rule="evenodd" fill="#A45F3E" d="M682.785,437.278c13.813,1.512,65.094-92.212,14.757-91.992
		c-8.572,0.037-36.336,54.103-36.899,53.476c-0.953-1.072,33.239-56.518,27.279-67.591c-5.672-10.519-22.509,1.297-25.423-4.205
		c-1.049-1.975-20.117,42.053-21.844,32.4c-3.588-19.943-18.752-7.752-24.667-12.031c-1.173-0.848,9.071-3.185,9.571-5.892
		c1.132-6.116-6.263-20.461-19.485-14.716c-58.863,25.56,13.57-16.287-37.596,4.036c-12.595,5.003-9.328,11.701-1.741,16.448
		c14.477,9.053,14.697,8.531,10.331,10.112c-3.628,1.315-12.388,13.099-10.514,22.834c2.864,14.954,25.281,9.433,9.548,32.332
		c-11.527,16.782,20.69,42.672,63.05,31.754c10.721-2.763,32.831-6.478,43.987-9.621L682.785,437.278z"/>
	<path fill-rule="evenodd" clip-rule="evenodd" fill="#A45F3E" d="M752.259,455.975c15.197,1.512,71.614-92.212,16.232-91.992
		c-9.434,0.032-39.978,54.094-40.597,53.466c-1.054-1.063,36.565-56.513,30.008-67.582c-6.24-10.528-24.768,1.297-27.97-4.206
		c-1.155-1.979-22.138,42.049-24.044,32.396c-3.931-19.939-20.63-7.747-27.145-12.035c-1.283-0.843,9.988-3.175,10.538-5.883
		c1.246-6.117-6.9-20.461-21.441-14.725c-64.764,25.574,14.94-16.278-41.362,4.045c-13.859,5.003-10.272,11.701-1.92,16.447
		c15.925,9.049,16.168,8.522,11.366,10.107c-3.99,1.315-13.625,13.108-11.573,22.839c3.157,14.949,27.824,9.429,10.51,32.327
		c-12.686,16.778,22.765,42.677,69.378,31.759c11.792-2.763,36.12-6.478,48.399-9.621L752.259,455.975z"/>
	<path fill-rule="evenodd" clip-rule="evenodd" fill="#A45F3E" d="M828.614,299.045c10.991-4.884,39.415,29.171,7.926,46.759
		c-8.188,4.572-8.714-0.399-9.003,0.495c-0.49,1.507,6.666,4.21,5.512,18.083c-1.1,13.195-23.072,8.618-23.599,15.486
		c-0.183,2.474,12.746,4.691,15.206,15.266c5.085,21.835-15.385,16.141-19.444,23.104c-0.806,1.379,10.455-0.774,12.132,1.759
		c3.794,5.713,2.621,23.545-13.094,23.545c-69.978,0,20.663,10.546-39.355,12.484c-14.766,0.481-14.418-7.765-8.889-15.935
		c10.547-15.586,10.991-15.146,5.947-14.826c-4.206,0.261-18.083-7.844-20.452-18.551c-3.628-16.461,8.939-20.75-16.741-37.064
		c-18.816-11.953,14.404-52.472,61.521-60.073c11.916-1.924,30.444-8.48,42.97-10.208L828.614,299.045z"/>
	<path fill-rule="evenodd" clip-rule="evenodd" fill="#914D35" d="M770.915,303.374l-260.175,1.1
		c-3.372,31.713,4.366,36.263,18.949,61.681c6.547,11.435,50.314,43.991,59.395,43.991c22.916,37.679-13.447,106.603,46.095,88.07
		c26.151-8.137,67.994-25.336,92.583-13.571c9.846,4.71,41.023-2.011,55.258-2.011c-23.082-12.567-96.757-48.724-41.563-93.857
		C763.644,370.636,770.915,329.714,770.915,303.374z"/>
	<path fill-rule="evenodd" clip-rule="evenodd" fill="#E2C6A8" d="M584.425,491.322c-5.896,2.588-12.517,4.123-27.617,17.932
		c-14.693,13.424-46.984,40.542-63.11,57.067c-15.211,15.591,4.889,67.861,47.524,8.865c10.863-15.027,35.489-36.221,50.049-56.229
		C609.838,499.422,594.518,482.323,584.425,491.322z"/>
	<path fill-rule="evenodd" clip-rule="evenodd" fill="#828080" d="M429.565,653.434l113.278-106.2
		c-29.761-22.413-29.798-44.505-84.556-44.505c-47.249,0-40.061,20.177-74.821,15.087
		c-107.665-15.769-56.843,138.582,44.074,134.609L429.565,653.434z"/>
	<path fill-rule="evenodd" clip-rule="evenodd" fill="#CCCAC9" d="M432.09,646.359l113.282-106.204
		c-29.757-22.412-29.798-44.505-84.557-44.505c-47.244,0-40.06,20.177-74.82,15.091c-107.661-15.774-56.838,138.582,44.074,134.605
		L432.09,646.359z"/>
	<polygon fill-rule="evenodd" clip-rule="evenodd" fill="#755825" points="451.547,899.951 453.87,878.037 521.131,857.269 
		522.057,879.778 	"/>
	<polygon fill-rule="evenodd" clip-rule="evenodd" fill="#755825" points="592.561,899.951 590.243,878.037 522.982,857.269 
		522.057,879.778 	"/>
	<polygon fill-rule="evenodd" clip-rule="evenodd" fill="#84672B" points="497.738,818.963 488.841,821.341 407.061,1150 
		418.336,1138.569 	"/>
	<path fill-rule="evenodd" clip-rule="evenodd" fill="#C3A278" d="M689.84,509.693c1.833,6.166,2.534,12.929,14.359,29.633
		c11.495,16.246,34.379,51.666,48.765,69.721c13.575,17.034,67.939,3.606,14.716-46.049c-13.561-12.645-31.53-39.722-49.562-56.66
		C701.047,485.489,682.171,498.551,689.84,509.693z"/>
	<polygon fill-rule="evenodd" clip-rule="evenodd" fill="#614923" points="536.804,819.197 509.714,821.304 517.122,1056.936 
		546.499,1056.936 	"/>
	<path fill-rule="evenodd" clip-rule="evenodd" fill="#E2C6A8" d="M731.165,486.126c-0.65,6.401,3.262,13.451,7.853,33.39
		c4.462,19.398,13.13,63.092,12.828,82.486c-0.339,21.776,60.623,27.837,30.224-38.302c-7.738-16.846-13.218-47.428-23.476-69.946
		C750.715,467.979,728.293,472.909,731.165,486.126z"/>
	<path fill-rule="evenodd" clip-rule="evenodd" fill="#D4AF83" d="M619.139,545.672c-6.845,4.888-37.458,38.522-42.69,47.359
		c-6.868,11.605-9.653,16.191-3.958,27.667c8.476,17.071,42.8-24.461,54.171-39.419
		C642.449,560.507,643.906,573.913,619.139,545.672z"/>
	<path fill-rule="evenodd" clip-rule="evenodd" fill="#86C4DE" d="M714.8,450.07c5.947,0.444,61.457,50.988,54.089,59.331
		c-22.628,25.656-36.679,34.348-70.432,39.552c-6.799,1.045-2.992-56.669,3.294-70.656c0.825-1.842,7.917-18.963,8.036-19.48
		C710.205,458.729,716.734,450.216,714.8,450.07z"/>
	<path fill-rule="evenodd" clip-rule="evenodd" fill="#86C4DE" d="M608.702,450.931c-5.947,0.444-61.452,50.988-54.094,59.326
		c22.624,25.656,36.684,34.352,70.436,39.552c6.794,1.049,2.992-56.669-3.294-70.656c-0.825-1.832-7.913-18.958-8.036-19.476
		C613.297,459.59,606.769,451.073,608.702,450.931z"/>
	
		<path fill-rule="evenodd" clip-rule="evenodd" fill="#282123" stroke="#86C4DE" stroke-width="0.1462" stroke-miterlimit="22.9256" d="
		M589.757,636.381c23.581-2.437,46.53-9.594,70.106-12.04c-7.651,114.556-18.697,304.876-18.468,419.524
		c-6.611,3.771-19.494,2.763-23.421,0.852c-0.229-96.482-27.333-263.249-27.549-359.745
		C589.272,652.329,590.321,646.625,589.757,636.381z"/>
	<path fill-rule="evenodd" clip-rule="evenodd" fill="#514A4E" d="M609.802,636.505c23.576-2.438,90.677-2.919,114.258-5.356
		c3.345,112.357-28.204,299.058-27.966,413.705l-22.532-0.637c-0.224-96.486-25.647-254.319-25.872-350.81
		C624.462,669.89,618.044,663.747,609.802,636.505z"/>
	<path fill-rule="evenodd" clip-rule="evenodd" fill="#A45F3E" d="M534.747,203.809c-6.602-12.224-54.676-5.906-25.885,35.378
		c4.907,7.028,6.982,3.913,6.781,4.742c-0.334,1.393-7.207,0.005-12.911,11.198c-5.443,10.652,6.153,16.127,3.28,21.652
		c-1.031,1.984-4.453-0.926-11.412,5.988c-14.372,14.28,4.284,19.824,4.119,27.136c-0.023,1.444-7.765-5.658-10.285-4.526
		c-5.672,2.543-13.268,16.786-1.031,24.401c54.493,33.885-21.112-1.92,24.699,28.625c11.27,7.514,14.931,1.026,14.519-7.912
		c-0.779-17.057-1.338-16.938,2.442-14.248c3.147,2.236,17.822,2.745,24.768-4.329c10.675-10.858-6.607-26.165,21.166-26.243
		c20.36-0.055,23.348-41.279-9.717-69.918c-8.361-7.253-23.988-23.329-32.918-30.723L534.747,203.809z"/>
	<path fill-rule="evenodd" clip-rule="evenodd" fill="#C48856" d="M623.523,715.206c-0.49,19.444,21.135,16.764,35.429,19.096
		c9.621,1.567,3.995-6.584,3.995-16.108C661.6,717.625,623.546,714.285,623.523,715.206z"/>
	<path fill-rule="evenodd" clip-rule="evenodd" fill="#9E4478" d="M616.211,459.247c14.235-50.58,47.859-38.302,63.724-36.858
		c9.676,0.884,27.31,185.363,36.987,186.247c0.486,6.355,8.879,4.765,9.007,51.349c-26.376,12.04-112.627,11.078-140.492-3.729
		c1.109-13.772,11.119-47.382,13.955-73.02C605.028,532.289,611.666,475.424,616.211,459.247z"/>
	<path fill-rule="evenodd" clip-rule="evenodd" fill="#86C4DE" d="M729.75,641.568c0.041-0.275,0.068-0.559,0.078-0.843
		c-0.646-1.966-1.274-3.908-1.888-5.823c-1.361-4.76-2.84-9.466-4.467-14.102c-20.929-67.435-23.549-99.588-6.831-171.467
		l-38.237-28.241c0.147,4.179-0.335,8.796-4.425,14.299c-1.677,2.992-7.276,11.495-11.802,21.854
		c-5.195,11.916-12.109,32.043-11.073,58.611c-12.92,2.703-10.414,2.002-23.773-4.165c0.586-16.375-9.218-27.851-6.703-42.952
		c0.884-5.301,17.052-47.011,19.036-45.449c-1.209,1.388-2.181-4.32-10.483,6.08c-37.632,47.162-70.454,44.422-38.086,112.806
		c2.469,11.046,3.885,19.375,4.549,26.27c-0.463,23.925-6.29,53.512-12.943,76.076c-9.557,32.437-10.473,142.824-10.473,188.011
		c0.096,0,3.468-0.087,3.5-0.078c11.115,2.602,36.863,5.576,63.935,7.716c4.481,0.348,7.408-40.611,11.903-40.308
		c4.266,0.284,10.116,41.838,14.29,42.072c24.113,1.333,45.769,1.677,54.964,0.129c16.924-2.859,27.48-0.641,24.149-35.259
		C739.27,747.524,745.726,703.381,729.75,641.568z"/>
	<path fill-rule="evenodd" clip-rule="evenodd" fill="#51A9CB" d="M583.971,477.701c-4.797,19.206,9.383,31.768,41.009,37.628
		c4.293,0.802,8.173,1.054,11.743,0.857c4.054,1.75,5.873,1.448,14.381-0.33c-0.041-1.136-0.078-2.264-0.087-3.381
		c10.666-5.173,19.004-14.977,30.27-24.937c30.362-26.834-11.541-45.054,23.095-45.054c1.81,0-5.562,4.746,3.175,15.88
		c2.515,3.207,4.174,6.181,5.141,8.989c-1.287,6.359-2.41,12.411-3.34,18.211c-10.102,14.638-34.581,28.483-40.711,55.972
		c-7.56,33.903-6.222,116.636-3.102,154.832c1.837,22.601,19.425,104.229,45.462,104.229c23.851,0,19.54-15.939,23.348-37.321
		c2.442-13.749,4.572-36.501,5.906-55.459c2.277,32.327,1.232,62.849,4.71,98.988c3.331,34.618-7.225,32.4-24.149,35.259
		c-9.195,1.549-30.852,1.205-54.964-0.129c-4.173-0.234-10.024-41.788-14.29-42.072c-4.494-0.302-7.422,40.656-11.903,40.308
		c-27.072-2.14-52.82-5.113-63.935-7.716c-0.032-0.009-3.404,0.078-3.5,0.078c0-45.187,0.916-155.574,10.473-188.011
		c6.653-22.564,12.48-52.151,12.943-76.076c-0.664-6.895-2.08-15.224-4.549-26.27C574.863,507.888,575.028,491.486,583.971,477.701z
		"/>
	<path fill-rule="evenodd" clip-rule="evenodd" fill="#C79F6F" d="M638.674,379.698c5.686,11.083,4.948,32.038,5.929,45.568
		c0.123,1.681-5.223,15.486-6.854,29.628c-2.396,20.814-2.318,51.349-0.513,47.932c1.466-2.776,9.259-32.011,18.23-47.139
		c8.545-14.414,19.971-26.811,20.351-29.812c1.296-10.043,2.291-42.301-1.576-49.086
		C669.338,368.207,647.824,381.897,638.674,379.698z"/>
	<path fill-rule="evenodd" clip-rule="evenodd" fill="#B38954" d="M644.057,413.802c12.558,1.993,31.635-7.372,27.388,14.643
		c-0.069,0.376-21.144,13.873-25.533,33.894c-3.133,14.285-4.306,16.342-4.641,28.369c3.431-10.579,8.586-25.56,14.194-35.021
		c8.545-14.414,19.971-26.811,20.351-29.812c0.943-7.28,1.723-26.243,0.605-38.696l-34.073,5.15
		C643.439,399.105,643.778,406.742,644.057,413.802z"/>
	<path fill-rule="evenodd" clip-rule="evenodd" fill="#B69770" d="M550.778,273.952c-9.346-11.206-31.718-28.291-36.395-5.824
		c-1.92,9.182,0.756,55.359,15.458,56.192c20.264,1.141,24.882-22.261,24.882-31.942c0-3.326-2.313-7.546-3.945-10.675
		C549.184,278.644,552.707,277.256,550.778,273.952z"/>
	<path fill-rule="evenodd" clip-rule="evenodd" fill="#967449" d="M527.687,283.257c-0.843,4.036,0.334,24.351,6.803,24.712
		C557.527,302.298,531.49,265.018,527.687,283.257z"/>
	<path fill-rule="evenodd" clip-rule="evenodd" fill="#E2C6A8" d="M628.32,404.076c-23.851-7.761-48.042-19.087-65.186-35.658
		c-40.807-39.456-14.743-66.404-19.948-102.566c-13.768-69.978,16.851-88.24,73.51-94.26c36.657-5.278,65.062-28.543,98.887-11.687
		c20.2,14.624,33.234,53.869,41.165,84.236c8.586,49.608,19.971,59.436-7.046,97.384C726.822,373.646,671.23,418.022,628.32,404.076
		z"/>
	<path fill-rule="evenodd" clip-rule="evenodd" fill="#D4AF83" d="M732.609,202.655l-5.938,8.311
		c-32.978-25.776-143.433-15.971-167.605,20.782c-14.716,22.367-7.665,69.923-4.989,96.995
		c2.249,22.825,33.174,47.689,62.845,57.393c44.331,14.496,70.074,6.547,93.33-5.292c-25.221,18.697-55.917,31.69-81.931,23.233
		c-23.851-7.761-48.042-19.087-65.186-35.658c-40.807-39.456-14.743-66.404-19.948-102.566c-13.768-69.978,16.851-88.24,73.51-94.26
		c8.879-1.269,17.273-3.61,25.377-6.171l38.283,5.759L732.609,202.655z"/>
	<path fill-rule="evenodd" clip-rule="evenodd" fill="#AC8A62" d="M647.049,326.053c1.136-0.769,2.69-0.481,3.459,0.655
		c0.775,1.132,0.486,2.68-0.65,3.454c-4.009,2.735-8.407,3.532-12.398,3.253c-5.42-0.385-10.217-2.854-12.329-5.136
		c-5.397-5.86-2.772-15.778-1.127-21.964c0.44-1.658,0.797-3.005,0.829-3.619c0.765-13.891,0.792-24.474-0.362-33.738
		c-1.14-9.149-3.454-17.038-7.344-25.647c-0.563-1.251-0.005-2.73,1.251-3.29c1.255-0.568,2.726-0.009,3.285,1.247
		c4.114,9.09,6.552,17.419,7.756,27.086c1.191,9.548,1.168,20.401,0.385,34.618c-0.064,1.132-0.481,2.694-0.995,4.614
		c-1.37,5.172-3.564,13.47-0.014,17.318c1.43,1.553,4.911,3.253,9.017,3.546C640.809,328.655,644.09,328.073,647.049,326.053z"/>
	<path fill-rule="evenodd" clip-rule="evenodd" fill="#E2C6A8" d="M753.803,264.005c9.841-11.811,33.431-29.825,38.366-6.135
		c2.025,9.681-0.788,58.35-16.287,59.225c-21.364,1.205-26.234-23.457-26.234-33.669c0-3.51,2.437-7.945,4.155-11.243
		C755.484,268.958,751.768,267.487,753.803,264.005z"/>
	<path fill-rule="evenodd" clip-rule="evenodd" fill="#B18B5B" d="M778.144,273.815c0.88,4.256-0.353,25.67-7.17,26.059
		C746.688,293.891,774.135,254.595,778.144,273.815z"/>
	<path fill-rule="evenodd" clip-rule="evenodd" fill="#BD6633" d="M620.22,352.145c9.401-0.66,16.498-7.587,18.894-8.962
		c2.382-0.98,8.851,5.809,13.786-4.499c0.903-0.078,6.126,2.653,12.31,2.667c8.132,0.032,25.826-8.558,28.176-10.492
		c-1.778,2.822-5.104,6.927-10.693,10.359c-7.903,4.861-18.624,9.131-21.148,13.131c-7.949,0.687-15.893,1.374-23.847,2.066
		C636.672,355.434,614.296,352.557,620.22,352.145z"/>
	<path fill-rule="evenodd" clip-rule="evenodd" fill="#BD6633" d="M699.022,318.223c1.392-0.944,2.382-2.415,2.629-3.707
		c0.156-0.847-0.408-1.667-1.251-1.823c-0.848-0.156-1.672,0.403-1.824,1.255c-0.215,1.109-2.396,2.181-3.404,2.451
		c-1.246,0.339-2.767,0.344-3.582-0.848c-0.477-0.719-1.453-0.898-2.163-0.417c-0.715,0.486-0.902,1.461-0.412,2.172
		c0.894,1.324,2.167,2.038,3.56,2.295l0.096,0.028C694.39,319.923,697.565,319.222,699.022,318.223z"/>
	<path fill-rule="evenodd" clip-rule="evenodd" fill="#BD6633" d="M616.326,347.082c0.385-1.64,0.128-3.39-0.568-4.513
		c-0.454-0.733-1.415-0.958-2.149-0.504c-0.729,0.458-0.958,1.42-0.504,2.153c0.6,0.967-0.288,3.225-0.857,4.11
		c-0.687,1.095-1.805,2.116-3.212,1.786c-0.838-0.197-1.681,0.321-1.874,1.159c-0.202,0.838,0.316,1.681,1.155,1.878
		c1.562,0.376,2.969,0.041,4.173-0.706l0.092-0.046C614.049,351.462,615.923,348.791,616.326,347.082z"/>
	<path fill-rule="evenodd" clip-rule="evenodd" fill="#CF804B" d="M691.549,333.814c-4.192,6.006-10.02,5.933-16.205,11.037
		c-12.796,10.565-27.929,9.25-39.978,8.65c-3.862-0.197-7.779,1.7-10.34-1.571c-0.105,1.484-3.734-0.962-3.532,0.357
		c2.139,14.061,19.325,20.076,44.715,12.237C685.286,360.002,691.884,341.236,691.549,333.814z"/>
	<path fill-rule="evenodd" clip-rule="evenodd" fill="#BD6633" d="M615.18,347.769c1.576,2.566,10.986,4.027,23.993,3.18
		c10.854-0.71,23.98-3.18,37.051-8.192c6.13-2.35,12.09-5.938,15.394-11.014c2.539-3.894,3.528-8.783,1.796-14.812l4.041-1.155
		c2.121,7.353,0.865,13.378-2.309,18.257c-3.871,5.947-10.583,10.038-17.419,12.659c-13.488,5.177-27.058,7.734-38.274,8.462
		c-14.578,0.953-25.546-1.398-27.865-5.186L615.18,347.769z"/>
	<path fill-rule="evenodd" clip-rule="evenodd" fill="#FFFFFF" d="M581.712,252.112c16.553-0.834,30.581,10.592,31.328,25.523
		c0.756,14.931-12.049,27.718-28.598,28.548c-16.548,0.838-30.577-10.592-31.333-25.524
		C552.354,265.728,565.16,252.946,581.712,252.112z"/>
	<path fill-rule="evenodd" clip-rule="evenodd" fill="#E2C6A8" d="M553.907,261.504c-5.053-22.527,45.985-35.154,56.233-11.115
		C601.674,248.836,569.205,250.014,553.907,261.504z"/>
	<path fill-rule="evenodd" clip-rule="evenodd" fill="#1B1414" d="M587.041,293.309c8.554,0,15.54-6.978,15.54-15.531
		c0-8.554-6.987-15.532-15.54-15.532c-8.549,0-15.531,6.978-15.531,15.532C571.509,286.331,578.492,293.309,587.041,293.309z"/>
	<path fill-rule="evenodd" clip-rule="evenodd" fill="#FFFFFF" d="M594.674,268.61c-0.527-1.521-2.185-2.323-3.711-1.787
		c-1.517,0.536-2.314,2.195-1.787,3.711c0.536,1.521,2.195,2.319,3.72,1.787C594.412,271.785,595.209,270.122,594.674,268.61z"/>
	<path fill-rule="evenodd" clip-rule="evenodd" fill="#FFFFFF" d="M688.393,242.766c16.544-0.834,30.577,10.588,31.329,25.523
		c0.756,14.931-12.054,27.714-28.602,28.548c-16.553,0.838-30.582-10.588-31.333-25.519
		C659.03,256.382,671.84,243.599,688.393,242.766z"/>
	<path fill-rule="evenodd" clip-rule="evenodd" fill="#1B1414" d="M691.517,283.408c8.558,0,15.536-6.978,15.536-15.527
		c0-8.558-6.978-15.536-15.536-15.536c-8.554,0-15.527,6.978-15.527,15.536C675.991,276.431,682.964,283.408,691.517,283.408z"/>
	<path fill-rule="evenodd" clip-rule="evenodd" fill="#FFFFFF" d="M700.818,260.854c-0.532-1.517-2.19-2.314-3.711-1.787
		c-1.517,0.536-2.314,2.195-1.778,3.716c0.527,1.516,2.19,2.314,3.711,1.782C700.552,264.033,701.349,262.375,700.818,260.854z"/>
	<path fill-rule="evenodd" clip-rule="evenodd" fill="#E2C6A8" d="M665.261,306.536c-4.353-20.48,50.992-33.45,60.915-11.829
		c0.554,8.998-20.003,9.3-34.503,12.054C681.91,308.616,676.971,313.394,665.261,306.536z"/>
	<path fill-rule="evenodd" clip-rule="evenodd" fill="#E2C6A8" d="M551.997,272.165c-5.686-25.331,51.693-39.529,63.229-12.503
		C605.706,257.917,569.191,259.241,551.997,272.165z"/>
	<path fill-rule="evenodd" clip-rule="evenodd" fill="#A45F3E" d="M615.757,166.543c1.434,35.727,131.828,8.71,125.964,84.222
		c-2.969,38.297,80.593-32.098,31.484-94.049c-23.833-30.059-69.112-57.374-123.485-41.366
		C628.329,121.649,616.252,149.01,615.757,166.543z"/>
	<path fill-rule="evenodd" clip-rule="evenodd" fill="#924D35" d="M667.066,111.62c-36.24,37.229,23.604,71.49,57.979,77.386
		c18.294,3.139,26.257,50.424,23.691,72.621c-4.673,0.179-7.614-3.116-7.014-10.863c5.864-75.512-124.53-48.495-125.964-84.222
		c0.495-17.533,12.572-44.894,33.963-51.194C655.612,113.618,661.403,112.39,667.066,111.62z"/>
	<path fill-rule="evenodd" clip-rule="evenodd" fill="#A45F3E" d="M634.642,166.543c-0.999,35.727-84.107,8.985-91.712,84.222
		c-1.741,17.309-3.212,21.148-10.492,13.071c-11.6-12.865-27.828-52.568-6.927-90.622c16.512-30.054,38.998-67.747,87.278-50.168
		C632.801,130.331,634.299,149.01,634.642,166.543z"/>
	<path fill-rule="evenodd" clip-rule="evenodd" fill="#924D35" d="M614.658,123.784c22.715,33.931-30.952,62.542-65.575,80.071
		c-13.634,6.904-21.464,32.322-22.399,51.844c1.924,3.322,3.899,6.075,5.754,8.137c7.28,8.077,8.751,4.238,10.492-13.071
		c7.605-75.237,90.714-48.495,91.712-84.222C634.308,149.573,632.893,131.536,614.658,123.784z"/>
	<path fill-rule="evenodd" clip-rule="evenodd" fill="#A45F3E" d="M604.281,244.983c-22.628-7.848-40.688-8.966-59.889-6.172
		c-3.074,0.445-5.503-1.173-4.311-1.718c20.296-11.307,41.641-9.878,65.19-2.919C613.027,236.164,609.646,246.816,604.281,244.983z"
		/>
	<path fill-rule="evenodd" clip-rule="evenodd" fill="#9E4478" d="M678.204,423.107c1.407-2.281,15.344,4.064,10.638,17.039
		c-0.055,0.38-5.516,47.533-8.654,48.5c-5.447,1.686-8.87-13.415-19.146-17.598c-0.568-0.344-3.908-0.49-4.188-0.463
		C656.955,451.829,675.138,428.083,678.204,423.107z"/>
	<path fill-rule="evenodd" clip-rule="evenodd" fill="#E9C730" d="M407.111,531.414c0.687,5.878-5.228,11.394-13.199,12.319
		c-7.976,0.93-14.991-3.088-15.668-8.971c-0.683-5.878,5.222-11.399,13.195-12.329C399.41,521.514,406.429,525.532,407.111,531.414z
		"/>
	<path fill-rule="evenodd" clip-rule="evenodd" fill="#0096CA" d="M450.141,520.098c0.637,5.461-4.852,10.578-12.247,11.435
		c-7.399,0.861-13.909-2.868-14.542-8.32c-0.632-5.457,4.847-10.579,12.246-11.435C442.998,510.917,449.504,514.642,450.141,520.098
		z"/>
	<path fill-rule="evenodd" clip-rule="evenodd" fill="#3E4380" d="M487.897,522.723c-1.411,5.314-8.379,8.068-15.582,6.172
		c-7.198-1.906-11.898-7.757-10.492-13.071c1.402-5.315,8.384-8.073,15.582-6.166C484.598,511.563,489.299,517.413,487.897,522.723z
		"/>
	<path fill-rule="evenodd" clip-rule="evenodd" fill="#9E4478" d="M636.897,427.955c0.156-2.68-12.187-5.035-15.28,8.366
		c-0.142,0.344-19.155,42.668-17.529,45.201c2.827,4.389,12.361-6.327,21.221-4.183c0.555,0.028,2.85,1.746,3.019,1.92
		C637.272,463.558,636.549,433.778,636.897,427.955z"/>
	<path fill-rule="evenodd" clip-rule="evenodd" fill="#713822" d="M552.83,1080.379c1.897,7.441,88.043,1.668,94.407-11.706
		c3.468-9.621-0.93-17.46-6.126-25.757c-3.276-5.228-17.602-3.739-23.723-3.812C619.175,1051.347,546.535,1061.747,552.83,1080.379z
		"/>
	<path fill-rule="evenodd" clip-rule="evenodd" fill="#8E4F31" d="M605.435,1087.275c2.03,7.949,94.045,1.782,100.839-12.503
		c3.706-10.281-0.999-18.647-6.543-27.507c-3.505-5.589-18.811-3.995-25.336-4.077
		C676.302,1056.258,598.714,1067.368,605.435,1087.275z"/>
	<path fill-rule="evenodd" clip-rule="evenodd" fill="#9E4478" d="M393.948,606.647c3.514-6.084,13.048-7.152,21.29-2.387
		c8.247,4.765,12.077,13.566,8.563,19.646c-3.519,6.084-13.048,7.143-21.295,2.378C394.269,621.523,390.435,612.727,393.948,606.647
		z"/>
	<path fill-rule="evenodd" clip-rule="evenodd" fill="#0083BA" d="M681.585,420.143c5.378,5.466,36.551,23.068,26.362,23.063
		c-7.775,0-16.31-3.642-17.401,4.563c-0.962,7.326,21.116,16.489,18.267,26.738c-3.381,12.164-43.433,33.834-54.818,42.195
		c-5.031,3.693-8.654,6.707-11.958,11.655c-12.499,18.725-5.887-4.696-1.187-15.335c9.667-21.886,18.583-44.454,28.877-66.23
		C676.508,432.458,680.16,425.261,681.585,420.143z"/>
	<path fill-rule="evenodd" clip-rule="evenodd" fill="#0083BA" d="M626.978,423.593c-7.216,5.301-44.326,22.376-34.137,22.376
		c7.775,0,17.538-3.533,15.861,4.425c-1.507,7.106-26.683,15.985-27.292,25.936c-0.724,11.802,32.025,32.817,40.588,40.935
		c3.78,3.574,6.391,6.506,8.022,11.303c6.18,18.166,7.472-4.554,6.359-14.876c-2.281-21.226-3.578-43.121-6.533-64.251
		C627.908,435.537,626.675,428.555,626.978,423.593z"/>
	<path fill-rule="evenodd" clip-rule="evenodd" fill="#514A4E" d="M631.972,134.981c-20.461,1.498-36.748-38.191-30.958-66.592
		c7.289-35.791,91.699-13.145,127.65,15.421c20.205,16.058,45.655,48.174,46.617,48.138
		c107.249-4.219,153.393,167.999,16.814,135.489C784.261,195.865,699.599,130.047,631.972,134.981z"/>
	<polygon fill-rule="evenodd" clip-rule="evenodd" fill="#84672B" points="549.665,814.675 558.557,817.057 640.351,1145.712 
		629.076,1134.281 	"/>
	<path fill-rule="evenodd" clip-rule="evenodd" fill="#514A4E" d="M765.193,140.085c6.263-23.119,3.019-46.424,4.677-52.614
		c0.229-0.884,29.647,0.408,25.336,4.93c-11.765,12.352-19.847,51.867-27.031,51.867
		C766.26,144.268,764.606,142.239,765.193,140.085z"/>
	<polygon fill-rule="evenodd" clip-rule="evenodd" fill="#B5A245" points="556.34,816.819 583.334,819.197 669.883,1147.141 
		640.507,1147.141 584.915,928.974 463.143,932.52 407.853,1149.519 378.472,1149.519 465.021,821.579 492.02,819.197 
		470.428,903.946 577.346,899.268 	"/>
	<polygon fill-rule="evenodd" clip-rule="evenodd" fill="#765926" points="677.846,777.528 438.041,792.615 403.904,819.609 
		650.843,803.73 	"/>
	<path fill-rule="evenodd" clip-rule="evenodd" fill="#765926" d="M455.093,859.226c9.062-0.504,18.037-0.926,27.049-1.26
		l9.878-38.768l-26.999,2.382L455.093,859.226L455.093,859.226z M566.47,856.591c4.54-0.009,9.149-0.009,13.841-0.009
		c4.265,0,8.581,0.046,12.924,0.124l-9.9-37.509l-26.994-2.378L566.47,856.591z"/>
	<polygon fill-rule="evenodd" clip-rule="evenodd" fill="#D6C168" points="677.846,791.813 678.661,777.968 651.255,803.437 
		403.107,819.609 403.904,833.899 650.843,818.02 	"/>
	<polygon fill-rule="evenodd" clip-rule="evenodd" fill="#F4E3B1" points="632.132,518.004 390.512,543.633 423.462,810.882 
		643.109,796.239 	"/>
	<polygon fill-rule="evenodd" clip-rule="evenodd" fill="#D6C168" points="626.817,524.753 396.331,549.2 427.764,804.133 
		637.295,790.159 	"/>
	<polygon fill-rule="evenodd" clip-rule="evenodd" fill="#F4E3B1" points="621.888,531.011 401.728,554.367 431.75,797.87 
		631.894,784.529 	"/>
	<polygon fill-rule="evenodd" clip-rule="evenodd" fill="#B6A96D" points="617.123,537.068 406.951,559.352 435.608,791.822 
		626.675,779.081 	"/>
	<path fill-rule="evenodd" clip-rule="evenodd" fill="#A09359" d="M416.031,558.39l6.46,13.928
		c7.532-11.303,45.627-18.239,48.436,7.418c4.65,42.406,12.709,83.131,12.709,134.197c0,5.209-1.136,55.285-0.687,74.733
		l32.194-2.144c1.92-15.673,2.538-36.231,1.901-59.436c-0.481-17.722-7.844-46.672-8.796-74.573
		c-0.678-19.682-1.943-75.769,14.294-87.342c29.972-21.382,63.445-18.308,95.552-3.464l-0.972-24.64L416.031,558.39z"/>
	<polygon fill-rule="evenodd" clip-rule="evenodd" fill="#95772D" points="425.978,558.418 407.143,559.842 436.282,792.661 
		451.886,791.451 	"/>
	<polygon fill-rule="evenodd" clip-rule="evenodd" fill="#95772D" points="632.132,518.004 388.68,542.717 423.462,519.842 
		649.523,495.124 654.1,785.257 643.109,798.072 	"/>
	<polygon fill-rule="evenodd" clip-rule="evenodd" fill="#755825" points="364.265,525.532 680.577,484.903 679.473,506.862 
		362.07,539.817 	"/>
	<polygon fill-rule="evenodd" clip-rule="evenodd" fill="#574221" points="364.265,519.576 680.577,478.947 679.473,500.911 
		362.07,533.861 	"/>
	<polygon fill-rule="evenodd" clip-rule="evenodd" fill="#EBD88C" points="504.184,451.32 473.277,454.083 505.009,818.093 
		531.632,816.251 	"/>
	<polygon fill-rule="evenodd" clip-rule="evenodd" fill="#95772D" points="530.991,816.714 504.198,452.008 513.764,459.618 
		542.582,815.559 	"/>
	<polygon fill-rule="evenodd" clip-rule="evenodd" fill="#95772D" points="467.986,904.903 477.51,900.422 570.181,895.571 
		578.757,900.455 	"/>
	<path fill-rule="evenodd" clip-rule="evenodd" fill="#DA5325" d="M354.328,562.151c5.901,0,10.712-6.529,10.712-14.532
		c0-8.009-4.811-14.528-10.712-14.528c-5.906,0-10.721,6.519-10.721,14.528C343.607,555.623,348.422,562.151,354.328,562.151z"/>
	<path fill-rule="evenodd" clip-rule="evenodd" fill="#179550" d="M364.214,573.184c6.277-3.152,14.831,1.191,19.1,9.703
		c4.279,8.508,2.657,17.96-3.624,21.116c-6.277,3.152-14.831-1.196-19.11-9.703C356.316,585.797,357.938,576.34,364.214,573.184z"/>
	<path fill-rule="evenodd" clip-rule="evenodd" fill="#E2C6A8" d="M349.668,617.84c1.627-2.336,7.093-9.41,9.814-11.825
		c1.704-2.295,9.516-3.244,12.7,3.821c2.451,5.443,3.202,3.179,0.224,8.746c17.254-13.758,24.594,4.98,17.295,11.976
		c1.255,1.526,9.04-6.432,13.388,2.103c5.58,10.95-7.124,19.71-17.309,23.457c-14.184,5.232-49.421-31.681-50.392-36.166
		c-0.934-4.352-0.069-4.44,0.275-5.392c2.323-6.423,8.283-1.283,11.362,2.593C348.17,618.6,348.354,617.89,349.668,617.84z"/>
	<path fill-rule="evenodd" clip-rule="evenodd" fill="#179550" d="M727.94,639.199c-8.751-3.674-28.758-5.53-32.675,7.582
		c-5.91,19.797-23.673,9.374-12.943,23.865c2.437,3.285,28.758-6.483,15.953,4.082c-3.651,3.015-1.37,12.659,10.089,7.225
		c0.004-0.101-2.3,20.484,13.135,13.378c8.526-3.926-6.785-17.753,3.454-12.425c20.048,10.446,9.227-17.25,7.789-28.937
		C732.141,649.141,731.853,640.844,727.94,639.199z"/>
	<path fill-rule="evenodd" clip-rule="evenodd" fill="#43A56E" d="M728.801,641.636c-7.903-3.042-25.982-4.586-29.523,6.29
		c-5.337,16.42-21.391,7.775-11.696,19.792c2.204,2.726,25.995-5.379,14.418,3.381c-3.299,2.497-1.232,10.496,9.117,5.997
		c0.009-0.087-2.08,16.984,11.871,11.096c7.706-3.253-6.135-14.734,3.125-10.308c18.11,8.659,8.333-14.308,7.033-24.002
		C732.609,649.883,732.348,643.001,728.801,641.636z"/>
	<path fill-rule="evenodd" clip-rule="evenodd" fill="#DE7436" d="M680.05,562.733c-13.52,3.739-15.398-1.315-12.269,18.693
		c1.255,7.995-10.057,37.436,2.982,34.994c4.797-0.907-5.686-19.174,2.382-19.705c1.466-0.091-2.135,6.661,5.796,9.814
		c19.815,7.889-10.102-17.515,2.776-16.438c0.179,0.009,16.09,10.299,4.417-5.677c-7.733-10.578-11.206-3.179-2.153-17.277
		C686.418,563.334,680.485,562.615,680.05,562.733z"/>
	<path fill-rule="evenodd" clip-rule="evenodd" fill="#703281" d="M719.836,762.592c-13.776,4.591-8.297,28.135-19.453,33.349
		c-11.422,5.337-25.249,15.224-5.237,22.11c12.012,4.137,26.421,5.351,16.901-9.433c-7.106-11.037,16.604,3.23,7.867-25.977
		c-4.49-15.009,25.345-17.872,4.728-48.321c-6.405-9.447-24.231-9.763-3.028,5.09c4.783,3.349,1.933,10.047,2.547,17.465
		C724.449,760.26,721.531,762.029,719.836,762.592z"/>
	<path fill-rule="evenodd" clip-rule="evenodd" fill="#E2C6A8" d="M653.491,274.355c-7.986-29.871,55.537-55.276,70.243-24.342
		c0.504,3.422,2.044,9.42-0.073,13.126c-8.636-5.012-42.168-1.242-68.594,10.377C653.55,272.578,655.154,275.354,653.491,274.355z"
		/>
	<path fill-rule="evenodd" clip-rule="evenodd" fill="#E2C6A8" d="M556.157,312.253c-4.357-20.484,51.006-33.454,60.911-11.83
		c0.559,8.994-19.994,9.305-34.499,12.058C572.806,314.338,567.867,319.108,556.157,312.253z"/>
	<path fill-rule="evenodd" clip-rule="evenodd" fill="#E2C6A8" d="M653.225,280.375c2.383-11.243,70.936-10.867,71.824-9.214
		c0.573,9.237-20.04,24.227-34.929,27.054C680.1,300.117,665.247,287.408,653.225,280.375z"/>
	<path fill-rule="evenodd" clip-rule="evenodd" fill="#A45F3E" d="M659.13,264.477c22.628-10.693,41.257-13.886,61.516-13.144
		c3.244,0.119,5.589-1.833,4.284-2.268c-22.348-9.465-44.362-5.576-68.04,4.302C649.06,256.313,653.77,266.993,659.13,264.477z"/>
	<polygon fill-rule="evenodd" clip-rule="evenodd" fill="#755825" points="723.368,399.861 711.955,403.288 706.787,329.943 
		709.193,322.548 712.482,324.454 	"/>
	<path fill-rule="evenodd" clip-rule="evenodd" fill="#C09969" d="M745.263,428.651l-6.863-1.141
		c-1.035,3.005-8.778,11.399-10.546,6.103c-3.642-10.922-1.704-14.125-15.229-5.837c1.498,16.635,0.188,21.401,4.577,38.888
		c3.055,12.201,7.962,20.695,17.712,28.396c3.725,2.942,23.686-23.086,20.323-33.138l-0.916-2.74L745.263,428.651z"/>
	<path fill-rule="evenodd" clip-rule="evenodd" fill="#BE9764" d="M728.046,390.849c-9.237-1.196-14.757-1.75-23.737,1.548
		c-2.432,0.884-10.56,1.668-6.712,7.005c2.281,3.17,14.358-0.893,19.742,1.026C718.718,400.924,728.013,390.84,728.046,390.849z"/>
	<path fill-rule="evenodd" clip-rule="evenodd" fill="#D4AF83" d="M763.722,487.308c-8.155-18.353,12.965-61.901-6.717-74.298
		c-10.922-6.873-21.29-32.446-32.418-21.396c-0.458,0.458-9.071,4.215-12.205,8.123c-4.261,5.301-11.092,16.713-10.258,23.535
		c0.577,4.714,5.415-2.126,2.818,7.77c-1.549,5.864,8.233,13.749,6.047,2.965c-3.496-17.24,36.583-28.758,40.02,8.994
		C752.057,454.523,762.192,483.867,763.722,487.308z"/>
	<path fill-rule="evenodd" clip-rule="evenodd" fill="#E2C6A8" d="M712.336,443.66c2.584-5.402-5.022-12.022,1.306-21.212
		c1.329-1.947,11.788-10.904,15.307-10.473c4.755,0.582,9.543,4.907,15.233,5.461c6.9,0.674,14.693,7.445,15.298,15.014
		c0.605,7.564-1.168,13.671-0.16,21.235c1.063,8.054,2.868,18.381,1.723,26.215c-0.843,5.649,7.317,9.648-5.434,14.331
		c-6.478,2.373-13.14,3.931-20.039,3.056c-3.23-0.403-6.061-12.517-6.235-15.165c-0.981-15.531,2.218-12.746,6.414-26.307
		c1.576-5.09,6.332-11.541,5.214-17.162c-0.096-0.481,5.406,2.382-1.127-3.798c-3.175-3.005-2.927-3.395-3.491-6.607
		c-8.476-2.007-4.98-4.375-12.063-0.142c-6.95,4.155-6.946-1.984-4.101,8.155C721.975,442.67,712.207,450.757,712.336,443.66z"/>
	<path fill-rule="evenodd" clip-rule="evenodd" fill="#AC8A62" d="M703.892,428.088c0.124-1.04,10.726-18.161,12.65-20.961
		c2.859-4.146,8.219-14.391,14.107-9.241c4.44,3.885,20.429,13.396,20.369,13.469c-2.314,3.061-14.986-6.538-20.04-8.906
		c-3.555-1.663-3.642-3.322-7.408,0.234c-5.695,5.369-12.576,22.115-19.242,24.946L703.892,428.088z"/>
	<path fill-rule="evenodd" clip-rule="evenodd" fill="#755825" d="M728.041,426.438l-13.359,3.55
		c-0.252,20.992-0.509,41.999-0.761,62.996c0.481,5.3,26.064-5.603,27.893-10.194L728.041,426.438z"/>
	<path fill-rule="evenodd" clip-rule="evenodd" fill="#1B1414" d="M715.359,480.079c14.093-7.578,45.316,5.191,36.528,22.687
		c-4.975,9.887-10.689,41.389,4.815,47.231c7.775,2.937-30.554,2.919-42.856-28.831
		C710.178,511.691,701.175,487.721,715.359,480.079z"/>
	<path fill-rule="evenodd" clip-rule="evenodd" fill="#DA5325" d="M714.961,524.157c4.746,5.755,2.556,12.673,15.715,20.31
		c4.668,2.703,21.652,12.599,26.976,8.1c0.976-0.825-9.314-7.894-9.506-18.166c-0.087-4.563-0.706-2.612,0.183-7.665
		c0.972-5.484,7.207-17.456,3.785-19.444c-6.066-3.519-9.291,18.743-11.289-1.004c-0.435-4.297-14.257-10.322-11.641,3.221
		c0.696,3.624-5.342,6.318-8.009-6.103c-1.058-4.939-5.264,0.509-3.161,6.116c1.022,2.717-2.103-0.87-3.17-3.253
		c-2.355-5.205-5.58-11.147-6.835-0.916C706.916,514.234,714.347,523.42,714.961,524.157z"/>
	<path fill-rule="evenodd" clip-rule="evenodd" fill="#C42F1D" d="M721.517,536.44c4.554,3.656,3.67,8.956,15.22,13.016
		c4.1,1.438,19.022,6.703,22.733,2.813c0.678-0.719-8.494-4.701-9.951-12.169c-0.65-3.317-0.902-1.823-0.824-5.617
		c0.078-4.119,3.582-13.575,0.572-14.634c-5.328-1.869-5.099,14.753-9.199,0.568c-0.898-3.088-12.792-5.892-8.962,3.688
		c1.026,2.566-3.496,5.232-7.216-3.528c-1.48-3.487-4.169,0.971-1.773,4.824c1.159,1.865-1.801-0.389-2.969-2.007
		c-2.547-3.532-5.901-7.496-5.612,0.119C713.783,530.118,720.926,535.968,721.517,536.44z"/>
	<path fill-rule="evenodd" clip-rule="evenodd" fill="#1B1414" d="M665.412,54.434c-7.922,9.91-8.302,25.913,4.247,41.257
		c20.676,25.285,62.066,36.904,95.804,81.509c26.133,34.549,49.237,58.034,88.419,17.813c2.671-2.753,5.772-8.879,8.444-15.756
		c29.546,46.869,16.539,108.838-70.23,88.18c-7.834-71.572-92.496-137.39-160.123-132.456
		c-20.461,1.498-36.748-38.191-30.958-66.592C605.17,47.983,634.395,46.586,665.412,54.434z"/>
	<path fill-rule="evenodd" clip-rule="evenodd" fill="#D6C168" d="M474.748,470.975c26.962,16.906,27.283,84.46,31.397,111.11
		c3.592,23.27,8.151,200.02,3.175,209.769c-0.843,1.654-3.308,4.545-5.951,7.417l1.64,18.821l26.623-1.842L504.184,451.32
		l-30.907,2.763L474.748,470.975z"/>
</g>
</svg>
