<?xml version="1.0" encoding="utf-8"?>
<!-- Designed by Vexels.com - 2019 All Rights Reserved - https://vexels.com/terms-and-conditions/  -->
<svg version="1.1" id="Capa_1" xmlns="http://www.w3.org/2000/svg" xmlns:xlink="http://www.w3.org/1999/xlink" x="0px" y="0px"
	 viewBox="0 0 1200 1200" enable-background="new 0 0 1200 1200" xml:space="preserve">
<g>
	<g>
		<g>
			<path fill="#979797" d="M812.536,501.989l-3.804,12.647l-0.76,2.662l-5.04,4.469l-12.836,11.41l-0.761,0.76l-1.616-0.19
				l-5.42-0.666l-21.109-2.568l-5.8-0.666l-9.794,9.509l-124.753,120.95L612,668.96L428.675,846.676l21.109-29.096l128.936-177.24
				l2.472-3.328l2.187-3.138l71.885-104.119l1.996-2.852c0.761-0.76,1.522-1.426,2.282-2.092
				c55.435-49.92,138.065-28.336,143.105-27.005l0.19,0.095l3.138,1.331l5.23,2.187L812.536,501.989z"/>
		</g>
	</g>
	<g>
		<g>
			<path fill="#979797" d="M760.232,555.085c0,0,7.063,103.615-33.561,135.939c0,0-95.132,201.377-219.874,241.583l-125.768,211.457
				l142.218-163.988l80.984-58.915l53.173-49.41l34.922-35.482l42.626-65.218l18.37-33.728l24.439-24.598l13.066-24.13
				l-10.255-56.938l9.126-48.517l-8.502-20.486L760.232,555.085z"/>
		</g>
	</g>
	<g>
		<g>
			<path fill="#979797" d="M659.353,465.381l-2.758,0.855l-15.309,4.945l-0.855,0.286l-9.984,3.233l-34.801,31.283l-20.253,18.257
				l-69.032,53.438l-16.165,18.352l-8.843,9.984l-16.64,19.017l-29.191,33.09l20.064-37.844c0,0,0,0,0.095,0l67.891-127.891
				l7.417-13.977l26.624-23.581l30.903-12.837l19.873,0.761l33.185,14.738l14.073,6.181l1.521,0.76L659.353,465.381z"/>
		</g>
	</g>
	<g>
		<g>
			<path fill="#ECB687" d="M812.536,501.989l-1.331-0.57l-5.23-2.187v-0.095l-3.138-1.236l-0.19-0.095l-28.336-12.076
				l-127.51,22.345L521.098,629.119l-29.476-31.569l-1.427-1.521l-4.754-5.04l110.205-85.007l44.786-34.516l0.38-0.286h0.475
				l32.234,1.141l14.833,0.475l90.141,3.138l14.833,11.315l3.899,3.043c0.095,0,0.095,0,0.095,0l0.38,0.38l6.371,4.849l0.381,0.286
				l6.941,5.325L812.536,501.989z"/>
		</g>
	</g>
	<g>
		<g>
			<polygon fill="#ECB687" points="697.958,654.127 692.538,666.108 692.538,666.203 691.682,668.009 689.115,673.81 
				650.415,759.292 472.509,928.735 271.497,1019.637 251.815,965.628 249.818,960.113 266.458,950.034 419.451,857.23 
				425.822,853.332 438.183,871.208 451.685,870.067 618.751,707.375 628.26,698.152 635.106,699.483 650.225,702.431 
				652.031,702.811 655.265,699.388 662.206,691.971 666.294,687.692 674.377,679.134 677.99,675.331 686.452,666.298 
				690.922,661.639 			"/>
		</g>
	</g>
	<g>
		<g>
			<polygon fill="#EEBFC0" points="956.115,320.195 865.64,407.835 837.946,469.69 896.947,489.684 			"/>
		</g>
	</g>
	<g>
		<g>
			<path fill="#EEBFC0" d="M478.404,508.265l-1.236,7.607l-3.043,17.971l-8.653,51.536c0,0-30.332,11.22-37.369,61.235
				c-0.19,1.521-0.38,3.043-0.475,4.564c-0.57,5.325-1.711,11.791-3.328,19.112c-0.095,0.19-0.19,0.38-0.19,0.57
				c-0.761,3.708-1.711,7.702-2.853,11.886c-17.971,70.554-66.179,194.451-66.179,194.451L288.993,917.8l-23.962,14.644l-0.285,0.19
				l101.076-319.109l21.299-19.968l41.648-38.89L478.404,508.265z"/>
		</g>
	</g>
	<g>
		<g>
			<path d="M817.1,512.924c-0.951,3.137-2.567,5.99-4.754,8.368c-3.328,3.708-7.416,6.371-11.695,8.368
				c-3.423,1.616-7.036,2.757-10.554,3.518c-0.856,0.285-1.616,0.38-2.377,0.57c-2.377,0.475-4.754,0.855-6.846,1.046
				c-0.76,0.095-1.521,0.19-2.282,0.285c-3.328,0.381-6.846,0.286-10.079,0.286c-7.797-0.095-14.548-0.19-18.827,3.993
				c-9.984,9.794-19.873,19.588-29.762,29.382c-10.174,9.984-20.253,19.968-30.428,29.952l-70.554,69.318
				c-0.286,0.285-0.57,0.57-0.856,0.761L432.763,850.955c-0.951,0.951-1.616,2.187-1.616,3.328
				c-0.095,3.138-0.286,11.41,13.882,11.981c1.427,0,2.853-0.57,3.994-1.616L617.99,700.244c0.19-0.19,0.286-0.286,0.476-0.381
				c5.134-4.754,12.741-5.8,19.017-2.757c1.141,0.475,2.187,1.141,3.233,1.902c2.092,1.616,5.23,1.521,7.227-0.381l0.475-0.38
				l4.565-4.469l6.751-6.561l4.564-4.469l7.417-7.227l1.711-1.616c0.095-0.19,0.19-0.286,0.38-0.38l2.377-2.758l8.178-9.699
				l4.279-5.134l4.849-5.705c0.286-0.286,0.476-0.666,0.666-1.046l1.617-3.328l3.518-7.036l6.466-13.027l17.686-35.562l2.852-5.706
				c5.23-10.935,15.119-31.283,32.614-35.182c3.328-0.76,6.656-0.665,9.984,0c3.994,0.761,7.892,2.568,11.315,4.849
				c5.706,3.899,10.269,9.509,12.076,15.214c2.282,6.846,0.57,13.788-0.951,19.873c-0.286,1.331-0.57,2.663-0.856,3.899
				l-0.761,3.423c-1.426,7.131-2.852,13.788-3.423,20.633c-0.855,11.981,0.856,25.198,5.325,40.411l1.046,3.423
				c2.663,9.033,5.515,18.352,3.994,28.336c-2.377,16.45-14.738,28.05-25.673,38.319c-4.849,4.565-9.413,8.843-13.027,13.312
				c-5.134,6.275-8.653,13.883-12.456,21.87c-1.711,3.613-3.423,7.322-5.325,10.935c-13.692,25.768-27.765,50.776-49.54,72.931
				l-3.233,3.233c-25.293,25.578-51.347,52.012-79.302,75.688c-13.788,11.601-29.191,22.06-44.12,32.139
				c-7.702,5.23-15.784,10.65-23.296,16.07c-22.82,16.45-39.365,35.182-57.052,56.196c-19.588,23.2-39.175,46.877-58.193,69.793
				c-9.698,11.695-19.397,23.391-29.191,35.087l-10.65,12.836c-1.236,1.427-2.852,2.187-4.564,2.187
				c-1.331,0-2.662-0.475-3.803-1.427c-2.472-2.092-2.853-5.8-0.761-8.272l10.745-12.836c4.374-5.325,8.843-10.65,13.217-15.974
				c5.325-6.371,10.555-12.837,15.88-19.208c19.017-22.916,38.7-46.592,58.193-69.793c18.352-21.679,35.372-40.982,59.238-58.193
				c7.702-5.515,15.785-11.03,23.581-16.259c14.644-9.889,29.857-20.158,43.074-31.379c27.575-23.391,53.533-49.635,78.541-74.928
				l3.233-3.328c20.729-20.919,34.326-45.166,47.543-70.078c1.807-3.328,3.328-6.751,5.04-10.459
				c3.993-8.272,7.987-16.83,13.977-24.247c4.089-5.134,9.224-9.889,14.073-14.548c10.459-9.794,20.348-19.017,22.155-31.378
				c1.046-7.322-1.236-15.119-3.708-23.201l-0.951-3.518c-4.849-16.64-6.751-31.188-5.8-44.595c0.57-7.607,2.187-15.024,3.613-22.25
				l0.761-3.328c0.285-1.427,0.666-2.852,0.951-4.374c1.236-4.754,2.377-9.699,1.236-13.312
				c-2.187-6.751-12.076-13.882-19.588-12.266c-0.286,0.095-0.666,0.19-0.951,0.286c-11.41,3.328-19.303,19.683-23.582,28.62
				l-3.137,6.181c-0.095,0.286-0.286,0.666-0.476,0.951l-28.526,57.527c-0.666,1.236-1.426,2.472-2.282,3.518l-13.407,15.879
				l-6.276,7.322c-0.38,0.475-0.76,0.855-1.236,1.236L656.12,707.09c-6.086,5.99-15.879,6.466-22.726,1.236
				c-2.092-1.711-5.23-1.521-7.226,0.38L457.296,873.11c-3.423,3.328-7.987,5.134-12.742,4.944
				c-14.929-0.57-24.152-8.368-25.103-20.824c-0.095-1.046-0.095-2.092-0.095-3.233c0.095-4.279,1.901-8.368,5.134-11.506
				l25.293-24.912l159.174-156.321l12.361-12.171l2.757-2.663l4.374-4.374l6.466-6.275l4.564-4.469l6.371-6.371l4.564-4.374
				l8.368-8.368l4.564-4.374l9.033-8.843l4.564-4.469l4.279-4.278c1.046-1.046,1.997-1.997,3.043-3.043
				c1.521-1.427,3.043-2.948,4.564-4.469c2.282-2.187,4.565-4.469,6.751-6.656c1.521-1.522,3.043-3.043,4.564-4.565
				c1.616-1.521,3.233-3.043,4.754-4.659c1.236-1.141,2.377-2.377,3.613-3.518l3.043-3.043c4.849-4.754,9.699-9.604,14.548-14.358
				c5.135-5.039,10.174-9.984,15.214-15.023c2.568-2.377,5.325-4.089,8.177-5.135c1.902-0.761,3.804-1.236,5.8-1.616
				c0.286,0,0.476-0.095,0.761-0.095c4.184-0.666,8.463-0.57,12.551-0.57c3.138,0.095,6.086,0.095,8.748-0.19
				c4.754-0.475,10.65-1.331,16.07-3.423c1.236-0.475,2.472-1.046,3.708-1.711c2.377-1.236,4.659-2.852,6.466-4.849
				c2.282-2.568,3.423-6.656,3.043-10.84c-0.095-1.141-0.38-2.187-0.666-3.233v-0.095c-0.475-1.331-1.141-2.568-1.902-3.613
				c-0.666-1.046-1.426-1.902-2.377-2.568c-1.141-0.855-2.567-1.616-3.993-2.282c-0.286-0.19-0.666-0.38-1.046-0.57
				c-0.095,0-0.095,0-0.19-0.095c-0.19-0.095-0.38-0.19-0.666-0.285c-5.61-2.472-12.647-4.184-18.636-5.61
				c-1.807-0.475-3.613-0.855-5.23-1.331c-10.459-2.757-21.679-4.754-33.565-6.085c-17.591-1.902-35.182-2.092-52.202-1.807
				c-1.807,0-3.613,0-5.325,0.095c-4.089,0-8.178,0.19-12.171,0.285c-2.472,0.095-4.849,0.095-7.227,0.19
				c-11.41,0.095-21.204,0.19-31.093,5.99c-7.322,4.279-13.788,10.079-20.634,16.165l-0.76,0.76
				c-30.618,27.385-62.852,54.009-93.945,79.777l-23.391,19.397c-3.423,2.853-6.846,5.706-10.269,8.463
				c-0.666,0.57-1.331,1.141-1.996,1.711c-2.472,2.092-6.181,1.807-8.272-0.76c-2.092-2.472-1.807-6.181,0.665-8.273
				c11.886-9.889,23.771-19.777,35.752-29.667c30.998-25.673,63.042-52.202,93.47-79.492l0.856-0.761
				c6.941-6.18,14.168-12.646,22.63-17.591c8.272-4.849,16.259-6.561,24.342-7.131c0.475-0.095,0.855-0.095,1.331-0.095
				c1.807-0.19,3.613-0.19,5.515-0.285h2.187c1.141-0.095,2.377-0.095,3.518-0.095c2.283,0,4.565,0,6.942-0.095
				c4.754-0.19,9.604-0.286,14.548-0.38c18.352-0.381,37.464-0.19,56.767,1.901c12.456,1.331,24.342,3.424,35.276,6.371
				c1.617,0.38,3.328,0.76,5.04,1.236c5.515,1.331,11.506,2.757,17.02,4.849c3.994,1.427,7.892,3.233,11.125,5.515
				c0.19,0.095,0.38,0.286,0.57,0.381c3.328,2.472,5.99,5.895,7.607,9.889c1.141,2.472,1.807,5.134,2.092,7.987
				C818.812,505.318,818.337,509.311,817.1,512.924z"/>
		</g>
	</g>
	<g>
		<g>
			<path d="M614.807,669.694c-0.077,0-0.154-0.002-0.233-0.004c-3.266-0.127-5.811-2.878-5.685-6.144l1.559-40.237l62.17-72
				l80.899-27.079c3.092-1.038,6.454,0.632,7.491,3.734c1.038,3.1-0.634,6.454-3.734,7.491l-77.82,26.05l-57.338,66.405
				l-1.397,36.095C620.595,667.193,617.971,669.694,614.807,669.694z"/>
		</g>
	</g>
	<g>
		<g>
			<path d="M689.02,471.657c-0.19,0.381-0.38,0.856-0.666,1.141c-0.475,0.951-1.236,1.617-2.187,2.092
				c-1.331,0.76-3.043,0.855-4.659,0.285l-0.666-0.19l-7.322-2.663l-16.926-6.086l-5.039-1.807l-1.427-0.475l-17.971-6.371
				l-25.484-9.128c-3.137-0.76-32.044-6.371-52.773,18.352l-0.666,0.666l-29.667,24.912l-49.445,41.458l-33.66,28.24l-0.855,0.38
				c-0.381,0.19-39.936,17.401-49.826,55.15c-0.475,1.807-0.951,3.803-1.236,5.705c-7.702,45.071-51.917,180.188-54.579,188.27
				c-1.141,4.565-14.833,56.576-44.975,106.211c-6.656,11.03-14.168,21.965-22.535,32.234c-3.899,4.849-7.987,9.604-12.361,14.168
				c-0.666,0.666-1.522,1.141-2.282,1.427c-0.666,0.286-1.331,0.38-1.997,0.38c-1.522,0-2.948-0.57-4.089-1.711
				c-2.377-2.187-2.472-5.99-0.19-8.368c7.036-7.321,13.502-15.214,19.493-23.486c39.556-54.389,57.337-123.136,57.527-123.992
				l0.095-0.38c0.476-1.426,46.592-142.154,54.199-186.749c0.381-2.282,0.951-4.564,1.522-6.751
				c1.996-7.797,5.134-14.833,8.748-21.014c12.361-21.109,31.758-33.565,41.648-38.89c2.472-1.331,4.374-2.283,5.42-2.758
				l42.978-36.037l67.987-57.052c26.339-30.903,63.042-22.25,64.658-21.87l0.57,0.19l72.455,25.959l2.663,0.951
				C688.545,465.191,690.161,468.614,689.02,471.657z"/>
		</g>
	</g>
	<g>
		<g>
			<path d="M775.728,559.547l-4.605-3.585l-5.843,1.58c-0.821-3.038-0.821-3.038,14.453-21.335l13.309-15.925
				c2.094-2.507,5.828-2.842,8.336-0.742c2.507,2.096,2.84,5.83,0.742,8.336C792.064,539.9,776.734,558.254,775.728,559.547z"/>
		</g>
	</g>
	<g>
		<g>
			<path d="M812.079,515.697c-1.491,0-2.982-0.559-4.133-1.682c-2.341-2.283-2.387-6.03-0.104-8.369
				c3.123-3.2,6.21-8.539,9.194-13.7c6.847-11.845,15.361-26.58,29.824-21.289c12.773,4.684,23.534,4.483,31.972-0.576
				c16.257-9.753,19.846-34.203,19.881-34.448l0.133-0.669l16.754-64.548c-1.406,0.998-2.859,1.894-4.372,2.663
				c-4.31,2.196-8.911,4.398-13.654,6.666c-29.891,14.296-63.769,30.5-64.925,63.991c-0.272,7.843-1.025,14.415-7.89,21.642
				l-21.992,23.152c-2.256,2.364-5.999,2.466-8.367,0.214c-2.37-2.25-2.466-5.998-0.214-8.367l21.99-23.15
				c3.946-4.154,4.408-7.111,4.643-13.899c1.403-40.663,40.351-59.292,71.647-74.262c4.651-2.223,9.163-4.381,13.39-6.533
				c6.044-3.079,11.513-9.768,16.525-16.536l18.149-24.512l-30.15,116.154c-0.57,3.636-5.423,30.574-25.46,42.594
				c-11.66,6.994-25.838,7.51-42.133,1.539c-4.774-1.757-9.227,5.242-15.503,16.099c-3.35,5.793-6.813,11.781-10.968,16.041
				C815.156,515.1,813.619,515.697,812.079,515.697z"/>
		</g>
	</g>
	<g>
		<g>
			<path d="M623.132,709.38c-1.474,0-2.95-0.547-4.096-1.647c-2.36-2.262-2.439-6.009-0.175-8.367l105.197-109.702
				c2.264-2.358,6.011-2.437,8.367-0.175c2.36,2.262,2.439,6.009,0.175,8.367L627.403,707.558
				C626.242,708.77,624.687,709.38,623.132,709.38z"/>
		</g>
	</g>
	<g>
		<g>
			<path d="M464.712,625.03c0.095,1.522-0.475,3.233-1.711,4.469c-0.38,0.285-31.949,32.044-30.903,67.225
				c0.095,3.233-2.472,5.99-5.8,6.086h-0.095c-3.233,0-5.895-2.567-5.99-5.8c-0.095-4.849,0.19-9.604,1.046-14.263
				c1.142-4.184,2.092-8.177,2.853-11.886c0-0.19,0.095-0.38,0.19-0.57c8.843-27.67,29.191-48.113,30.332-49.254
				c0.286-0.286,0.57-0.57,0.951-0.761c0,0,0,0,0.095,0c2.282-1.521,5.325-1.236,7.321,0.856
				C464.046,622.178,464.617,623.604,464.712,625.03z"/>
		</g>
	</g>
	<g>
		<g>
			<path d="M918.336,310.067c-0.046,0-0.094,0-0.141-0.002c-3.269-0.077-5.855-2.788-5.778-6.055
				c1.89-80.126,5.237-235.007,4.368-247.686c-0.224-3.262,2.239-6.086,5.5-6.31c3.281-0.225,6.086,2.243,6.31,5.5
				c1.123,16.384-4.121,239.292-4.345,248.773C924.176,307.509,921.54,310.067,918.336,310.067z"/>
		</g>
	</g>
	<g>
		<g>
			<path d="M884.304,349.012c-0.108,0-0.216-0.002-0.324-0.008c-3.266-0.177-5.768-2.965-5.593-6.229l14.371-266.438
				c0.177-3.266,2.992-5.757,6.229-5.593c3.266,0.177,5.768,2.965,5.593,6.229l-14.371,266.438
				C890.038,346.567,887.426,349.012,884.304,349.012z"/>
		</g>
	</g>
	<g>
		<g>
			<path d="M865.62,215.143c-0.162,0-0.328-0.006-0.493-0.019c-3.258-0.27-5.68-3.129-5.412-6.387l5.612-67.961
				c0.272-3.256,3.119-5.695,6.387-5.412c3.258,0.27,5.68,3.129,5.412,6.387l-5.612,67.961
				C871.257,212.804,868.668,215.143,865.62,215.143z"/>
		</g>
	</g>
	<g>
		<g>
			<path d="M672.53,562.257c8.016-3.236,16.031-6.473,24.047-9.709c3.487-1.408,1.964-7.135-1.573-5.707
				c-8.016,3.236-16.031,6.473-24.047,9.709C667.47,557.958,668.993,563.685,672.53,562.257L672.53,562.257z"/>
		</g>
	</g>
	<g>
		<g>
			<path d="M697.21,551.011c1.879,4.654,3.758,9.308,5.637,13.963c1.408,3.487,7.135,1.963,5.707-1.573
				c-1.879-4.654-3.758-9.308-5.637-13.963C701.509,545.951,695.782,547.474,697.21,551.011L697.21,551.011z"/>
		</g>
	</g>
	<g>
		<g>
			<path d="M686.813,554.307c3.132,7.757,6.264,15.514,9.396,23.271c1.408,3.487,7.135,1.963,5.707-1.573
				c-3.132-7.757-6.264-15.514-9.396-23.271C691.112,549.247,685.385,550.77,686.813,554.307L686.813,554.307z"/>
		</g>
	</g>
	<g>
		<g>
			<path d="M673.708,560.951c3.654,9.05,7.308,18.1,10.962,27.149c1.408,3.487,7.135,1.964,5.707-1.573
				c-3.654-9.05-7.308-18.1-10.962-27.149C678.007,555.891,672.28,557.415,673.708,560.951L673.708,560.951z"/>
		</g>
	</g>
	<g>
		<g>
			<path d="M661.08,571.012c3.863,9.567,7.725,19.134,11.588,28.701c1.408,3.487,7.135,1.963,5.707-1.573
				c-3.863-9.567-7.725-19.134-11.588-28.701C665.379,565.951,659.652,567.475,661.08,571.012L661.08,571.012z"/>
		</g>
	</g>
	<g>
		<g>
			<path d="M647.922,585.346c3.863,9.567,7.725,19.134,11.588,28.701c1.408,3.487,7.135,1.964,5.707-1.573
				c-3.863-9.567-7.725-19.134-11.588-28.701C652.221,580.285,646.494,581.809,647.922,585.346L647.922,585.346z"/>
		</g>
	</g>
	<g>
		<g>
			<path d="M635.227,598.591c3.549,8.791,7.099,17.583,10.648,26.374c1.408,3.487,7.135,1.964,5.707-1.573
				c-3.549-8.791-7.099-17.582-10.648-26.374C639.526,593.53,633.799,595.054,635.227,598.591L635.227,598.591z"/>
		</g>
	</g>
	<g>
		<g>
			<path d="M625.485,612.448c3.236,8.016,6.473,16.031,9.709,24.047c1.408,3.487,7.135,1.963,5.707-1.573
				c-3.236-8.016-6.473-16.031-9.709-24.047C629.784,607.387,624.057,608.911,625.485,612.448L625.485,612.448z"/>
		</g>
	</g>
	<g>
		<g>
			<path d="M614.804,623.977c2.923,7.24,5.846,14.48,8.769,21.72c1.408,3.487,7.135,1.963,5.707-1.573
				c-2.923-7.24-5.846-14.48-8.769-21.719C619.103,618.917,613.376,620.441,614.804,623.977L614.804,623.977z"/>
		</g>
	</g>
	<g>
		<g>
			<path d="M691.579,635.38c1.462,3.62,2.923,7.24,4.385,10.86c0.603,1.493,1.967,2.508,3.64,2.067
				c1.41-0.372,2.664-2.16,2.067-3.64c-1.462-3.62-2.923-7.24-4.385-10.86c-0.603-1.493-1.967-2.508-3.64-2.067
				C692.236,632.112,690.982,633.9,691.579,635.38L691.579,635.38z"/>
		</g>
	</g>
	<g>
		<g>
			<path d="M678.802,647.305c2.61,6.464,5.22,12.928,7.83,19.392c1.408,3.487,7.135,1.964,5.707-1.573
				c-2.61-6.464-5.22-12.928-7.83-19.392C683.102,642.245,677.374,643.768,678.802,647.305L678.802,647.305z"/>
		</g>
	</g>
	<g>
		<g>
			<path d="M665.249,659.543c2.401,5.947,4.802,11.894,7.203,17.841c1.408,3.487,7.135,1.963,5.707-1.573
				c-2.401-5.947-4.802-11.894-7.203-17.841C669.549,654.483,663.821,656.006,665.249,659.543L665.249,659.543z"/>
		</g>
	</g>
	<g>
		<g>
			<path d="M654.188,673.482c2.297,5.688,4.593,11.377,6.89,17.065c1.408,3.487,7.135,1.964,5.707-1.573
				c-2.297-5.688-4.593-11.377-6.89-17.065C658.487,668.422,652.76,669.945,654.188,673.482L654.188,673.482z"/>
		</g>
	</g>
	<g>
		<g>
			<path d="M643.275,685.556c2.192,5.43,4.385,10.86,6.577,16.29c1.408,3.487,7.135,1.963,5.707-1.573
				c-2.192-5.43-4.385-10.86-6.577-16.29C647.574,680.496,641.847,682.019,643.275,685.556L643.275,685.556z"/>
		</g>
	</g>
	<g>
		<g>
			<path d="M821.725,457.604c6.151,14.01,23.916,19.974,37.395,24.325c3.633,1.173,5.189-4.54,1.573-5.707
				c-11.947-3.857-28.391-9.155-33.857-21.605C825.308,451.138,820.207,454.146,821.725,457.604L821.725,457.604z"/>
		</g>
	</g>
	<g>
		<g>
			<path d="M884.796,416.397c-5.107,14.695-13.738,27.355-25.406,37.621c-2.865,2.521,1.334,6.694,4.185,4.185
				c12.443-10.95,21.49-24.587,26.928-40.233C891.756,414.365,886.04,412.815,884.796,416.397L884.796,416.397z"/>
		</g>
	</g>
	<g>
		<g>
			<path d="M879.296,402.112c-16.618,12.386-30.225,27.679-40.429,45.727c-1.877,3.32,3.234,6.306,5.111,2.987
				c9.681-17.124,22.528-31.844,38.305-43.603C885.302,404.972,882.354,399.832,879.296,402.112L879.296,402.112z"/>
		</g>
	</g>
	<g>
		<g>
			<path d="M353.055,995.276c27.425,16.134,56.885,26.176,88.425,30.364c3.764,0.5,3.727-5.424,0-5.919
				c-30.478-4.047-58.938-13.966-85.437-29.556C352.752,988.23,349.77,993.344,353.055,995.276L353.055,995.276z"/>
		</g>
	</g>
	<g>
		<g>
			<path d="M362.407,1024.751c6.545,2.78,13.09,5.56,19.634,8.34c3.466,1.472,6.485-3.625,2.987-5.11
				c-6.545-2.78-13.09-5.56-19.634-8.34C361.929,1018.169,358.909,1023.265,362.407,1024.751L362.407,1024.751z"/>
		</g>
	</g>
	<g>
		<g>
			<path d="M656.261,459.328c-40.109-8.067-74.99,10.161-104.841,35.597c-2.903,2.474,1.3,6.643,4.185,4.185
				c28.083-23.93,61.025-41.729,99.083-34.075C658.407,465.783,659.998,460.08,656.261,459.328L656.261,459.328z"/>
		</g>
	</g>
	<g>
		<g>
			<path d="M757.52,669.426c6.136,8.285,5.926,19.525-1.12,27.24c-2.564,2.808,1.61,7.005,4.185,4.185
				c8.683-9.508,9.783-23.966,2.046-34.412C760.388,663.412,755.249,666.36,757.52,669.426L757.52,669.426z"/>
		</g>
	</g>
	<g>
		<g>
			<path d="M701.897,781.6c-4.274,12.56-11.491,23.45-21.275,32.393c-2.818,2.575,1.377,6.752,4.185,4.185
				c10.544-9.638,18.198-21.49,22.797-35.005C708.834,779.56,703.119,778.009,701.897,781.6L701.897,781.6z"/>
		</g>
	</g>
	<g>
		<g>
			<path d="M566.015,919.996c-8.849,5.274-17.698,10.548-26.547,15.821c-3.269,1.948-0.296,7.067,2.987,5.111
				c8.849-5.274,17.698-10.548,26.547-15.821C572.271,923.158,569.298,918.039,566.015,919.996L566.015,919.996z"/>
		</g>
	</g>
	<g>
		<g>
			<path d="M681.223,552.385c-0.095,1.617-1.521,3.233-3.613,2.948c-0.761-0.095-1.521-0.285-2.282-0.57
				c-1.427-0.38-2.852-1.046-4.089-1.901c-7.512-4.849-12.647-15.594-15.974-23.106c-0.19-0.475-0.381-0.951-0.57-1.426
				c-1.427-3.233,3.043-6.086,4.849-3.518c0.095,0.19,0.19,0.38,0.286,0.57c2.092,4.944,4.564,9.794,7.607,14.263
				c2.758,4.089,5.895,8.748,10.935,9.794c0.285,0.095,0.57,0.19,0.855,0.19C680.843,549.913,681.413,551.148,681.223,552.385z"/>
		</g>
	</g>
	<g>
		<g>
			<path d="M755.318,524.095c-1.406-3.006-2.812-6.012-4.218-9.017c-1.612-3.447-6.716-0.446-5.11,2.987
				c1.406,3.006,2.812,6.012,4.218,9.017C751.82,530.529,756.923,527.528,755.318,524.095L755.318,524.095z"/>
		</g>
	</g>
	<g>
		<g>
			<path d="M612.672,619.859c-2.7-0.03-5.4-0.06-8.1-0.09c-3.81-0.042-3.812,5.876,0,5.919c2.7,0.03,5.4,0.06,8.1,0.09
				C616.482,625.82,616.485,619.901,612.672,619.859L612.672,619.859z"/>
		</g>
	</g>
	<g>
		<g>
			<path fill="#FFFFFF" d="M802.648,497.805c-5.04-1.331-87.669-22.915-143.105,27.005c-1.806-2.568-6.275,0.285-4.849,3.518
				c0.19,0.475,0.38,0.951,0.57,1.426L583.38,633.873c-4.565,0.475-9.224,1.141-13.788,1.807c-3.708,0.57-2.187,6.276,1.616,5.706
				c2.472-0.381,4.945-0.666,7.512-1.046l-128.936,177.24l-25.293,24.912c-3.233,3.138-5.04,7.227-5.134,11.506
				c0,1.141,0,2.187,0.095,3.233l-152.993,92.804c8.368-10.269,15.879-21.204,22.535-32.234l66.085-40.601
				c0,0,48.209-123.897,66.179-194.451c-0.855,4.659-1.141,9.413-1.046,14.263c0.095,3.233,2.758,5.8,5.99,5.8h0.095
				c3.328-0.095,5.895-2.852,5.8-6.086c-1.046-35.181,30.523-66.94,30.903-67.225c1.236-1.236,1.807-2.948,1.711-4.469l16.64-19.017
				c3.424-2.757,6.846-5.61,10.269-8.463l29.476,31.569l125.704-121.044l127.51-22.345L802.648,497.805z"/>
			<path d="M614.187,637.202c-1.427,0.095-2.852,0.095-4.279,0.285c-10.459,0.57-20.824,1.522-31.188,2.852
				c-2.567,0.381-5.039,0.666-7.512,1.046c-3.803,0.57-5.325-5.135-1.616-5.706c4.564-0.666,9.223-1.331,13.788-1.807
				c8.938-1.046,17.876-1.902,26.814-2.282c1.331-0.19,2.662-0.19,3.993-0.285C617.99,631.116,617.99,637.011,614.187,637.202z"/>
		</g>
	</g>
</g>
</svg>
