<?xml version="1.0" encoding="utf-8"?>
<!-- Designed by Vexels.com - 2019 All Rights Reserved - https://vexels.com/terms-and-conditions/  -->
<svg version="1.1" id="Capa_1" xmlns="http://www.w3.org/2000/svg" xmlns:xlink="http://www.w3.org/1999/xlink" x="0px" y="0px"
	 viewBox="0 0 1200 1200" enable-background="new 0 0 1200 1200" xml:space="preserve">
<g>
	<path fill="#5C567C" d="M678.598,916.296c-0.864-2.654-3.161-4.588-5.92-4.989l-45.675-6.636l-20.429-41.388
		c-1.232-2.502-3.781-4.087-6.574-4.087c-2.793,0-5.342,1.585-6.574,4.087l-20.429,41.388l-45.675,6.636
		c-2.76,0.401-5.056,2.335-5.92,4.989c-0.859,2.654-0.143,5.571,1.857,7.519l33.052,32.217l-7.806,45.489
		c-0.473,2.755,0.659,5.533,2.917,7.176c2.268,1.638,5.251,1.853,7.725,0.559L600,987.776l40.848,21.479
		c1.074,0.563,2.244,0.84,3.414,0.84c1.518,0,3.032-0.473,4.311-1.399c2.258-1.643,3.39-4.421,2.917-7.176l-7.801-45.489
		l33.052-32.217C678.741,921.867,679.458,918.951,678.598,916.296z"/>
	<polygon fill="#5C567C" points="54.471,54.472 54.471,473.805 91.317,473.805 91.317,91.318 1108.683,91.318 1108.683,473.805 
		1145.528,473.805 1145.528,54.472 	"/>
	<polygon fill="#5C567C" points="1108.683,1108.682 91.317,1108.682 91.317,827.83 54.471,827.83 54.471,1145.528 
		1145.528,1145.528 1145.528,827.83 1108.683,827.83 	"/>
	<path fill="#5C567C" d="M355.969,270.448c-8.343-8.439-18.042-15.171-29.091-20.196c-11.056-5.021-22.911-7.638-35.573-7.837
		h-50.947v221.271h50.947v-35.272c12.662-0.196,24.517-2.761,35.573-7.687c11.05-4.923,20.748-11.606,29.091-20.045
		c8.336-8.443,14.87-18.239,19.595-29.394c4.719-11.154,7.083-23.061,7.083-35.723c0-12.662-2.365-24.569-7.083-35.723
		C370.839,288.687,364.305,278.891,355.969,270.448z M328.536,351.449c-2.111,5.044-4.975,9.43-8.593,13.16
		c-3.616,3.732-7.89,6.758-12.811,9.077c-4.928,2.322-10.202,3.585-15.827,3.781v-84.106c5.625,0.203,10.899,1.462,15.827,3.781
		c4.921,2.322,9.195,5.345,12.811,9.077c3.618,3.729,6.482,8.119,8.593,13.16c2.11,5.044,3.165,10.392,3.165,16.035
		C331.701,341.061,330.646,346.409,328.536,351.449z"/>
	<polygon fill="#5C567C" points="420.327,242.111 420.327,463.686 552.066,463.686 552.066,412.739 471.274,412.739 
		471.274,242.111 	"/>
	<path fill="#5C567C" d="M640.995,242.415L565.63,463.686h53.963l9.044-26.829h69.638l8.74,26.829h53.662L689.23,242.415H640.995z
		 M642.771,392.609l21.74-73.759l20.833,73.759H642.771z"/>
	<polygon fill="#5C567C" points="910.803,371.74 838.754,243.017 783.283,243.017 783.283,463.686 834.23,463.686 834.23,334.662 
		906.583,463.686 961.75,463.686 961.75,242.415 910.803,242.415 	"/>
	<g>
		<path fill="#5C567C" d="M111.333,775.004c5.685-0.045,13.203,1.152,18.606-0.891c8.732-3.303,9.219-14.202,1.277-19.01
			c-7.112-4.305-16.665-0.996-24.148-0.909c-4.377,0.05-16.711,1.511-18.77-2.008c-3.358-5.749-2.149-18.391-2.919-25.245
			c-0.866-7.712-0.049-15.923-0.685-23.72c10.409-0.671,17.552-2.99,27.885-3.291c6.691-0.195,16.849,2.946,20.999-4.416
			c1.99-3.531,0.832-9.399-1.331-12.605c-3.631-5.385-9.447-5.359-15.351-5.471c-12.445-0.235-21.322,0.817-33.67,2.189
			c-1.465-21.276-3.311-42.545-4.581-63.838c-0.71-11.901-1.046-23.817-1.272-35.736c-0.111-5.811-0.214-14.973-0.157-20.785
			c0.063-6.515,0.621-6.735,6.825-8.051c10.664-2.262,21.821,0.09,32.659-0.983c6.041-0.598,13.6,1.014,18.194-3.799
			c4.847-5.078,2.337-14.012-2.98-17.58c-4.959-3.327-8.601-3.453-14.358-3.453c-13.126,0-25.895-0.899-38.673,1.835
			c-10.684,2.286-24.894-2.127-27.904,11.141c-2.127,9.375-0.12,19.294-0.127,28.766c-0.033,42.432,3.241,85.036,5.95,127.273
			c0.585,9.118,2.204,17.819,1.898,26.662c-0.383,11.086,1.594,22.406,2.595,33.434c0.7,7.708,1.106,15.395,9.098,18.921
			C83.334,779.143,97.575,775.113,111.333,775.004z"/>
		<path fill="#5C567C" d="M233.786,539.213c-4.321,6.63-3.774,17.054-4.495,24.626c-0.909,9.545-1.868,19.096-3.052,28.611
			c-4.537,36.454-10.93,76.039-16.939,112.275c-6.377-44.082-15.27-91.303-22.936-135.173c-1.977-11.315-2.202-30.607-16.511-32.993
			c-16.521-2.754-15.758,12.534-13.58,23.673c3.648,18.663,5.899,37.515,9.182,56.139c2.947,16.711,5.733,33.488,8.758,50.203
			c3.954,21.848,5.803,44.619,11.077,66.128c2.453,10.003,4.61,19.704,6.837,29.774c2.498,11.293,10.478,17.376,22.075,13.474
			c10.43-3.509,12.072-19.022,14.262-27.961c3.803-15.529,6.857-31.233,9.689-46.964c5.068-28.15,10.035-56.31,14.056-84.616
			c2.224-15.659,3.449-31.409,5.07-47.131c0.855-8.293,4.564-20.492,0.988-28.311C254.114,532.768,239.074,531.099,233.786,539.213z
			"/>
		<path fill="#5C567C" d="M306.14,554.566c9.974-2.115,20.093-3.847,30.29-4.363c6.257-0.317,15.744,1.28,20.563-3.768
			c4.848-5.078,2.337-14.012-2.98-17.58c-4.958-3.327-11.95-3.453-17.707-3.453c-16.951,0-33.29,3.238-50.076,4.113
			c-2.56,0.134-6.004-0.68-8.432,0.317c-8.21,3.372-4.841,30.54-4.846,37.31c-0.01,13.136,2.467,25.075,2.467,38.211
			c0,15.714,0.358,36.203,2.01,51.927c3.422,32.559,2.961,65.381,6.043,97.955c0.712,7.528,1.252,14.771,9.02,18.198
			c12.943,5.71,27.183,1.68,40.941,1.57c5.685-0.045,13.203,1.152,18.606-0.891c8.732-3.303,9.219-14.202,1.277-19.01
			c-7.112-4.305-16.665-0.996-24.148-0.909c-4.378,0.05-16.716,1.512-18.771-2.01c-2.488-4.269-4.064-48.934-3.604-48.964
			c10.409-0.671,17.551-2.99,27.885-3.291c6.691-0.195,16.849,2.946,20.999-4.416c1.99-3.531,0.832-9.399-1.331-12.605
			c-3.631-5.385-9.447-5.359-15.35-5.471c-12.445-0.235-21.322,0.817-33.67,2.189c-2.283-33.166-5.221-66.322-5.854-99.574
			c-0.111-5.811-0.214-11.624-0.157-17.436C299.379,556.104,299.936,555.882,306.14,554.566z"/>
		<path fill="#5C567C" d="M378.062,540.779c-2.334,3.682-1.122,8.761-0.985,12.995c0.267,8.275,0.48,16.573,0.544,24.851
			c0.11,14.04,0.73,27.935,2.024,41.917c2.465,26.631,4.312,53.475,3.492,80.228c-0.501,16.345-0.441,32.696,0.799,49.012
			c0.794,10.445,1.198,26.313,15.734,25.11c14.587-1.208,14.073-13.349,12.691-24.843c-1.366-11.361-1.629-22.497-1.644-33.964
			c-0.005-3.866-1.986-20.857,4.514-13.26c3.283,3.837,5.893,11.562,7.637,16.292c2.509,6.809,5.406,13.626,8.47,20.204
			c4.913,10.549,8.213,28.059,18.112,34.974c10.944,7.645,28.191-2.725,20.4-16.078c-1.81-2.007-2.253-5.219-3.265-7.723
			c-2.257-5.587-4.875-11.054-7.232-16.604c-4.544-10.701-9.499-21.242-14.297-31.832c-0.932-2.057-4.658-7.489-4.418-9.751
			c0.346-3.259,10.037-9.248,12.716-12.572c8.971-11.129,12.625-24.456,13.883-38.436c2.446-27.193,2.698-65.306-14.996-88.011
			c-8.934-11.464-22.242-16.076-36.332-17.277C406.662,535.223,384.062,531.313,378.062,540.779z M438.058,594.988
			c2.878,22.051,7.331,59.315-11.962,75.855c-3.137,3.255-9.937,8.406-14.564,8.158c-0.997-40.514-6.733-80.799-6.733-121.363
			c8.868,0.612,14.445-1.403,21.764,5.587C435.186,571.462,436.585,583.707,438.058,594.988z"/>
		<path fill="#5C567C" d="M575.878,554.824c-0.485-12.317-1.435-22.654-16.581-20.892c-8.417,0.979-11.228,2.843-11.201,11.655
			c0.023,7.455,0.232,14.932,0.451,22.382c0.495,16.861,0.723,33.721,1.171,50.582c0.308,11.57,1.856,23.946,0.445,35.465
			c-0.967,7.896-2.065,20.022-10.636,22.494c-25.559,7.372-25.757-46.943-26.288-61.478c-0.603-16.488,0.172-32.936,0.263-49.422
			c0.039-7.052,1.926-20.487-0.651-27.367c-2.122-5.664-10.153-5.649-15.361-5.323c-12.469,0.78-10.804,12.244-11.244,22.098
			c-1.511,33.892-3.204,69.604,4.263,102.95c3.355,14.984,7.957,32.869,23.553,39.187c13.365,5.414,25.46,1.234,38.298-1.932
			c0.53,9.333,0.76,18.917,1.02,28.233c0.232,8.318-0.155,20.879-7.316,26.761c-4.109,3.375-11.681,3.852-16.769,1.977
			c-4.182-1.542-6.901-5.571-9.268-9.255c-2.455-3.819-3.187-9.926-6.018-13.098c-9.283-10.398-23.107,1.673-23.007,12.41
			c0.123,13.243,11.057,28.454,23.702,32.686c8.276,2.77,21.71,2.547,29.742-0.219c10.879-3.746,19.892-6.971,26.906-17.01
			c8.85-12.669,8.971-27.117,9.093-42.021c0.13-15.973-0.689-31.891-1.523-47.84c-1.511-28.387-2.736-56.975-2.797-85.399
			C576.106,573.243,576.24,564.028,575.878,554.824z"/>
		<path fill="#5C567C" d="M694.432,540.952c-5.628-9.664-22.697-8.176-32.31-8.594c-14.877-0.646-29.862-1.443-44.752-0.883
			c-8.342,0.313-30.316-0.277-29.277,12.727c0.939,11.749,21.461,10.382,29.711,10.871c3.024,0.179,6.128-0.047,9.132,0.321
			c4.457,0.546,2.769-0.72,3.998,2.599c2.206,5.957,0.477,15.971,0.684,22.401c0.596,18.441,0.472,36.949,0.183,55.396
			c-0.364,23.125,0.214,46.605-1.439,69.562c-1.004,13.946-0.104,27.964,0.158,41.921c0.164,8.717-3.046,26.362,8.121,29.219
			c7.765,1.986,19.625-0.509,20.447-9.375c0.805-8.673-0.262-19.233-0.845-27.865c-1.541-22.844,0.57-46.236,1.288-69.112
			c1.1-35.072,0.172-69.869-1.053-104.917c-0.089-2.544-1.047-7.396,0.697-8.591c1.893-1.297,9.01-0.08,11.454,0
			C680.371,556.953,702.788,557.71,694.432,540.952z"/>
		<path fill="#5C567C" d="M736.5,586.576c-0.314-12.856,0.817-25.758,0.488-38.536c-0.169-6.565-2.49-11.479-8.757-14.391
			c-5.63-2.616-12.888-2.767-16.171,3.074c-5.431,9.662-2.884,25.932-2.843,36.445c0.058,14.703,0.927,29.269,1.625,43.943
			c0.969,20.365,1.54,40.622,2.735,60.952c1.394,23.721,1.492,47.475,3.011,71.193c0.699,10.913-1.182,28.216,14.455,27.544
			c12.167-0.523,11.918-9.015,12.199-18.625c0.291-9.959-0.28-19.927-0.928-29.861c-0.33-5.056-2.698-13.522-0.675-18.173
			c2.137-4.847,43.372-11.328,47.213-8.032c5.004,4.294,1.522,22.118,1.937,28.402c0.73,11.043-0.871,22.056-0.257,33.061
			c0.399,7.151,2.928,10.478,10.472,11.52c7.591,1.048,12.749-0.842,14.996-8.478c4.06-13.793,2.158-32.427,0.752-46.416
			c-2.405-47.623-5.873-94.746-4.652-142.594c0.257-10.065,2.477-24.876-2.137-34.15c-4.376-8.795-18.343-9.282-22.172,0.086
			c-4.545,11.119-2.757,27.008-3.002,38.786c-0.28,13.478-0.64,26.969-0.184,40.437c0.619,18.316-0.079,37.888,2.231,56.216
			c-15.306-0.096-30.356,3.286-45.501,5.122C740.448,651.572,737.296,619.13,736.5,586.576z"/>
		<path fill="#5C567C" d="M842.903,758.21c-7.292,6.734-1.735,16.533,6.568,18.267c8.08,1.687,16.26,0.449,24.297-0.82
			c5.445-0.86,12.748,0.071,17.693-2.315c9.369-4.522,8.141-18.267-2.669-20.582c-3.082-0.657-6.281-0.61-9.417-0.579
			c0.892-26.082,0.676-52.465-0.185-78.538c-0.65-19.686-1.72-39.356-2.811-59.022c-0.56-10.102-1.131-20.203-1.651-30.307
			c-0.262-5.08-3.511-18.039-1.018-22.681c1.822-3.392,11.05-1.2,14.954-4.678c3.768-3.358,3.574-10.26,1.421-14.51
			c-6.1-12.04-26.156-7.275-36.58-6.448c-4.774,0.379-11.572-0.289-16.117,1.508c-6.71,2.654-7.798,12.092-2.988,17.133
			c2.526,2.648,10.825,4.818,12.332,7.179c4.194,6.58,0.217,22.06,0.73,29.562c2.021,29.549,1.938,59.434,5.039,88.883
			c2.126,20.19-1.68,40.277-0.061,60.219c0.294,3.619,1.835,9.385-0.487,12.56C850.024,755.678,845.9,755.442,842.903,758.21z"/>
		<path fill="#5C567C" d="M945.043,554.268c-5.156-10.894-8.059-22.424-22.061-20.447c-13.599,1.919-11.307,11.628-10.378,22.306
			c1.126,12.944,1.912,25.909,3.019,38.857c1.532,17.921,1.963,35.814,1.98,53.801c0.022,22.773-0.12,45.548,0.011,68.322
			c0.071,12.38-4.72,68.531,19.914,58.178c10.882-4.573,9.016-14.892,8.33-24.854c-0.854-12.379-1.24-24.748-1.478-37.155
			c-0.623-32.486,0.768-65.057-0.82-97.518c9.142,15.821,18.129,31.936,26.28,48.4c3.56,7.189,7.648,14.707,11.827,21.523
			c4.921,8.026,14.354,16.013,17.138,24.929c2.713,8.688,1.121,19.821,1.712,28.886c0.613,9.394,0.446,21.357,3.74,30.272
			c3.193,8.641,12.125,8.248,19.486,4.52c9.649-4.887,6.417-15.914,5.921-24.838c-3.012-52.826-4.217-105.723-6.652-158.609
			c-0.628-13.631-0.93-27.287-2.125-40.887c-0.928-10.56-1.065-24.575-14.321-25.709c-14.875-1.273-15.607,10.749-13.994,21.852
			c1.383,9.516,1.783,19.122,2.322,28.722c1.578,28.085,2.755,56.252,3.495,84.369c-12.424-23.921-25.465-47.532-37.804-71.501
			C954.939,576.717,950.312,565.403,945.043,554.268z"/>
		<path fill="#5C567C" d="M1127.152,622.203c6.25,3.594,16.255,6.697,20.337-1.095c3.44-6.568,2.672-19.324,1.625-26.01
			c-1.794-20.713-9.238-43.649-30.385-52.055c-11.116-4.418-31.443-4.862-41.877,1.628c-32.536,20.239-29.429,60.752-31.523,93.533
			c-1.087,17.01-1.072,33.638-0.175,50.404c0.816,15.258,4.139,30.535,6.142,45.684c2.223,16.815,6.565,29.364,22.446,37.748
			c9.443,4.985,21.159,5.531,31.468,3.883c21.761-3.48,34.736-18.971,39.193-39.965c2.13-10.031,2.22-20.075,0.949-30.222
			c-0.967-7.716-0.837-20.275-9.618-23.294c-5.759-1.98-13.283-1.221-19.252-1.285c-5.945-0.064-13.553-1.065-19.195,0.827
			c-6.754,2.264-10.365,10.636-5.706,16.664c4.57,5.913,14.916,4.996,21.425,5.018c6.323,0.021,6.538,1.871,7.193,8.493
			c0.845,8.539-1.286,19.94-4.524,27.869c-6.082,14.894-32.47,20.724-35.844,1.504c-3.172-18.068-6.786-37.176-7.932-55.396
			c-0.905-14.384,0.047-29.238,0.637-43.589c0.827-20.131-1.762-47.884,8.967-65.872c5.018-8.413,13.156-13.382,23.044-13.188
			c10.461,0.206,14.995,11.439,16.449,20.339c1.415,8.659,1.578,17.388,1.578,26.129
			C1122.572,616.137,1121.419,618.907,1127.152,622.203z"/>
	</g>
</g>
</svg>
