<?xml version="1.0" encoding="utf-8"?>
<!-- Designed by Vexels.com - 2020 All Rights Reserved - https://vexels.com/terms-and-conditions/  -->
<svg version="1.1" id="Layer_1" xmlns="http://www.w3.org/2000/svg" xmlns:xlink="http://www.w3.org/1999/xlink" x="0px" y="0px"
	 viewBox="0 0 1200 1200" enable-background="new 0 0 1200 1200" xml:space="preserve">
<g>
	<path fill="none" d="M436.313,724.749c7.032-1.914,14.151-3.961,21.356-6.148C450.465,720.787,443.345,722.835,436.313,724.749z"/>
	<path fill="none" d="M457.67,718.6c16.658-5.056,33.788-10.887,51.338-17.523C491.458,707.713,474.328,713.544,457.67,718.6z"/>
	<polygon fill="none" points="646.663,753.394 646.663,753.393 624.438,696.894 	"/>
	<path fill="none" d="M608.487,656.345c-8.236,4.295-16.398,8.405-24.486,12.338C592.089,664.75,600.251,660.64,608.487,656.345
		L608.487,656.345z"/>
	<path fill="none" d="M760.422,689.375c-6.729,4.345-13.463,8.594-20.201,12.745C746.959,697.969,753.693,693.721,760.422,689.375z"
		/>
	<path fill="none" d="M551.756,683.593c6.672-2.935,13.388-5.963,20.17-9.143C565.144,677.63,558.428,680.659,551.756,683.593z"/>
	<path fill="none" d="M529.529,693.011c4.504-1.836,9.034-3.728,13.59-5.676C538.562,689.283,534.032,691.175,529.529,693.011z"/>
	<polygon fill="none" points="460.571,817.918 460.571,817.918 435.476,752.617 	"/>
	<polygon fill="none" points="659.164,747.266 659.164,747.266 620.822,649.796 	"/>
	<path fill="none" d="M425.832,727.521L425.832,727.521c3.472-0.891,6.965-1.815,10.481-2.772
		C432.797,725.706,429.304,726.63,425.832,727.521z"/>
	<path fill="none" d="M778.801,546.525c0.82-0.631,1.636-1.245,2.457-1.879l39.587,103.013c-6.697,4.924-13.4,9.753-20.109,14.484
		c6.709-4.732,13.412-9.56,20.109-14.484l-39.587-103.013C780.437,545.28,779.621,545.895,778.801,546.525z"/>
	<path fill="none" d="M951.562,544.271c-10.104,7.921-20.504,16.162-31.149,24.668C931.058,560.433,941.458,552.192,951.562,544.271
		z"/>
	<path fill="none" d="M974.795,526.196L974.795,526.196c-7.585,5.854-15.328,11.877-23.233,18.075
		C959.467,538.073,967.21,532.05,974.795,526.196z"/>
	<path fill="none" d="M756.674,563.173c2.113-1.556,4.228-3.12,6.347-4.7C760.902,560.054,758.787,561.618,756.674,563.173z"/>
	<path fill="none" d="M727.687,583.91c2.053-1.424,4.111-2.87,6.171-4.318C731.798,581.04,729.739,582.485,727.687,583.91z"/>
	<polygon fill="none" points="934.991,422.62 934.991,422.62 963.745,497.442 	"/>
	<path fill="none" d="M1019.665,359.918c6.369-4.536,12.571-8.908,18.611-13.121C1032.236,351.01,1026.034,355.382,1019.665,359.918
		z"/>
	<path fill="none" d="M412.252,730.869c-9.436,2.233-18.706,4.234-27.797,6.014C393.546,735.103,402.816,733.102,412.252,730.869
		L412.252,730.869z"/>
	<path fill="none" d="M1060.281,462.481c-1.417,1.014-2.847,2.043-4.279,3.072C1057.433,464.524,1058.864,463.495,1060.281,462.481z
		"/>
	<path fill="none" d="M946.488,413.85c7.587-5.761,14.993-11.336,22.221-16.732C961.481,402.514,954.075,408.09,946.488,413.85z"/>
	<path fill="none" d="M968.709,397.118c7.229-5.396,14.28-10.613,21.157-15.656C982.988,386.506,975.937,391.722,968.709,397.118z"
		/>
	<path fill="none" d="M294.175,833.162c-0.202-0.009-0.403-0.019-0.605-0.028C293.772,833.143,293.973,833.153,294.175,833.162z"/>
	<path fill="none" d="M328.449,833.585c-2.475,0.046-4.925,0.076-7.347,0.09C323.524,833.661,325.974,833.63,328.449,833.585z"/>
	<path fill="none" d="M1038.276,346.797c18.121-12.64,34.782-23.852,50.099-33.797
		C1073.058,322.945,1056.397,334.157,1038.276,346.797z"/>
	<path fill="none" d="M989.866,381.462c6.879-5.043,13.583-9.913,20.12-14.615C1003.449,371.549,996.745,376.419,989.866,381.462z"
		/>
	<path fill="none" d="M118.482,729.098c2.6,0.814,5.415,1.66,8.442,2.523C123.897,730.758,121.082,729.912,118.482,729.098z"/>
	<path fill="none" d="M126.924,731.621c3.027,0.863,6.265,1.743,9.71,2.627C133.189,733.364,129.95,732.484,126.924,731.621z"/>
	<path fill="none" d="M253.362,829.553L253.362,829.553l-33.25-81.998c-28.899-2.144-53.249-6.273-72.525-10.659
		c19.276,4.386,43.625,8.515,72.525,10.659L253.362,829.553z"/>
	<path fill="none" d="M188.922,814.796c-5.806-1.981-11.127-4.02-16.024-6.064C177.794,810.776,183.117,812.815,188.922,814.796z"/>
	<path fill="none" d="M1099.158,435.291c-2.622,1.788-5.273,3.606-7.953,5.455C1093.885,438.898,1096.536,437.079,1099.158,435.291z
		"/>
	<path fill="none" d="M262.875,749.074c-9.501,0.014-18.646-0.203-27.423-0.609l0,0
		C244.229,748.871,253.374,749.088,262.875,749.074z"/>
	<path fill="none" d="M588.602,778.843c-11.624,4.611-23.254,8.934-34.889,12.969C565.347,787.777,576.978,783.454,588.602,778.843z
		"/>
	<path fill="none" d="M812.262,520.007c22.655-18.541,44.164-35.866,64.596-52.067C856.426,484.141,834.917,501.466,812.262,520.007
		c-3.278,2.683-6.546,5.326-9.807,7.94C805.716,525.333,808.984,522.69,812.262,520.007z"/>
	<path fill="none" d="M640.534,756.285c-6.87,3.237-13.743,6.378-20.619,9.414C626.791,762.662,633.664,759.522,640.534,756.285z"/>
	<path fill="none" d="M603.669,772.683c-5.021,2.1-10.043,4.167-15.068,6.16C593.626,776.85,598.648,774.783,603.669,772.683z"/>
	<path fill="none" d="M252.265,789.927l16.812,41.462c4.205,0.412,8.526,0.77,12.947,1.078c-4.421-0.308-8.742-0.666-12.947-1.078
		L252.265,789.927z"/>
	<path fill="#181918" d="M161.324,859.145c-7.64-3.46-14.563-8.239-20.509-14.013c3.36,53.34,61.355,89.017,166.013,90.328
		c172.624,2.162,406.663-89.484,518.647-205.254c10.556-10.913,19.589-21.603,27.182-32.021
		c-88.663,64.988-176.085,116.049-262.302,147.412C341.366,936.17,215.673,883.758,161.324,859.145z"/>
	<path fill="#181918" d="M802.455,527.947c-3.261,2.614-6.515,5.198-9.764,7.763l39.722,103.364
		c14.523-10.93,29.02-22.294,43.482-34.131c15.364-12.574,30.176-24.543,44.518-36.004c10.645-8.506,21.045-16.746,31.149-24.668
		c7.905-6.198,15.648-12.221,23.233-18.075l-11.05-28.754l-28.754-74.823c-9.174,7.021-18.599,14.301-28.285,21.851
		c-9.686,7.55-19.633,15.369-29.849,23.47c-20.432,16.201-41.941,33.526-64.596,52.067
		C808.984,522.69,805.716,525.333,802.455,527.947z"/>
	<path fill="#181918" d="M167.898,806.586c1.606,0.714,3.285,1.43,4.999,2.146c4.897,2.044,10.219,4.083,16.024,6.064
		c1.567,0.535,3.168,1.065,4.804,1.591c16.352,5.254,36.115,9.985,59.636,13.166l-33.25-81.998
		c-28.899-2.144-53.249-6.273-72.525-10.659c-3.855-0.877-7.508-1.765-10.953-2.648c-3.445-0.884-6.683-1.764-9.71-2.627
		c-3.027-0.863-5.842-1.708-8.442-2.523l21.998,62.832C147.969,796.722,157.038,801.753,167.898,806.586z"/>
	<path fill="#181918" d="M412.252,730.869c-9.436,2.233-18.706,4.234-27.797,6.014c-9.092,1.78-18.006,3.338-26.73,4.684
		c-23.086,3.563-44.878,5.693-65.286,6.73c-5.102,0.259-10.118,0.45-15.045,0.578c-2.464,0.064-4.906,0.112-7.326,0.145
		c-2.42,0.033-4.818,0.051-7.193,0.054c-9.501,0.014-18.646-0.203-27.423-0.609l16.812,41.462l16.813,41.462
		c4.205,0.412,8.526,0.77,12.947,1.078c3.771,0.263,7.616,0.487,11.546,0.668c0.202,0.009,0.403,0.019,0.605,0.028
		c4.254,0.19,8.598,0.332,13.039,0.419c4.53,0.088,9.158,0.121,13.887,0.094c2.422-0.014,4.872-0.044,7.347-0.09
		c16.853-0.311,34.933-1.373,54.304-3.357c21.334-2.185,42.679-5.37,64.027-9.514L412.252,730.869z"/>
	<path fill="#181918" d="M1038.276,346.797c-6.04,4.213-12.243,8.585-18.611,13.121c-3.185,2.268-6.41,4.578-9.679,6.929
		c-6.537,4.702-13.241,9.572-20.12,14.615c-6.878,5.043-13.929,10.26-21.157,15.656c-7.228,5.396-14.634,10.971-22.221,16.732
		l39.783,103.525c7.444-5.697,14.728-11.224,21.855-16.585c16.823-12.654,32.752-24.363,47.876-35.238
		c1.432-1.029,2.862-2.058,4.279-3.072c10.728-7.678,21.023-14.908,30.924-21.735c2.68-1.848,5.331-3.667,7.953-5.455
		c3.001-2.047,5.964-4.056,8.889-6.026c9.719-6.545,19.044-12.691,27.942-18.413c-6.789-16.027-13.492-32.089-19.794-48.317
		c-7.006-18.046-13.587-36.245-20.273-54.403c-2.479,1.588-4.995,3.21-7.547,4.868
		C1073.058,322.945,1056.397,334.157,1038.276,346.797z"/>
	<path fill="#181918" d="M421.075,839.293c-12.308,1.899-24.604,3.478-36.911,4.738c-120.76,12.369-194.436-9.344-236.451-31.604
		c4.264,11.228,10.444,22.808,21.124,27.645c70.108,31.75,333.234,108.955,721.915-202.529c31.785-25.472,60.837-49.193,88.1-70.404
		c69.587-54.139,125.767-94.012,171.147-123.256c-2.837-6.726-5.692-13.444-8.55-20.161
		c-62.284,40.269-145.566,100.952-256.768,191.959C732.582,740.158,576.802,815.265,421.075,839.293z"/>
	<path fill="#181918" d="M781.258,544.646c-0.821,0.634-1.637,1.249-2.457,1.879c-5.28,4.059-10.54,8.041-15.779,11.948
		c-2.119,1.58-4.235,3.144-6.347,4.7c-7.65,5.633-15.256,11.104-22.817,16.419c-2.06,1.448-4.118,2.893-6.171,4.318
		c-29.957,20.788-59.198,39.127-87.635,55.25c-6.451,3.658-12.862,7.202-19.23,10.636l38.342,97.47
		c13.539-6.743,27.064-13.878,40.575-21.403c6.755-3.762,13.507-7.622,20.253-11.58c6.748-3.957,13.49-8.011,20.229-12.163
		c6.738-4.151,13.472-8.4,20.201-12.745c13.458-8.691,26.897-17.769,40.315-27.232c6.709-4.732,13.412-9.56,20.109-14.484
		L781.258,544.646z"/>
	<path fill="#181918" d="M608.487,656.345c-8.236,4.295-16.398,8.405-24.486,12.338c-4.044,1.966-8.069,3.888-12.075,5.767
		c-6.782,3.18-13.498,6.209-20.17,9.143c-2.89,1.271-5.768,2.516-8.636,3.742c-4.557,1.947-9.087,3.84-13.59,5.676
		c-6.904,2.815-13.745,5.504-20.521,8.066c-17.55,6.636-34.68,12.467-51.338,17.523c-7.205,2.187-14.324,4.234-21.356,6.148
		c-3.516,0.957-7.01,1.881-10.481,2.772l9.644,25.095l25.095,65.301c15.529-3.32,31.058-7.157,46.583-11.508
		c15.525-4.352,31.046-9.218,46.559-14.598c11.635-4.035,23.265-8.358,34.889-12.969c5.024-1.993,10.046-4.059,15.068-6.16
		c5.417-2.266,10.832-4.594,16.245-6.985c6.876-3.036,13.749-6.176,20.619-9.414c2.043-0.963,4.087-1.911,6.129-2.891l-22.226-56.5
		L608.487,656.345z"/>
	<path fill="#181918" d="M655.421,574.164c-31.974,20.518-65.563,38.49-100.077,54.341c-18.339,8.422-36.954,16.239-55.802,23.481
		c-98.54,37.866-199.287,58.138-283.682,57.083c-43.804-0.549-81.118-6.902-110.874-18.519l7.713,22.029
		c57.368,20.518,328.602,93.086,690.777-203.311c127.39-104.255,220.024-171.655,287.414-214.71
		c-3.758-10.058-7.603-20.085-11.599-30.055c-72.525,45.844-139.785,99.817-208.117,151.638
		c-39.51,29.963-78.942,60.037-118.1,90.469C721.671,531.014,688.82,552.732,655.421,574.164z"/>
	<path fill="#181918" d="M216.174,684.095c172.625,2.162,406.663-89.486,518.648-205.255
		c112.518-116.322,54.446-207.873-125.39-204.084c-174.74,3.682-398.592,96.476-503.987,206.9
		C0.525,591.583,48.402,681.994,216.174,684.095z M512.684,574.285c-27.587,28.597-85.643,51.487-129.416,51.159
		c-43.458-0.326-56.483-23.447-29.347-51.674c27.168-28.26,84.577-51.228,128.483-51.271
		C526.629,522.455,540.303,545.654,512.684,574.285z M669.485,393.013c45.252-0.517,59.501,22.54,31.554,51.472
		c-27.913,28.898-87.067,52.41-131.858,52.547c-44.466,0.136-58.046-22.85-30.593-51.369
		C566.074,417.111,624.559,393.527,669.485,393.013z M443.285,366.495c27.089-28.243,84.521-51.799,128.535-52.589
		c44.331-0.796,58.158,21.776,30.622,50.39c-27.504,28.58-85.583,52.071-129.465,52.495
		C429.408,417.211,416.228,394.705,443.285,366.495z M433.335,458.054c18.927-0.119,24.717,9.768,12.882,22.078
		c-11.829,12.304-36.733,22.314-55.578,22.364c-18.786,0.05-24.455-9.824-12.709-22.058
		C389.681,468.197,414.465,458.173,433.335,458.054z M205.482,448.08c26.549-27.775,82.329-50.706,124.832-51.191
		c42.805-0.489,55.835,21.943,28.856,50.077c-26.949,28.101-83.343,50.964-125.716,51.094
		C191.38,498.187,178.964,475.823,205.482,448.08z M148.098,573.102c26.587-27.778,82.326-50.354,124.74-50.396
		c42.715-0.042,55.641,22.757,28.621,50.893c-26.988,28.104-83.341,50.604-125.623,50.287
		C133.853,623.572,121.541,600.848,148.098,573.102z"/>
</g>
</svg>
