<?xml version="1.0" encoding="utf-8"?>
<!-- Designed by Vexels.com - 2019 All Rights Reserved - https://vexels.com/terms-and-conditions/  -->
<svg version="1.1" id="Capa_1" xmlns="http://www.w3.org/2000/svg" xmlns:xlink="http://www.w3.org/1999/xlink" x="0px" y="0px"
	 viewBox="0 0 1200 1200" enable-background="new 0 0 1200 1200" xml:space="preserve">
<g>
	<g>
		<g>
			<polygon fill="#DDB9A8" points="964.233,750.344 964.307,750.297 964.024,750.296 			"/>
		</g>
		<g>
			<path fill="#EF6472" d="M1101.325,577.664c0.024-0.133,0.043-0.268,0.067-0.4c-0.024,0.132-0.048,0.266-0.072,0.399
				L1101.325,577.664z"/>
		</g>
		<g>
			<path fill="#EF6472" d="M1101.559,576.334c-0.011,0.06-0.021,0.12-0.032,0.18c0.017-0.088,0.031-0.16,0.031-0.16l0.279,0.077
				l48.08,9.984l0.083,0.015c0,0-0.132-10.777-0.262-11.496c-0.134-0.718-0.31-1.415-0.543-2.08c0,0,0-0.001,0-0.002
				c-0.127-0.362-0.307-0.689-0.463-1.032c-1.046-2.321-2.695-4.245-4.943-5.486l-0.223-0.144l-32.837-21.193
				c-0.002,0.003-0.003,0.008-0.005,0.012c-1.849,4.752-3.737,10.023-5.363,15.501
				C1105.362,560.509,1102.591,570.889,1101.559,576.334z"/>
		</g>
		<g>
			<path fill="#DDB9A8" d="M1104.65,641.205c-0.135,0.049-0.268,0.096-0.404,0.145c-0.875-3.272-1.64-6.635-2.304-10.07
				c-0.355-1.622-0.676-3.247-0.921-4.874l-160.65,35.65c0,0-0.048,0.015-0.102,0.031c0.002,0.002,0.004,0.003,0.006,0.005h0.019
				c-4.575,2.338-8.62,12.302-2.158,38.476c6.246,25.298,20.439,46.176,26.259,49.672l179.133-114.282l-33.103,21.089
				C1108.529,652.16,1106.44,646.787,1104.65,641.205z"/>
		</g>
		<g>
			<path fill="#DDB9A8" d="M1149.014,629.407c0.479-1.363,0.752-2.849,0.809-4.415c0-0.002,0.001-0.005,0.001-0.007
				c-0.002,0.001-0.003,0.002-0.005,0.002c-0.029,0.784-0.11,1.549-0.244,2.288C1149.439,628.011,1149.253,628.725,1149.014,629.407
				z"/>
		</g>
		<g>
			<path fill="#E85D66" d="M1101.558,576.354c0,0-0.014,0.072-0.031,0.16c-0.027,0.138-0.063,0.325-0.079,0.412
				c-0.021,0.111-0.036,0.226-0.056,0.338c-0.024,0.132-0.043,0.267-0.067,0.4c-0.295,1.63-0.575,3.27-0.821,4.929
				c-0.021,0.147-0.04,0.296-0.061,0.445c-0.264,1.829-0.499,3.676-0.692,5.543c-0.011,0.113-0.02,0.229-0.031,0.342
				c-0.192,1.908-0.348,3.834-0.453,5.784c-0.004,0.065-0.005,0.13-0.008,0.195c-0.105,2.002-0.165,4.025-0.167,6.072
				c-0.008,8.769,0.689,17.268,1.984,25.384l48.909-10.364l0.015-29.559l-0.082-0.017l-48.08-9.984L1101.558,576.354z"/>
		</g>
		<g>
			<path fill="#F7B04B" d="M1104.65,641.205c-1.045-3.254-1.977-6.577-2.708-9.925c0.664,3.434,1.43,6.798,2.304,10.07
				C1104.382,641.301,1104.515,641.254,1104.65,641.205z"/>
		</g>
		<g>
			<path fill="#E25152" d="M1101.022,626.406c0.245,1.627,0.566,3.252,0.921,4.874c0.731,3.348,1.663,6.671,2.708,9.925
				c1.79,5.582,3.879,10.955,5.775,15.843l33.103-21.089l0.067-0.042c2.584-1.421,4.43-3.707,5.418-6.508c0-0.001,0-0.002,0-0.002
				c0.24-0.682,0.425-1.396,0.561-2.133c0.134-0.739,0.215-1.504,0.244-2.288c0.021-0.556,0.165-8.994,0.165-8.994l-48.909,10.364
				l-0.06,0.013C1101.017,626.382,1101.02,626.394,1101.022,626.406z"/>
		</g>
		<g>
			<path fill="#EAD1C1" d="M939.112,501.193c-6.124,24.603-2.635,36.916,1.326,40.703c0.129,0.123,0.258,0.266,0.388,0.371h0.003
				c-0.001,0.001-0.001,0.001-0.001,0.002l0,0c-0.13-0.106,160.733,34.066,160.733,34.066c1.032-5.445,3.803-15.825,3.803-15.825
				c1.625-5.478,3.514-10.748,5.363-15.501L965.767,451.52l-0.365,0.056C959.27,455.143,945.388,475.978,939.112,501.193z"/>
		</g>
		<g>
			<polygon fill="#EAD1C1" points="940.827,542.268 940.826,542.268 940.826,542.268 			"/>
		</g>
		<g>
			<path fill="#E5C3B5" d="M940.826,542.268c-5.157,2.348-14.54,32.447-14.565,58.609c-0.024,25.403,9.068,57.843,14.009,61.211
				c0.054-0.016,0.102-0.031,0.102-0.031l160.65-35.65c-0.002-0.012-0.005-0.025-0.007-0.037l0.06-0.013
				c-1.295-8.116-1.993-16.615-1.984-25.384c0.002-2.047,0.062-4.069,0.167-6.072c0.004-0.065,0.005-0.13,0.008-0.195
				c0.106-1.949,0.261-3.876,0.453-5.784c0.011-0.113,0.02-0.228,0.031-0.342c0.193-1.867,0.428-3.713,0.692-5.543
				c0.021-0.148,0.04-0.297,0.061-0.445c0.245-1.659,0.521-3.3,0.816-4.93c0.024-0.133,0.048-0.266,0.072-0.399
				c0.02-0.112,0.035-0.227,0.056-0.338c0.016-0.088,0.052-0.274,0.079-0.412c0.011-0.06,0.021-0.12,0.032-0.18
				C1101.559,576.334,940.696,542.163,940.826,542.268L940.826,542.268z"/>
		</g>
		<g>
			<path fill="#E85D66" d="M935.79,600.878c0.019-26.161,7.155-56.26,11.078-58.609l0,0l-2.664-0.013l-33.418-0.146L50.44,540.703
				l-0.355-0.002L50,660.509l896.45,1.584c-0.002-0.002-0.003-0.003-0.005-0.005C942.687,658.721,935.772,626.281,935.79,600.878z"
				/>
		</g>
		<g>
			<polygon fill="#E85D66" points="940.825,542.267 940.827,542.268 940.828,542.267 			"/>
		</g>
		<g>
			<path fill="#EF6472" d="M69.277,449.656l-19.196,91.045h0.005l0.355,0.002l860.351,1.388l33.413,0.165l2.664,0.013h0.001l0,0
				c-0.001-0.001-0.001-0.001-0.001-0.002c-0.098-0.105-0.197-0.247-0.295-0.371c-3.013-3.787-5.666-16.1-1.008-40.703
				c4.773-25.215,15.332-46.051,19.996-49.617c0.175-0.134,0.344-0.251,0.501-0.335L69.277,449.656z"/>
		</g>
		<g>
			<path fill="#E25152" d="M944.823,700.569c-4.915-26.174-1.838-36.138,1.641-38.476h-0.015L50,660.509l18.412,88.204l896.1,1.584
				l0.215,0.001l0.136,0.001c-0.021-0.016-0.046-0.041-0.068-0.057C960.369,746.745,949.573,725.867,944.823,700.569z"/>
		</g>
		<g>
			<g>
				<polygon fill="#C6424F" points="161.735,660.812 161.847,541.177 124.672,541.006 124.205,541.005 124.093,660.812 				"/>
			</g>
			<g>
				<polygon fill="#D1464D" points="162.314,541.006 161.848,541.005 161.842,541.005 187.031,450.138 149.438,449.96 
					124.199,541.005 124.205,541.005 124.672,541.006 				"/>
			</g>
			<g>
				<polygon fill="#BA3246" points="185.942,749.016 161.783,660.99 124.093,660.812 148.3,749.016 				"/>
			</g>
		</g>
		<g>
			<g>
				<polygon fill="#C6424F" points="224.877,660.812 224.989,541.177 187.814,541.006 187.347,541.005 187.235,660.812 				"/>
			</g>
			<g>
				<polygon fill="#D1464D" points="225.456,541.006 224.99,541.005 224.984,541.005 250.173,450.138 212.58,449.96 
					187.341,541.005 187.347,541.005 187.814,541.006 				"/>
			</g>
			<g>
				<polygon fill="#BA3246" points="249.084,749.016 224.925,660.99 187.235,660.812 211.442,749.016 				"/>
			</g>
		</g>
	</g>
	<g>
		<path fill="#F9EAE4" d="M523.053,663.138h-24.291c-2.72,0-4.96-0.634-6.719-1.901c-1.765-1.264-2.983-2.886-3.662-4.866
			l-7.974-23.551h-51.365l-7.974,23.551c-0.618,1.731-1.825,3.289-3.617,4.681s-3.987,2.086-6.582,2.086h-24.479l52.293-135.086
			h32.08L523.053,663.138z M436.311,611.511c12.279-0.001,24.559-0.002,36.838-0.004c-5.759-17.328-9.828-37.761-18.414-53.739
			C446.157,573.764,442.077,594.173,436.311,611.511z"/>
		<path fill="#F9EAE4" d="M580.167,613.164c0,0.001,0,49.973,0,49.973H548.83V528.052c0,0,43.949,0,43.95,0
			c20.116,0,44.638,5.348,52.258,26.547c7.9,21.976-5.687,41.921-24.506,52.049c11.539,6.808,17.781,22.092,24.563,33.184
			c1.465,2.395,11.672,23.306,14.251,23.306c0,0-28.372,0-28.372,0c-5.251,0-9.023-1.977-11.31-5.935
			c-5.619-9.823-9.382-20.626-15.575-30.157C603.305,625.84,580.167,604.369,580.167,613.164z M580.191,591.422
			c9.154,1.797,19.224,1.303,27.008-3.839c7.785-5.142,12.307-15.798,8.423-24.28c-2.761-6.029-9.066-9.829-15.544-11.249
			c-11.731-2.573-17.114-2.608-19.91,7.434C579.484,561.943,579.841,591.354,580.191,591.422z"/>
		<path fill="#F9EAE4" d="M779.503,528.052v24.849H741.49v110.237h-31.337V552.901H672.14v-24.849H779.503z"/>
	</g>
</g>
</svg>
