<?xml version="1.0" encoding="utf-8"?>
<!--Designed by Vexels.com - 2018 All Rights Reserved - https://vexels.com/terms-and-conditions/-->
<svg version="1.1" id="Layer_1" xmlns="http://www.w3.org/2000/svg" xmlns:xlink="http://www.w3.org/1999/xlink" x="0px" y="0px"
	 viewBox="0 0 1200 1200" enable-background="new 0 0 1200 1200" xml:space="preserve">
<g>
	<rect x="345.884" y="76.194" fill="#5FBAA7" width="508.247" height="1047.616"/>
	<g>
		<path fill="#2B2B2B" d="M721.606,589.672L508.322,471.235c-7.876-4.373-17.551,1.322-17.551,10.33v236.873
			c0,9.008,9.675,14.703,17.551,10.33L721.606,610.33C729.712,605.829,729.712,594.173,721.606,589.672z"/>
		<path fill="#2B2B2B" d="M997.303,50c-0.893,0-1.646,0.42-2.516,0.507c-0.87-0.087-1.622-0.507-2.516-0.507h-138.14H345.886
			h-138.14c-0.895,0-1.652,0.422-2.524,0.51c-0.872-0.087-1.629-0.51-2.524-0.51c-14.464,0-26.199,11.735-26.199,26.199v1047.603
			c0,14.464,11.735,26.199,26.199,26.199c0.895,0,1.652-0.422,2.524-0.51c0.872,0.087,1.629,0.51,2.524,0.51h138.14h508.246h138.14
			c0.893,0,1.646-0.42,2.516-0.507c0.87,0.087,1.622,0.507,2.516,0.507c14.464,0,26.199-11.735,26.199-26.199V76.199
			C1023.501,61.735,1011.767,50,997.303,50z M880.33,573.801V451.609h90.774v122.192H880.33z M971.104,626.199v122.192H880.33
			V626.199H971.104z M880.33,399.212V276.986h90.774v122.226H880.33z M880.33,800.788h90.774v122.226H880.33V800.788z
			 M971.104,224.589H880.33V102.397h90.774V224.589z M880.33,975.411h90.774v122.192H880.33V975.411z M228.896,573.801V451.609
			h90.791v122.192H228.896z M319.687,626.199v122.192h-90.791V626.199H319.687z M228.896,399.212V276.986h90.791v122.226H228.896z
			 M228.896,800.788h90.791v122.226h-90.791V800.788z M319.687,224.589h-90.791V102.397h90.791V224.589z M228.896,975.411h90.791
			v122.192h-90.791V975.411z M372.084,102.397h455.849v995.206H372.084V102.397z"/>
	</g>
</g>
</svg>
