<?xml version="1.0" encoding="utf-8"?>
<!-- Designed by Vexels.com - 2016 All Rights Reserved - https://vexels.com/terms-and-conditions/  -->

<svg version="1.1" id="Layer_1" xmlns="http://www.w3.org/2000/svg" xmlns:xlink="http://www.w3.org/1999/xlink" x="0px" y="0px"
	 width="1200px" height="1200px" viewBox="0 0 1200 1200" enable-background="new 0 0 1200 1200" xml:space="preserve">
<g>
	<path fill="#575756" d="M262.89,704.616C145.347,704.616,50,799.963,50,917.509c0,117.604,95.347,212.95,212.89,212.95
		c117.606,0,212.953-95.347,212.953-212.95C475.843,799.963,380.496,704.616,262.89,704.616z M390.236,842.944
		c0,0-81.766,141.544-117.368,195.21c-43.392,65.443-75.391,13.49-75.391,13.49l-84.661-129.413
		c-11.039-19.303-7.499-33.71,4.722-43.334c22.495-17.68,42.981,11.955,42.981,11.955l70.905,95.909
		c0,0,73.916-120.853,110.875-181.749c9.8-16.205,28.752-23.115,42.92-11.039C405.232,810.914,390.236,842.944,390.236,842.944z"/>
	<g>
		<path fill="#575756" d="M1149.764,320.306V128.197h-111.7v89.413H504.771v-89.413h-92.158v580.847
			c65.355,46.257,108.039,122.328,108.039,208.465c0,32.204-6.139,62.876-17.063,91.272h544.925c0,0,101.486,7.762,101.486-91.097
			L1149.764,320.306z M1014.565,818.118H540.488v-67.423h474.077V818.118z M1014.565,687.435H540.488v-67.48h474.077V687.435z
			 M1014.565,562.274H540.488v-67.362h474.077V562.274z M1014.565,431.507H540.488v-67.392h474.077V431.507z"/>
		<path fill="#575756" d="M1004.294,98.589H808.347c-4.371-16.649-19.485-29.049-37.549-29.049
			c-18.067,0-33.181,12.399-37.549,29.049H537.302v86.342h466.992V98.589z"/>
	</g>
</g>
</svg>
